<svg width="516" height="300" viewBox="0 0 516 300" fill="none" xmlns="http://www.w3.org/2000/svg">
<rect x="66" y="228" width="232" height="58" rx="13" fill="#D9D9D9"/>
<path d="M85.8719 131.2H43.7219C40.9219 131.2 38.6719 130.45 36.9719 128.95C35.2719 127.45 34.4219 125.4 34.4219 122.8C34.4219 120.1 35.1719 117.85 36.6719 116.05L88.7219 54.1C89.6219 53.1 90.9219 52.3 92.6219 51.7C94.3219 51 96.1719 50.65 98.1719 50.65C101.072 50.65 103.422 51.55 105.222 53.35C107.122 55.15 108.072 57.45 108.072 60.25V112.45H125.322C125.322 118.95 124.222 123.7 122.022 126.7C119.822 129.7 116.372 131.2 111.672 131.2H108.072V144.85C108.072 149.55 106.272 153 102.672 155.2C99.1719 157.3 93.5719 158.35 85.8719 158.35V131.2ZM87.3719 112.45V86.65L93.0719 79L91.8719 78.1L63.2219 112.45H87.3719ZM179.509 158.35C171.609 158.35 164.359 156.8 157.759 153.7C151.259 150.6 146.109 146.4 142.309 141.1C138.509 135.8 136.609 129.9 136.609 123.4V85.6C136.609 79.1 138.509 73.2 142.309 67.9C146.109 62.6 151.259 58.4 157.759 55.3C164.359 52.2 171.609 50.65 179.509 50.65C187.409 50.65 194.609 52.2 201.109 55.3C207.709 58.4 212.909 62.6 216.709 67.9C220.509 73.2 222.409 79.1 222.409 85.6V123.4C222.409 129.9 220.509 135.8 216.709 141.1C212.909 146.4 207.709 150.6 201.109 153.7C194.609 156.8 187.409 158.35 179.509 158.35ZM179.509 139.15C185.909 139.15 190.959 137.7 194.659 134.8C198.459 131.8 200.359 127.75 200.359 122.65V86.35C200.359 81.25 198.459 77.25 194.659 74.35C190.959 71.35 185.909 69.85 179.509 69.85C173.109 69.85 168.009 71.35 164.209 74.35C160.509 77.25 158.659 81.25 158.659 86.35V122.65C158.659 127.75 160.509 131.8 164.209 134.8C168.009 137.7 173.109 139.15 179.509 139.15ZM285.091 131.2H242.941C240.141 131.2 237.891 130.45 236.191 128.95C234.491 127.45 233.641 125.4 233.641 122.8C233.641 120.1 234.391 117.85 235.891 116.05L287.941 54.1C288.841 53.1 290.141 52.3 291.841 51.7C293.541 51 295.391 50.65 297.391 50.65C300.291 50.65 302.641 51.55 304.441 53.35C306.341 55.15 307.291 57.45 307.291 60.25V112.45H324.541C324.541 118.95 323.441 123.7 321.241 126.7C319.041 129.7 315.591 131.2 310.891 131.2H307.291V144.85C307.291 149.55 305.491 153 301.891 155.2C298.391 157.3 292.791 158.35 285.091 158.35V131.2ZM286.591 112.45V86.65L292.291 79L291.091 78.1L262.441 112.45H286.591Z" fill="white"/>
<path d="M323.5 121L324.136 118.455C324.378 117.489 324.5 116.496 324.5 115.5V114.127C324.5 114.043 324.49 113.958 324.469 113.876C324.269 113.074 323.255 112.819 322.699 113.431L320.722 115.606C319.84 116.577 318.284 116.478 317.532 115.403C316.629 114.113 314.668 114.284 314.002 115.711L313.94 115.842C313.174 117.484 310.837 117.479 310.077 115.834L309.147 113.818C309.051 113.61 308.899 113.433 308.708 113.305C308.074 112.882 307.211 113.126 306.891 113.818L306.136 115.455C305.463 116.915 303.411 116.978 302.649 115.562C301.927 114.221 300.015 114.189 299.248 115.504L299.012 115.907C298.262 117.194 296.479 117.386 295.472 116.287L293.26 113.874C292.451 112.993 291.333 112.458 290.14 112.384L288.604 112.288C285.735 112.108 282.972 113.402 281.272 115.72L278.685 119.247C275.823 123.15 270.033 123.259 267.026 119.468L265.874 118.015C263.606 115.156 259.294 115.074 256.919 117.845L255.737 119.223C254.037 121.206 250.967 121.202 249.273 119.214C247.934 117.644 245.662 117.262 243.883 118.307L243.068 118.785C241.822 119.517 240.253 119.408 239.121 118.509L237.905 117.545C236.878 116.73 235.367 117.014 234.706 118.147C234.57 118.38 234.479 118.637 234.438 118.904L233.563 124.588C233.521 124.862 233.507 125.14 233.522 125.417L233.741 129.587C233.841 131.482 236.137 132.363 237.478 131.022C238.098 130.402 239.028 130.211 239.841 130.537L240.149 130.659C240.687 130.875 241.097 131.323 241.263 131.878L241.375 132.251C241.807 133.69 243.741 133.932 244.514 132.644L244.745 132.259C245.149 131.586 246.046 131.41 246.674 131.881L246.706 131.904C247.173 132.255 247.818 132.243 248.271 131.875C248.808 131.441 249.593 131.513 250.041 132.038L250.938 133.087C252.018 134.351 253.972 134.342 255.061 133.086C255.299 132.812 255.537 132.54 255.759 132.289C256.508 131.443 257.399 131.532 258.077 132.436L258.5 133L259.048 133.731C260.274 135.365 262.726 135.365 263.952 133.731C265.046 132.272 267.163 132.085 268.495 133.329L270.14 134.864C272.048 136.645 274.995 136.692 276.959 134.974L279.202 133.011C280.427 131.939 282.312 132.173 283.238 133.511L284.828 135.808C285.342 136.55 286.469 136.444 286.836 135.619L286.959 135.343C287.337 134.492 288.558 134.534 288.876 135.409L288.909 135.499C289.244 136.422 290.57 136.364 290.823 135.414C291.1 134.374 292.598 134.44 292.783 135.501L293.438 139.27C293.637 140.413 295.137 140.713 295.76 139.734C296.38 138.76 297.873 139.053 298.08 140.189L298.472 142.344C298.49 142.448 298.524 142.548 298.571 142.641C298.817 143.134 299.388 143.371 299.911 143.196L299.928 143.191C300.285 143.072 300.56 142.782 300.659 142.418L302.709 134.9C302.954 134.002 304.209 133.95 304.527 134.825C304.84 135.686 306.068 135.655 306.337 134.78L306.408 134.551C306.716 133.549 308.147 133.587 308.401 134.604L308.497 134.988C308.779 136.115 310.366 136.155 310.704 135.044L310.801 134.725C311.209 133.384 313.181 133.648 313.222 135.049L314 161.5L314.483 193.884C314.493 194.503 314.997 195 315.617 195C316.243 195 316.75 194.493 316.75 193.867V164.25L317.943 131.089C317.962 130.56 318.636 130.348 318.954 130.772C319.205 131.107 319.72 131.06 319.907 130.686L320.5 129.5L322 125.5L323.5 121Z" fill="#FFB000" stroke="#FFB000"/>
<path d="M81.5001 62.5L68.5001 78L37.3901 114.806C34.6543 118.043 33.7536 122.449 35 126.5L37.5 133L39.5291 137.655C41.4126 141.976 47.7723 141.157 48.5 136.5L50.8667 127.033C51.2474 125.51 52.5352 124.385 54.0954 124.212C55.2918 124.079 56.4793 124.527 57.2891 125.418L58.2392 126.463C61.6525 130.218 67.8571 128.809 69.3151 123.949L70.4999 120L73.2495 107.933C73.6837 106.027 76.3923 106.009 76.8517 107.909C77.3664 110.038 80.5001 109.665 80.5001 107.474V92.85C80.5001 91.9797 80.816 91.139 81.3891 90.4841L84.0001 87.5L91.003 78.6296C91.2676 78.2945 91.7654 78.2653 92.0674 78.5672C92.3163 78.8162 92.3464 79.2096 92.1382 79.4935L88.5192 84.4285C87.5322 85.7744 87.0001 87.3998 87.0001 89.0688V90.5V95.5V98V100.5V102.283C87.0001 103.597 88.6167 104.222 89.5001 103.25C90.3835 102.278 92.0001 102.903 92.0001 104.217V107.83C92.0001 107.943 92.014 108.056 92.0415 108.165C92.3978 109.591 94.4364 109.552 94.7391 108.115L95.5001 104.5C95.7492 103.504 97.1717 103.522 97.3945 104.525L97.6461 105.657C97.8588 106.614 99.2171 106.632 99.455 105.681C99.6976 104.71 101.092 104.756 101.271 105.74L101.5 107L101.95 109.252C101.983 109.414 102.062 109.562 102.179 109.679L102.309 109.808C102.649 110.149 103.222 110.056 103.437 109.625C103.479 109.543 103.504 109.453 103.51 109.36L103.819 105.029C103.894 103.99 105.124 103.484 105.908 104.17C106.724 104.883 108 104.304 108 103.22V100.5V99.125V97.75V95V87V68V59.4334C108 58.8135 107.924 58.1959 107.774 57.5945C107.592 56.8688 107.305 56.174 106.92 55.5326L106.679 55.1319C106.228 54.3801 105.687 53.6865 105.067 53.0666L105 53L104.618 52.618C103.883 51.8828 102.987 51.3288 102 51L101.449 50.8162C100.82 50.6068 100.162 50.5 99.5001 50.5H98.0001C97.0066 50.5 96.0196 50.6602 95.0771 50.9743L95.0001 51L93.0001 51.5L91.7183 52.0127C90.9097 52.3362 90.1472 52.7647 89.4505 53.2872C88.8192 53.7607 88.2466 54.3079 87.7449 54.917L81.5001 62.5Z" fill="#FFB000" stroke="#FFB000"/>
<path d="M324.744 182.773C325.119 182.727 325.4 182.762 325.587 182.879C325.798 182.973 326.009 183.031 326.22 183.055C326.337 183.078 326.454 183.09 326.572 183.09C326.712 183.066 326.853 183.055 326.994 183.055C327.298 183.055 327.533 183.09 327.697 183.16C327.884 183.23 328.072 183.383 328.259 183.617C328.306 183.664 328.365 183.734 328.435 183.828C328.529 183.898 328.576 183.969 328.576 184.039C328.576 184.227 328.529 184.391 328.435 184.531C328.341 184.672 328.294 184.871 328.294 185.129C328.294 185.527 328.341 185.926 328.435 186.324C328.529 186.699 328.587 187.086 328.611 187.484C328.728 188.938 328.786 190.402 328.786 191.879C328.81 193.332 328.822 194.773 328.822 196.203C328.822 196.391 328.81 196.566 328.786 196.73C328.786 196.871 328.74 197 328.646 197.117V197.574C328.622 198.184 328.634 198.805 328.681 199.438C328.728 200.047 328.751 200.656 328.751 201.266C328.751 201.805 328.716 202.344 328.646 202.883C328.599 203.422 328.576 203.973 328.576 204.535C328.576 205.051 328.611 205.555 328.681 206.047C328.751 206.539 328.786 207.043 328.786 207.559C328.669 207.77 328.599 207.934 328.576 208.051C328.552 208.168 328.505 208.273 328.435 208.367C328.365 208.414 328.283 208.426 328.189 208.402C328.119 208.379 328.06 208.402 328.013 208.473C327.896 208.613 327.814 208.777 327.767 208.965C327.72 209.152 327.603 209.305 327.415 209.422C327.369 209.75 327.24 209.996 327.029 210.16C326.841 210.348 326.701 210.582 326.607 210.863C326.326 210.887 326.126 210.875 326.009 210.828C325.915 210.781 325.81 210.734 325.693 210.688C325.669 210.289 325.669 209.996 325.693 209.809C325.74 209.645 325.763 209.469 325.763 209.281C325.763 209.047 325.704 208.871 325.587 208.754C325.47 208.637 325.388 208.484 325.341 208.297C325.083 208.133 324.908 208.027 324.814 207.98C324.72 207.91 324.638 207.828 324.568 207.734C324.427 207.547 324.31 207.348 324.216 207.137C324.122 206.926 324.017 206.727 323.9 206.539C323.572 206 323.232 205.449 322.88 204.887C322.552 204.324 322.189 203.773 321.79 203.234C321.72 203.117 321.638 203.012 321.544 202.918C321.451 202.824 321.369 202.719 321.298 202.602C320.9 201.969 320.525 201.324 320.173 200.668C319.822 200.012 319.411 199.391 318.943 198.805C318.755 198.57 318.615 198.312 318.521 198.031C318.427 197.727 318.286 197.469 318.099 197.258C318.076 197.375 318.064 197.504 318.064 197.645C318.064 197.785 318.064 197.914 318.064 198.031C318.064 198.828 318.076 199.625 318.099 200.422C318.146 201.195 318.169 201.98 318.169 202.777C318.169 202.941 318.146 203.094 318.099 203.234C318.076 203.352 318.064 203.492 318.064 203.656C318.064 203.891 318.076 204.113 318.099 204.324C318.122 204.535 318.134 204.746 318.134 204.957C318.134 205.215 318.122 205.461 318.099 205.695C318.099 205.93 318.087 206.164 318.064 206.398C318.017 206.703 317.958 206.996 317.888 207.277C317.818 207.535 317.783 207.805 317.783 208.086C317.783 208.25 317.794 208.402 317.818 208.543C317.865 208.684 317.888 208.812 317.888 208.93C317.724 209.188 317.513 209.316 317.255 209.316C317.021 209.316 316.822 209.41 316.658 209.598C316.517 209.574 316.4 209.586 316.306 209.633C316.236 209.68 316.165 209.703 316.095 209.703C316.001 209.703 315.919 209.691 315.849 209.668C315.802 209.645 315.744 209.633 315.673 209.633C315.556 209.633 315.439 209.691 315.322 209.809C315.204 209.926 315.087 209.984 314.97 209.984C314.9 209.984 314.771 209.938 314.583 209.844C314.419 209.75 314.232 209.633 314.021 209.492C313.833 209.375 313.658 209.246 313.494 209.105C313.329 208.988 313.247 208.895 313.247 208.824C313.224 208.707 313.212 208.543 313.212 208.332C313.212 208.051 313.224 207.781 313.247 207.523C313.294 207.242 313.341 206.961 313.388 206.68C313.458 205.883 313.494 205.098 313.494 204.324C313.494 203.527 313.494 202.73 313.494 201.934C313.494 201.605 313.494 201.277 313.494 200.949C313.517 200.621 313.529 200.293 313.529 199.965C313.529 199.191 313.494 198.418 313.423 197.645C313.376 196.848 313.353 196.062 313.353 195.289C313.353 194.75 313.376 194.223 313.423 193.707C313.47 193.168 313.494 192.641 313.494 192.125C313.494 191.727 313.482 191.34 313.458 190.965C313.435 190.59 313.423 190.203 313.423 189.805C313.4 189.547 313.4 189.277 313.423 188.996C313.447 188.691 313.458 188.41 313.458 188.152C313.458 187.848 313.411 187.566 313.318 187.309C313.247 187.027 313.212 186.77 313.212 186.535C313.212 186.395 313.236 186.266 313.283 186.148C313.353 186.008 313.388 185.867 313.388 185.727C313.388 185.539 313.353 185.352 313.283 185.164C313.236 184.977 313.212 184.789 313.212 184.602C313.212 184.414 313.236 184.238 313.283 184.074C313.329 183.91 313.353 183.734 313.353 183.547C313.681 183.383 313.974 183.301 314.232 183.301C314.49 183.301 314.677 183.395 314.794 183.582C314.794 184.004 314.818 184.332 314.865 184.566C314.911 184.777 314.947 185 314.97 185.234C314.97 185.375 314.958 185.539 314.935 185.727C314.935 185.914 314.947 186.102 314.97 186.289C314.994 186.453 315.04 186.594 315.111 186.711C315.204 186.828 315.357 186.887 315.568 186.887C315.615 187.004 315.673 187.109 315.744 187.203C315.814 187.297 315.861 187.414 315.884 187.555C316.025 187.461 316.107 187.332 316.13 187.168C316.154 187.004 316.154 186.852 316.13 186.711C316.247 186.758 316.353 186.781 316.447 186.781C316.54 186.758 316.634 186.77 316.728 186.816C316.775 187.145 316.833 187.438 316.904 187.695C316.974 187.93 316.997 188.211 316.974 188.539C317.443 188.891 317.841 189.395 318.169 190.051C318.521 190.684 318.849 191.258 319.154 191.773C319.318 192.031 319.505 192.277 319.716 192.512C319.951 192.723 320.126 192.98 320.244 193.285C320.431 193.402 320.583 193.555 320.701 193.742C320.818 193.93 320.923 194.117 321.017 194.305C321.486 195.125 322.001 195.922 322.564 196.695C323.126 197.469 323.712 198.23 324.322 198.98C324.345 198.816 324.357 198.664 324.357 198.523C324.357 198.359 324.357 198.195 324.357 198.031L324.322 194.867C324.322 194.68 324.31 194.504 324.286 194.34C324.286 194.176 324.275 194 324.251 193.812C324.204 193.203 324.193 192.605 324.216 192.02C324.24 191.434 324.24 190.836 324.216 190.227C324.169 189.594 324.134 188.949 324.111 188.293C324.111 187.637 324.087 186.98 324.04 186.324C324.017 185.926 323.994 185.527 323.97 185.129C323.947 184.73 323.935 184.332 323.935 183.934C323.935 183.441 323.982 182.996 324.076 182.598C324.122 182.551 324.169 182.516 324.216 182.492C324.286 182.445 324.369 182.422 324.462 182.422C324.603 182.422 324.697 182.539 324.744 182.773ZM351.101 195.043C351.054 195.137 351.007 195.23 350.96 195.324C350.913 195.395 350.878 195.477 350.855 195.57C350.949 195.664 351.031 195.77 351.101 195.887C351.195 195.98 351.241 196.086 351.241 196.203C351.241 196.297 351.218 196.391 351.171 196.484C351.148 196.555 351.148 196.625 351.171 196.695C351.077 196.859 350.972 197.012 350.855 197.152C350.761 197.293 350.691 197.445 350.644 197.609C350.55 197.703 350.468 197.797 350.398 197.891C350.351 197.984 350.304 198.078 350.257 198.172C350.14 198.219 350.058 198.301 350.011 198.418C349.988 198.512 349.929 198.594 349.835 198.664C349.812 198.758 349.695 198.98 349.484 199.332C349.273 199.684 349.038 200.059 348.781 200.457C348.523 200.855 348.277 201.242 348.042 201.617C347.808 201.992 347.644 202.238 347.55 202.355C347.503 202.473 347.445 202.566 347.374 202.637C347.327 202.707 347.269 202.789 347.199 202.883C347.152 202.953 347.116 203.035 347.093 203.129C347.07 203.199 347.034 203.258 346.988 203.305C346.941 203.398 346.882 203.48 346.812 203.551C346.765 203.621 346.718 203.715 346.671 203.832C346.437 204.137 346.202 204.5 345.968 204.922C345.734 205.344 345.511 205.719 345.3 206.047C345.183 206.234 345.066 206.422 344.949 206.609C344.855 206.797 344.749 206.984 344.632 207.172C344.515 207.359 344.398 207.535 344.281 207.699C344.163 207.863 344.046 208.039 343.929 208.227C343.741 208.367 343.577 208.543 343.437 208.754C343.296 208.941 343.132 209.105 342.945 209.246C342.64 209.246 342.452 209.105 342.382 208.824C342.077 208.754 341.925 208.754 341.925 208.824C341.925 208.895 341.925 208.953 341.925 209C341.831 209.047 341.761 209.117 341.714 209.211C341.691 209.305 341.632 209.375 341.538 209.422C341.351 209.375 341.187 209.293 341.046 209.176C340.929 209.082 340.753 209.047 340.519 209.07C340.425 208.93 340.32 208.812 340.202 208.719C340.085 208.602 339.98 208.484 339.886 208.367C339.839 208.227 339.769 208.109 339.675 208.016C339.605 207.922 339.534 207.828 339.464 207.734C339.394 207.617 339.324 207.512 339.253 207.418C339.183 207.324 339.113 207.23 339.042 207.137C338.878 206.926 338.714 206.727 338.55 206.539C338.409 206.328 338.281 206.117 338.163 205.906C337.976 205.625 337.788 205.344 337.601 205.062C337.437 204.758 337.261 204.465 337.074 204.184C336.98 204.043 336.886 203.902 336.792 203.762C336.699 203.621 336.616 203.48 336.546 203.34C336.499 203.223 336.429 203.082 336.335 202.918C336.265 202.754 336.171 202.648 336.054 202.602C336.007 202.414 335.925 202.273 335.808 202.18C335.691 202.086 335.574 201.969 335.456 201.828C335.292 201.641 335.14 201.441 334.999 201.23C334.859 200.996 334.718 200.762 334.577 200.527C334.109 199.871 333.663 199.227 333.241 198.594C332.843 197.961 332.445 197.305 332.046 196.625C332.163 196.25 332.222 195.969 332.222 195.781C332.222 195.594 332.281 195.441 332.398 195.324C332.398 195.23 332.421 195.09 332.468 194.902C332.773 194.387 333.066 193.918 333.347 193.496C333.605 193.098 333.781 192.77 333.874 192.512C333.991 192.254 334.109 191.984 334.226 191.703C334.343 191.633 334.437 191.551 334.507 191.457C334.577 191.34 334.671 191.234 334.788 191.141C334.835 190.883 334.941 190.672 335.105 190.508C335.269 190.32 335.374 190.098 335.421 189.84C335.632 189.676 335.749 189.488 335.773 189.277C336.077 189.066 336.265 188.785 336.335 188.434C336.523 188.246 336.675 188.035 336.792 187.801C336.933 187.566 337.062 187.32 337.179 187.062C337.46 186.828 337.683 186.523 337.847 186.148C337.988 186.055 338.093 185.926 338.163 185.762C338.234 185.598 338.327 185.457 338.445 185.34C338.632 185.035 338.773 184.789 338.866 184.602C338.984 184.391 339.101 184.18 339.218 183.969C339.382 183.969 339.488 183.91 339.534 183.793C339.581 183.676 339.675 183.629 339.816 183.652C339.816 183.441 339.874 183.254 339.991 183.09C340.038 183.066 340.109 183.043 340.202 183.02C340.296 182.973 340.343 182.926 340.343 182.879C340.296 182.598 340.308 182.434 340.378 182.387C340.449 182.34 340.507 182.293 340.554 182.246C340.812 182.293 340.988 182.328 341.081 182.352C341.175 182.375 341.327 182.457 341.538 182.598C341.773 182.598 341.937 182.645 342.031 182.738C342.124 182.832 342.23 182.902 342.347 182.949C342.441 183.043 342.511 183.137 342.558 183.23C342.628 183.324 342.722 183.395 342.839 183.441C343.027 183.699 343.226 183.98 343.437 184.285C343.648 184.59 343.847 184.871 344.034 185.129C344.292 185.48 344.55 185.82 344.808 186.148C345.089 186.453 345.347 186.793 345.581 187.168C345.652 187.285 345.781 187.496 345.968 187.801C346.156 188.082 346.366 188.387 346.601 188.715C346.835 189.043 347.046 189.348 347.234 189.629C347.421 189.887 347.55 190.039 347.62 190.086C347.691 190.203 347.843 190.426 348.077 190.754C348.312 191.082 348.558 191.434 348.816 191.809C349.097 192.16 349.366 192.5 349.624 192.828C349.882 193.156 350.058 193.367 350.152 193.461C350.409 193.812 350.597 194.105 350.714 194.34C350.855 194.551 350.984 194.785 351.101 195.043ZM343.05 201.652C343.308 201.301 343.507 200.984 343.648 200.703C343.788 200.422 343.929 200.141 344.07 199.859C344.304 199.578 344.445 199.379 344.491 199.262C344.538 199.145 344.597 199.027 344.667 198.91C344.855 198.629 345.042 198.348 345.23 198.066C345.441 197.785 345.605 197.48 345.722 197.152C345.863 197.059 345.968 196.941 346.038 196.801C346.109 196.66 346.214 196.531 346.355 196.414C346.214 195.922 346.05 195.547 345.863 195.289C345.675 195.008 345.488 194.738 345.3 194.48C345.23 194.363 345.159 194.246 345.089 194.129C345.019 194.012 344.949 193.895 344.878 193.777C344.784 193.707 344.702 193.637 344.632 193.566C344.585 193.496 344.527 193.426 344.456 193.355C344.409 193.238 344.339 193.086 344.245 192.898C344.152 192.781 344.058 192.676 343.964 192.582C343.87 192.488 343.788 192.371 343.718 192.23C343.624 192.137 343.507 192.008 343.366 191.844C343.226 191.68 343.074 191.504 342.909 191.316C342.769 191.105 342.64 190.918 342.523 190.754C342.406 190.566 342.312 190.414 342.241 190.297C342.195 190.18 342.148 190.086 342.101 190.016C342.077 189.922 342.042 189.828 341.995 189.734C341.878 189.57 341.761 189.43 341.644 189.312C341.527 189.172 341.409 189.02 341.292 188.855C341.222 188.902 341.152 188.938 341.081 188.961C341.034 188.961 340.988 188.984 340.941 189.031C340.777 189.336 340.589 189.617 340.378 189.875C340.191 190.133 340.003 190.414 339.816 190.719C339.652 191 339.488 191.293 339.324 191.598C339.159 191.879 338.995 192.16 338.831 192.441C338.714 192.605 338.597 192.77 338.48 192.934C338.386 193.074 338.281 193.238 338.163 193.426C338.046 193.59 337.941 193.766 337.847 193.953C337.777 194.117 337.683 194.281 337.566 194.445C337.378 194.68 337.226 194.891 337.109 195.078C336.991 195.266 336.874 195.488 336.757 195.746C336.827 195.887 336.933 196.086 337.074 196.344C337.238 196.578 337.402 196.824 337.566 197.082C337.73 197.316 337.87 197.539 337.988 197.75C338.128 197.961 338.21 198.102 338.234 198.172C338.421 198.336 338.574 198.523 338.691 198.734C338.808 198.922 338.96 199.109 339.148 199.297C339.241 199.484 339.347 199.648 339.464 199.789C339.581 199.93 339.699 200.082 339.816 200.246C339.933 200.41 340.085 200.656 340.273 200.984C340.46 201.289 340.648 201.605 340.835 201.934C341.023 202.262 341.21 202.566 341.398 202.848C341.585 203.129 341.738 203.305 341.855 203.375C342.089 203.117 342.277 202.836 342.417 202.531C342.581 202.203 342.792 201.91 343.05 201.652ZM368.81 183.863C368.763 183.957 368.739 184.051 368.739 184.145C368.763 184.238 368.775 184.344 368.775 184.461C368.728 184.742 368.728 184.883 368.775 184.883C368.821 184.883 368.845 184.906 368.845 184.953L368.599 185.305C368.599 185.445 368.564 185.574 368.493 185.691C368.446 185.809 368.435 185.949 368.458 186.113C368.388 186.23 368.318 186.348 368.247 186.465C368.2 186.582 368.118 186.699 368.001 186.816H367.544C367.286 186.816 367.005 186.84 366.7 186.887C366.419 186.91 366.138 186.922 365.857 186.922C365.81 186.922 365.751 186.922 365.681 186.922C365.611 186.898 365.54 186.887 365.47 186.887C365.423 186.887 365.364 186.898 365.294 186.922C365.224 186.922 365.142 186.922 365.048 186.922C364.696 186.922 364.345 186.91 363.993 186.887C363.665 186.84 363.314 186.816 362.939 186.816C362.845 186.816 362.751 186.816 362.657 186.816C362.564 186.816 362.458 186.828 362.341 186.852C362.318 187.25 362.294 187.66 362.271 188.082C362.271 188.48 362.271 188.891 362.271 189.312C362.271 189.43 362.259 189.559 362.236 189.699C362.212 189.816 362.2 189.934 362.2 190.051C362.177 190.355 362.154 190.648 362.13 190.93C362.13 191.211 362.13 191.504 362.13 191.809C362.13 192.465 362.13 193.121 362.13 193.777C362.154 194.434 362.177 195.102 362.2 195.781C362.224 196.133 362.247 196.473 362.271 196.801C362.294 197.129 362.306 197.469 362.306 197.82C362.306 198.617 362.294 199.414 362.271 200.211C362.247 200.984 362.236 201.77 362.236 202.566C362.236 202.824 362.224 203.07 362.2 203.305C362.177 203.516 362.165 203.75 362.165 204.008C362.165 204.547 362.177 205.086 362.2 205.625C362.224 206.164 362.236 206.703 362.236 207.242C362.236 207.5 362.224 207.758 362.2 208.016C362.2 208.273 362.2 208.531 362.2 208.789C362.083 208.977 362.001 209.141 361.954 209.281C361.907 209.422 361.767 209.492 361.532 209.492C361.368 209.445 361.286 209.387 361.286 209.316C361.31 209.27 361.298 209.223 361.251 209.176C361.04 209.152 360.876 209.164 360.759 209.211C360.665 209.281 360.548 209.34 360.407 209.387C360.337 209.363 360.255 209.352 360.161 209.352C360.091 209.352 360.021 209.352 359.95 209.352C359.904 209.352 359.857 209.363 359.81 209.387C359.763 209.434 359.657 209.457 359.493 209.457C359.353 209.48 359.271 209.457 359.247 209.387C359.224 209.316 359.154 209.281 359.036 209.281C358.919 209.352 358.779 209.398 358.614 209.422C358.474 209.469 358.333 209.492 358.193 209.492C358.052 209.398 357.982 209.305 357.982 209.211C358.005 209.141 357.993 209.059 357.946 208.965C357.923 208.918 357.876 208.859 357.806 208.789C357.759 208.695 357.712 208.625 357.665 208.578C357.712 208.25 357.747 207.957 357.771 207.699C357.794 207.441 357.806 207.16 357.806 206.855C357.806 206.246 357.782 205.648 357.736 205.062C357.689 204.477 357.665 203.879 357.665 203.27C357.665 203.082 357.689 202.883 357.736 202.672C357.782 202.461 357.806 202.238 357.806 202.004C357.759 201.816 357.747 201.711 357.771 201.688C357.794 201.641 357.806 201.594 357.806 201.547C357.806 201.406 357.794 201.266 357.771 201.125C357.771 200.984 357.771 200.844 357.771 200.703C357.771 200.422 357.771 200.141 357.771 199.859C357.794 199.578 357.806 199.297 357.806 199.016C357.806 198.898 357.794 198.781 357.771 198.664C357.771 198.523 357.771 198.395 357.771 198.277C357.747 198.066 357.736 197.844 357.736 197.609C357.759 197.375 357.771 197.141 357.771 196.906C357.771 195.781 357.747 194.668 357.7 193.566C357.677 192.465 357.665 191.352 357.665 190.227C357.665 189.664 357.689 189.113 357.736 188.574C357.806 188.012 357.841 187.449 357.841 186.887C357.841 186.816 357.818 186.723 357.771 186.605C357.724 186.488 357.677 186.406 357.63 186.359C357.513 186.359 357.396 186.359 357.279 186.359C357.185 186.336 357.079 186.324 356.962 186.324C356.704 186.324 356.458 186.359 356.224 186.43C355.779 186.453 355.345 186.488 354.923 186.535C354.525 186.559 354.114 186.582 353.693 186.605C353.411 186.582 353.236 186.582 353.165 186.605C353.118 186.605 353.06 186.605 352.989 186.605C352.802 186.605 352.661 186.559 352.568 186.465V186.008C352.427 185.727 352.368 185.574 352.392 185.551C352.415 185.527 352.427 185.492 352.427 185.445C352.427 185.375 352.368 185.305 352.251 185.234C352.111 185.141 352.04 185 352.04 184.812C352.017 184.625 351.97 184.484 351.9 184.391C351.829 184.297 351.794 184.203 351.794 184.109C351.794 183.945 351.829 183.758 351.9 183.547C352.111 183.43 352.31 183.348 352.497 183.301C352.708 183.254 352.943 183.195 353.2 183.125C353.341 183.078 353.47 183.031 353.587 182.984C353.704 182.938 353.833 182.902 353.974 182.879C354.138 182.855 354.302 182.844 354.466 182.844C354.63 182.844 354.794 182.832 354.958 182.809C355.31 182.738 355.673 182.68 356.048 182.633C356.446 182.586 356.821 182.562 357.173 182.562C357.501 182.562 357.829 182.609 358.157 182.703C358.486 182.773 358.779 182.809 359.036 182.809C359.411 182.809 359.763 182.832 360.091 182.879C360.443 182.926 360.806 182.949 361.181 182.949C361.228 182.949 361.298 182.973 361.392 183.02C361.509 183.043 361.638 183.055 361.779 183.055H365.189C365.376 183.102 365.505 183.113 365.575 183.09C365.669 183.066 365.751 183.055 365.821 183.055C366.009 183.055 366.185 183.066 366.349 183.09C366.513 183.113 366.689 183.125 366.876 183.125C367.04 183.125 367.169 183.113 367.263 183.09C367.45 183.113 367.626 183.172 367.79 183.266C367.954 183.336 368.142 183.371 368.353 183.371C368.446 183.441 368.517 183.535 368.564 183.652C368.611 183.746 368.693 183.816 368.81 183.863Z" fill="#FFB000"/>
<path d="M396.95 183.617C397.138 183.898 397.29 184.191 397.407 184.496C397.548 184.777 397.618 184.977 397.618 185.094C397.618 185.258 397.595 185.398 397.548 185.516C397.501 185.609 397.431 185.727 397.337 185.867C396.446 186.266 395.544 186.676 394.63 187.098C393.739 187.52 392.825 187.918 391.888 188.293C391.653 188.387 391.431 188.48 391.22 188.574C391.009 188.668 390.774 188.762 390.517 188.855C390.47 188.902 390.364 188.949 390.2 188.996C390.06 189.02 389.931 189.031 389.814 189.031C389.86 189.5 389.884 189.98 389.884 190.473C389.907 190.965 389.931 191.457 389.954 191.949C389.954 192.09 389.978 192.23 390.024 192.371C390.071 192.488 390.095 192.617 390.095 192.758C390.142 193.203 390.165 193.637 390.165 194.059C390.165 194.48 390.189 194.914 390.235 195.359C391.103 194.984 391.958 194.609 392.802 194.234C393.669 193.836 394.536 193.449 395.403 193.074C395.544 193.098 395.696 193.121 395.86 193.145C396.024 193.168 396.177 193.215 396.317 193.285C396.364 193.332 396.411 193.391 396.458 193.461C396.505 193.531 396.564 193.59 396.634 193.637C396.634 193.754 396.704 193.93 396.845 194.164C397.009 194.375 397.091 194.609 397.091 194.867C397.091 194.914 397.126 194.996 397.196 195.113C397.267 195.207 397.314 195.277 397.337 195.324C397.337 195.559 397.325 195.688 397.302 195.711C397.466 195.828 397.571 195.98 397.618 196.168C397.689 196.355 397.724 196.543 397.724 196.73C397.302 197.199 396.88 197.516 396.458 197.68C396.06 197.844 395.649 198.02 395.228 198.207C395.11 198.277 394.981 198.348 394.841 198.418C394.7 198.488 394.56 198.559 394.419 198.629C394.231 198.699 394.044 198.77 393.856 198.84C393.692 198.887 393.517 198.957 393.329 199.051C393.048 199.215 392.731 199.402 392.38 199.613C392.028 199.824 391.712 199.953 391.431 200C391.243 200.047 391.079 200.082 390.939 200.105C390.821 200.105 390.681 200.164 390.517 200.281C390.493 200.562 390.481 200.844 390.481 201.125C390.505 201.383 390.517 201.641 390.517 201.898C390.517 202.18 390.493 202.461 390.446 202.742C390.423 203 390.411 203.27 390.411 203.551C390.411 204.02 390.388 204.488 390.341 204.957C390.294 205.402 390.271 205.848 390.271 206.293C390.271 206.574 390.282 206.855 390.306 207.137C390.329 207.395 390.341 207.652 390.341 207.91C390.341 208.051 390.317 208.18 390.271 208.297C390.224 208.414 390.177 208.531 390.13 208.648C389.802 208.695 389.603 208.695 389.532 208.648C389.462 208.578 389.38 208.52 389.286 208.473C389.169 208.473 389.087 208.52 389.04 208.613C389.017 208.707 388.946 208.777 388.829 208.824C388.735 208.801 388.63 208.801 388.513 208.824C388.419 208.824 388.337 208.801 388.267 208.754C388.079 208.824 387.903 208.906 387.739 209C387.599 209.094 387.435 209.164 387.247 209.211C386.896 209.164 386.673 209.141 386.579 209.141C386.509 209.164 386.427 209.188 386.333 209.211C386.169 209.047 386.087 208.848 386.087 208.613C386.11 208.355 386.052 208.133 385.911 207.945C385.911 207.711 385.888 207.57 385.841 207.523C385.794 207.453 385.771 207.395 385.771 207.348C385.771 207.277 385.771 207.207 385.771 207.137C385.794 207.043 385.806 206.949 385.806 206.855C385.806 206.645 385.794 206.48 385.771 206.363C385.794 206.223 385.817 206.012 385.841 205.73C385.864 205.426 385.888 205.121 385.911 204.816C385.935 204.488 385.946 204.172 385.946 203.867C385.946 203.562 385.946 203.316 385.946 203.129C385.946 203.012 385.97 202.918 386.017 202.848C386.064 202.754 386.087 202.648 386.087 202.531C386.087 202.344 386.075 202.18 386.052 202.039C386.052 201.875 386.052 201.711 386.052 201.547C386.052 201.219 386.052 200.891 386.052 200.562C386.075 200.234 386.087 199.906 386.087 199.578C386.087 198.57 386.028 197.586 385.911 196.625C385.817 195.641 385.771 194.656 385.771 193.672C385.771 193.133 385.747 192.547 385.7 191.914C385.653 191.258 385.595 190.66 385.524 190.121C385.524 190.004 385.501 189.91 385.454 189.84C385.431 189.746 385.419 189.652 385.419 189.559C385.396 189.277 385.384 188.996 385.384 188.715C385.384 188.41 385.384 188.105 385.384 187.801C385.384 187.613 385.384 187.355 385.384 187.027C385.384 186.676 385.384 186.324 385.384 185.973C385.384 185.598 385.384 185.246 385.384 184.918C385.407 184.59 385.431 184.355 385.454 184.215C385.454 184.191 385.524 184.156 385.665 184.109C385.806 184.039 385.899 184.004 385.946 184.004C386.064 184.004 386.157 184.039 386.228 184.109C386.298 184.18 386.38 184.25 386.474 184.32C386.567 184.25 386.661 184.215 386.755 184.215C386.872 184.215 386.989 184.215 387.106 184.215C387.458 184.145 387.669 184.156 387.739 184.25C387.833 184.32 387.903 184.355 387.95 184.355C388.021 184.355 388.079 184.32 388.126 184.25C388.173 184.18 388.231 184.145 388.302 184.145C388.489 184.145 388.595 184.191 388.618 184.285C388.665 184.379 388.735 184.426 388.829 184.426C388.923 184.426 388.993 184.391 389.04 184.32C389.087 184.25 389.134 184.215 389.181 184.215C389.251 184.215 389.321 184.238 389.392 184.285C389.462 184.309 389.532 184.32 389.603 184.32C389.72 184.32 389.849 184.285 389.989 184.215C390.13 184.121 390.259 184.051 390.376 184.004C390.564 183.957 390.728 183.898 390.868 183.828C391.032 183.758 391.196 183.699 391.36 183.652C391.712 183.441 391.97 183.312 392.134 183.266C392.321 183.195 392.509 183.113 392.696 183.02C393.095 182.832 393.47 182.656 393.821 182.492C394.196 182.305 394.583 182.129 394.981 181.965C395.192 181.965 395.333 181.918 395.403 181.824C395.567 181.895 395.778 181.906 396.036 181.859C396.317 182.117 396.493 182.316 396.564 182.457C396.657 182.598 396.763 182.727 396.88 182.844C397.021 183.031 397.114 183.125 397.161 183.125C397.161 183.195 397.126 183.277 397.056 183.371C396.985 183.465 396.95 183.547 396.95 183.617ZM418.913 195.043C418.866 195.137 418.819 195.23 418.772 195.324C418.726 195.395 418.69 195.477 418.667 195.57C418.761 195.664 418.843 195.77 418.913 195.887C419.007 195.98 419.054 196.086 419.054 196.203C419.054 196.297 419.03 196.391 418.983 196.484C418.96 196.555 418.96 196.625 418.983 196.695C418.89 196.859 418.784 197.012 418.667 197.152C418.573 197.293 418.503 197.445 418.456 197.609C418.362 197.703 418.28 197.797 418.21 197.891C418.163 197.984 418.116 198.078 418.069 198.172C417.952 198.219 417.87 198.301 417.823 198.418C417.8 198.512 417.741 198.594 417.647 198.664C417.624 198.758 417.507 198.98 417.296 199.332C417.085 199.684 416.851 200.059 416.593 200.457C416.335 200.855 416.089 201.242 415.854 201.617C415.62 201.992 415.456 202.238 415.362 202.355C415.315 202.473 415.257 202.566 415.186 202.637C415.14 202.707 415.081 202.789 415.011 202.883C414.964 202.953 414.929 203.035 414.905 203.129C414.882 203.199 414.847 203.258 414.8 203.305C414.753 203.398 414.694 203.48 414.624 203.551C414.577 203.621 414.53 203.715 414.483 203.832C414.249 204.137 414.015 204.5 413.78 204.922C413.546 205.344 413.323 205.719 413.112 206.047C412.995 206.234 412.878 206.422 412.761 206.609C412.667 206.797 412.561 206.984 412.444 207.172C412.327 207.359 412.21 207.535 412.093 207.699C411.976 207.863 411.858 208.039 411.741 208.227C411.554 208.367 411.39 208.543 411.249 208.754C411.108 208.941 410.944 209.105 410.757 209.246C410.452 209.246 410.265 209.105 410.194 208.824C409.89 208.754 409.737 208.754 409.737 208.824C409.737 208.895 409.737 208.953 409.737 209C409.644 209.047 409.573 209.117 409.526 209.211C409.503 209.305 409.444 209.375 409.351 209.422C409.163 209.375 408.999 209.293 408.858 209.176C408.741 209.082 408.565 209.047 408.331 209.07C408.237 208.93 408.132 208.812 408.015 208.719C407.897 208.602 407.792 208.484 407.698 208.367C407.651 208.227 407.581 208.109 407.487 208.016C407.417 207.922 407.347 207.828 407.276 207.734C407.206 207.617 407.136 207.512 407.065 207.418C406.995 207.324 406.925 207.23 406.854 207.137C406.69 206.926 406.526 206.727 406.362 206.539C406.222 206.328 406.093 206.117 405.976 205.906C405.788 205.625 405.601 205.344 405.413 205.062C405.249 204.758 405.073 204.465 404.886 204.184C404.792 204.043 404.698 203.902 404.604 203.762C404.511 203.621 404.429 203.48 404.358 203.34C404.311 203.223 404.241 203.082 404.147 202.918C404.077 202.754 403.983 202.648 403.866 202.602C403.819 202.414 403.737 202.273 403.62 202.18C403.503 202.086 403.386 201.969 403.269 201.828C403.104 201.641 402.952 201.441 402.811 201.23C402.671 200.996 402.53 200.762 402.39 200.527C401.921 199.871 401.476 199.227 401.054 198.594C400.655 197.961 400.257 197.305 399.858 196.625C399.976 196.25 400.034 195.969 400.034 195.781C400.034 195.594 400.093 195.441 400.21 195.324C400.21 195.23 400.233 195.09 400.28 194.902C400.585 194.387 400.878 193.918 401.159 193.496C401.417 193.098 401.593 192.77 401.686 192.512C401.804 192.254 401.921 191.984 402.038 191.703C402.155 191.633 402.249 191.551 402.319 191.457C402.39 191.34 402.483 191.234 402.601 191.141C402.647 190.883 402.753 190.672 402.917 190.508C403.081 190.32 403.186 190.098 403.233 189.84C403.444 189.676 403.561 189.488 403.585 189.277C403.89 189.066 404.077 188.785 404.147 188.434C404.335 188.246 404.487 188.035 404.604 187.801C404.745 187.566 404.874 187.32 404.991 187.062C405.272 186.828 405.495 186.523 405.659 186.148C405.8 186.055 405.905 185.926 405.976 185.762C406.046 185.598 406.14 185.457 406.257 185.34C406.444 185.035 406.585 184.789 406.679 184.602C406.796 184.391 406.913 184.18 407.03 183.969C407.194 183.969 407.3 183.91 407.347 183.793C407.394 183.676 407.487 183.629 407.628 183.652C407.628 183.441 407.686 183.254 407.804 183.09C407.851 183.066 407.921 183.043 408.015 183.02C408.108 182.973 408.155 182.926 408.155 182.879C408.108 182.598 408.12 182.434 408.19 182.387C408.261 182.34 408.319 182.293 408.366 182.246C408.624 182.293 408.8 182.328 408.894 182.352C408.987 182.375 409.14 182.457 409.351 182.598C409.585 182.598 409.749 182.645 409.843 182.738C409.936 182.832 410.042 182.902 410.159 182.949C410.253 183.043 410.323 183.137 410.37 183.23C410.44 183.324 410.534 183.395 410.651 183.441C410.839 183.699 411.038 183.98 411.249 184.285C411.46 184.59 411.659 184.871 411.847 185.129C412.104 185.48 412.362 185.82 412.62 186.148C412.901 186.453 413.159 186.793 413.394 187.168C413.464 187.285 413.593 187.496 413.78 187.801C413.968 188.082 414.179 188.387 414.413 188.715C414.647 189.043 414.858 189.348 415.046 189.629C415.233 189.887 415.362 190.039 415.433 190.086C415.503 190.203 415.655 190.426 415.89 190.754C416.124 191.082 416.37 191.434 416.628 191.809C416.909 192.16 417.179 192.5 417.436 192.828C417.694 193.156 417.87 193.367 417.964 193.461C418.222 193.812 418.409 194.105 418.526 194.34C418.667 194.551 418.796 194.785 418.913 195.043ZM410.862 201.652C411.12 201.301 411.319 200.984 411.46 200.703C411.601 200.422 411.741 200.141 411.882 199.859C412.116 199.578 412.257 199.379 412.304 199.262C412.351 199.145 412.409 199.027 412.479 198.91C412.667 198.629 412.854 198.348 413.042 198.066C413.253 197.785 413.417 197.48 413.534 197.152C413.675 197.059 413.78 196.941 413.851 196.801C413.921 196.66 414.026 196.531 414.167 196.414C414.026 195.922 413.862 195.547 413.675 195.289C413.487 195.008 413.3 194.738 413.112 194.48C413.042 194.363 412.972 194.246 412.901 194.129C412.831 194.012 412.761 193.895 412.69 193.777C412.597 193.707 412.515 193.637 412.444 193.566C412.397 193.496 412.339 193.426 412.269 193.355C412.222 193.238 412.151 193.086 412.058 192.898C411.964 192.781 411.87 192.676 411.776 192.582C411.683 192.488 411.601 192.371 411.53 192.23C411.436 192.137 411.319 192.008 411.179 191.844C411.038 191.68 410.886 191.504 410.722 191.316C410.581 191.105 410.452 190.918 410.335 190.754C410.218 190.566 410.124 190.414 410.054 190.297C410.007 190.18 409.96 190.086 409.913 190.016C409.89 189.922 409.854 189.828 409.808 189.734C409.69 189.57 409.573 189.43 409.456 189.312C409.339 189.172 409.222 189.02 409.104 188.855C409.034 188.902 408.964 188.938 408.894 188.961C408.847 188.961 408.8 188.984 408.753 189.031C408.589 189.336 408.401 189.617 408.19 189.875C408.003 190.133 407.815 190.414 407.628 190.719C407.464 191 407.3 191.293 407.136 191.598C406.972 191.879 406.808 192.16 406.644 192.441C406.526 192.605 406.409 192.77 406.292 192.934C406.198 193.074 406.093 193.238 405.976 193.426C405.858 193.59 405.753 193.766 405.659 193.953C405.589 194.117 405.495 194.281 405.378 194.445C405.19 194.68 405.038 194.891 404.921 195.078C404.804 195.266 404.686 195.488 404.569 195.746C404.64 195.887 404.745 196.086 404.886 196.344C405.05 196.578 405.214 196.824 405.378 197.082C405.542 197.316 405.683 197.539 405.8 197.75C405.94 197.961 406.022 198.102 406.046 198.172C406.233 198.336 406.386 198.523 406.503 198.734C406.62 198.922 406.772 199.109 406.96 199.297C407.054 199.484 407.159 199.648 407.276 199.789C407.394 199.93 407.511 200.082 407.628 200.246C407.745 200.41 407.897 200.656 408.085 200.984C408.272 201.289 408.46 201.605 408.647 201.934C408.835 202.262 409.022 202.566 409.21 202.848C409.397 203.129 409.55 203.305 409.667 203.375C409.901 203.117 410.089 202.836 410.229 202.531C410.394 202.203 410.604 201.91 410.862 201.652ZM436.692 204.781C436.458 204.805 436.317 204.793 436.27 204.746C436.177 204.793 436.083 204.84 435.989 204.887C435.919 204.934 435.837 204.992 435.743 205.062C435.415 205.18 435.087 205.332 434.759 205.52C434.454 205.707 434.138 205.883 433.809 206.047C433.622 206.141 433.434 206.223 433.247 206.293C433.083 206.34 432.907 206.41 432.72 206.504C432.438 206.645 432.157 206.797 431.876 206.961C431.595 207.102 431.302 207.23 430.997 207.348C430.833 207.395 430.669 207.441 430.505 207.488C430.364 207.535 430.212 207.582 430.048 207.629C429.86 207.699 429.684 207.781 429.52 207.875C429.38 207.945 429.227 208.016 429.063 208.086C428.946 208.133 428.817 208.18 428.677 208.227C428.559 208.25 428.431 208.297 428.29 208.367C428.173 208.414 428.067 208.473 427.974 208.543C427.903 208.613 427.809 208.672 427.692 208.719C427.505 208.789 427.306 208.859 427.095 208.93C426.907 209 426.72 209.082 426.532 209.176C426.345 209.27 426.204 209.352 426.11 209.422C426.04 209.516 425.888 209.598 425.653 209.668C425.419 209.809 425.29 209.879 425.266 209.879C425.243 209.902 425.208 209.914 425.161 209.914C425.091 209.961 425.02 209.996 424.95 210.02C424.903 210.066 424.845 210.113 424.774 210.16C424.634 210.16 424.493 210.172 424.352 210.195C424.212 210.219 424.071 210.23 423.931 210.23C423.766 210.137 423.649 210.043 423.579 209.949C423.532 209.855 423.509 209.727 423.509 209.562C423.415 209.445 423.321 209.316 423.227 209.176C423.157 209.035 423.075 208.906 422.981 208.789C422.817 208.883 422.712 208.883 422.665 208.789C422.641 208.672 422.618 208.555 422.595 208.438C422.571 208.297 422.548 208.168 422.524 208.051C422.501 207.91 422.477 207.816 422.454 207.77C422.337 207.324 422.278 206.996 422.278 206.785C422.278 206.668 422.302 206.598 422.349 206.574C422.395 206.527 422.419 206.469 422.419 206.398C422.442 206.164 422.466 205.895 422.489 205.59C422.513 205.285 422.524 204.969 422.524 204.641C422.524 204.312 422.524 203.984 422.524 203.656C422.524 203.328 422.524 203.035 422.524 202.777C422.524 201.723 422.513 200.703 422.489 199.719C422.466 198.711 422.454 197.703 422.454 196.695C422.454 196.227 422.466 195.758 422.489 195.289C422.513 194.82 422.524 194.352 422.524 193.883C422.524 192.734 422.536 191.598 422.559 190.473C422.606 189.348 422.63 188.211 422.63 187.062C422.63 186.594 422.606 186.125 422.559 185.656C422.513 185.164 422.477 184.672 422.454 184.18C422.431 183.922 422.442 183.723 422.489 183.582C422.536 183.418 422.548 183.254 422.524 183.09C422.595 183.066 422.724 183.055 422.911 183.055C423.099 183.055 423.286 183.055 423.474 183.055C423.684 183.031 423.872 183.02 424.036 183.02C424.224 182.996 424.341 182.973 424.388 182.949C424.552 183.066 424.716 183.125 424.88 183.125C425.044 183.125 425.196 183.055 425.337 182.914C425.454 182.961 425.513 182.996 425.513 183.02C425.536 183.043 425.606 183.055 425.724 183.055C425.934 183.031 426.099 183.02 426.216 183.02C426.333 182.996 426.438 182.984 426.532 182.984C426.79 183.172 426.942 183.406 426.989 183.688C427.059 183.945 427.106 184.227 427.13 184.531C427.153 184.812 427.165 185.105 427.165 185.41C427.188 185.691 427.2 185.926 427.2 186.113C427.2 186.254 427.212 186.406 427.235 186.57C427.259 186.711 427.27 186.863 427.27 187.027C427.27 187.145 427.259 187.262 427.235 187.379C427.235 187.496 427.235 187.613 427.235 187.73C427.235 188.41 427.235 189.102 427.235 189.805C427.259 190.508 427.27 191.199 427.27 191.879C427.27 193.098 427.247 194.328 427.2 195.57C427.177 196.789 427.165 198.008 427.165 199.227C427.165 199.484 427.177 199.742 427.2 200C427.224 200.258 427.235 200.516 427.235 200.773C427.235 200.914 427.224 201.055 427.2 201.195C427.2 201.336 427.2 201.477 427.2 201.617C427.2 202.484 427.235 203.352 427.306 204.219C427.399 204.195 427.599 204.137 427.903 204.043C428.208 203.926 428.524 203.809 428.852 203.691C429.181 203.551 429.485 203.422 429.766 203.305C430.048 203.164 430.224 203.059 430.294 202.988C430.388 202.988 430.516 202.953 430.681 202.883C430.845 202.812 431.02 202.73 431.208 202.637C431.395 202.52 431.571 202.414 431.735 202.32C431.923 202.227 432.052 202.145 432.122 202.074C432.099 201.605 432.087 201.137 432.087 200.668C432.087 200.176 432.087 199.695 432.087 199.227C432.087 197.938 432.099 196.648 432.122 195.359C432.169 194.07 432.192 192.758 432.192 191.422C432.192 190.602 432.181 189.781 432.157 188.961C432.134 188.141 432.122 187.32 432.122 186.5C432.122 186.242 432.122 185.984 432.122 185.727C432.145 185.445 432.157 185.176 432.157 184.918C432.157 184.52 432.145 184.133 432.122 183.758C432.122 183.359 432.145 182.961 432.192 182.562C432.427 182.445 432.556 182.387 432.579 182.387C432.72 182.387 432.813 182.387 432.86 182.387C432.931 182.387 432.989 182.41 433.036 182.457C433.106 182.48 433.165 182.492 433.212 182.492C433.282 182.469 433.352 182.457 433.423 182.457C433.54 182.457 433.657 182.48 433.774 182.527C433.891 182.574 434.009 182.598 434.126 182.598C434.313 182.574 434.407 182.598 434.407 182.668C434.431 182.738 434.477 182.773 434.548 182.773C434.735 182.703 434.864 182.703 434.934 182.773C435.005 182.82 435.134 182.891 435.321 182.984C435.509 183.055 435.708 183.137 435.919 183.23C436.13 183.324 436.317 183.418 436.481 183.512C436.645 183.582 436.727 183.652 436.727 183.723C436.798 184.098 436.821 184.496 436.798 184.918C436.774 185.34 436.763 185.738 436.763 186.113C436.763 186.441 436.774 186.77 436.798 187.098C436.821 187.426 436.833 187.754 436.833 188.082C436.833 188.27 436.833 188.457 436.833 188.645C436.833 188.832 436.845 189.008 436.868 189.172C436.891 189.289 436.903 189.395 436.903 189.488C436.903 189.559 436.903 189.641 436.903 189.734C436.903 189.852 436.927 190.004 436.974 190.191C436.95 190.309 436.938 190.438 436.938 190.578C436.938 190.695 436.938 190.812 436.938 190.93C436.938 191.258 436.95 191.598 436.974 191.949C436.997 192.301 437.009 192.652 437.009 193.004C437.009 193.238 436.985 193.461 436.938 193.672C436.915 193.883 436.903 194.094 436.903 194.305L436.938 194.973C436.938 195.207 436.95 195.441 436.974 195.676C436.997 195.91 437.009 196.156 437.009 196.414C437.009 196.531 436.997 196.648 436.974 196.766C436.974 196.883 436.962 197 436.938 197.117C436.915 197.234 436.903 197.363 436.903 197.504C436.903 197.645 436.903 197.773 436.903 197.891C436.903 198.219 436.915 198.547 436.938 198.875C436.962 199.203 436.974 199.531 436.974 199.859C436.974 200.07 436.962 200.281 436.938 200.492C436.938 200.68 436.938 200.879 436.938 201.09C436.938 201.512 436.95 201.945 436.974 202.391C437.02 202.836 437.044 203.27 437.044 203.691C437.044 203.879 437.02 204.078 436.974 204.289C436.927 204.5 436.833 204.664 436.692 204.781ZM453.979 182.773C454.354 182.727 454.636 182.762 454.823 182.879C455.034 182.973 455.245 183.031 455.456 183.055C455.573 183.078 455.69 183.09 455.807 183.09C455.948 183.066 456.089 183.055 456.229 183.055C456.534 183.055 456.768 183.09 456.932 183.16C457.12 183.23 457.307 183.383 457.495 183.617C457.542 183.664 457.6 183.734 457.671 183.828C457.764 183.898 457.811 183.969 457.811 184.039C457.811 184.227 457.764 184.391 457.671 184.531C457.577 184.672 457.53 184.871 457.53 185.129C457.53 185.527 457.577 185.926 457.671 186.324C457.764 186.699 457.823 187.086 457.846 187.484C457.964 188.938 458.022 190.402 458.022 191.879C458.046 193.332 458.057 194.773 458.057 196.203C458.057 196.391 458.046 196.566 458.022 196.73C458.022 196.871 457.975 197 457.882 197.117V197.574C457.858 198.184 457.87 198.805 457.917 199.438C457.964 200.047 457.987 200.656 457.987 201.266C457.987 201.805 457.952 202.344 457.882 202.883C457.835 203.422 457.811 203.973 457.811 204.535C457.811 205.051 457.846 205.555 457.917 206.047C457.987 206.539 458.022 207.043 458.022 207.559C457.905 207.77 457.835 207.934 457.811 208.051C457.788 208.168 457.741 208.273 457.671 208.367C457.6 208.414 457.518 208.426 457.425 208.402C457.354 208.379 457.296 208.402 457.249 208.473C457.132 208.613 457.05 208.777 457.003 208.965C456.956 209.152 456.839 209.305 456.651 209.422C456.604 209.75 456.475 209.996 456.264 210.16C456.077 210.348 455.936 210.582 455.843 210.863C455.561 210.887 455.362 210.875 455.245 210.828C455.151 210.781 455.046 210.734 454.929 210.688C454.905 210.289 454.905 209.996 454.929 209.809C454.975 209.645 454.999 209.469 454.999 209.281C454.999 209.047 454.94 208.871 454.823 208.754C454.706 208.637 454.624 208.484 454.577 208.297C454.319 208.133 454.143 208.027 454.05 207.98C453.956 207.91 453.874 207.828 453.804 207.734C453.663 207.547 453.546 207.348 453.452 207.137C453.358 206.926 453.253 206.727 453.136 206.539C452.807 206 452.468 205.449 452.116 204.887C451.788 204.324 451.425 203.773 451.026 203.234C450.956 203.117 450.874 203.012 450.78 202.918C450.686 202.824 450.604 202.719 450.534 202.602C450.136 201.969 449.761 201.324 449.409 200.668C449.057 200.012 448.647 199.391 448.179 198.805C447.991 198.57 447.85 198.312 447.757 198.031C447.663 197.727 447.522 197.469 447.335 197.258C447.311 197.375 447.3 197.504 447.3 197.645C447.3 197.785 447.3 197.914 447.3 198.031C447.3 198.828 447.311 199.625 447.335 200.422C447.382 201.195 447.405 201.98 447.405 202.777C447.405 202.941 447.382 203.094 447.335 203.234C447.311 203.352 447.3 203.492 447.3 203.656C447.3 203.891 447.311 204.113 447.335 204.324C447.358 204.535 447.37 204.746 447.37 204.957C447.37 205.215 447.358 205.461 447.335 205.695C447.335 205.93 447.323 206.164 447.3 206.398C447.253 206.703 447.194 206.996 447.124 207.277C447.054 207.535 447.018 207.805 447.018 208.086C447.018 208.25 447.03 208.402 447.054 208.543C447.1 208.684 447.124 208.812 447.124 208.93C446.96 209.188 446.749 209.316 446.491 209.316C446.257 209.316 446.057 209.41 445.893 209.598C445.753 209.574 445.636 209.586 445.542 209.633C445.471 209.68 445.401 209.703 445.331 209.703C445.237 209.703 445.155 209.691 445.085 209.668C445.038 209.645 444.979 209.633 444.909 209.633C444.792 209.633 444.675 209.691 444.557 209.809C444.44 209.926 444.323 209.984 444.206 209.984C444.136 209.984 444.007 209.938 443.819 209.844C443.655 209.75 443.468 209.633 443.257 209.492C443.069 209.375 442.893 209.246 442.729 209.105C442.565 208.988 442.483 208.895 442.483 208.824C442.46 208.707 442.448 208.543 442.448 208.332C442.448 208.051 442.46 207.781 442.483 207.523C442.53 207.242 442.577 206.961 442.624 206.68C442.694 205.883 442.729 205.098 442.729 204.324C442.729 203.527 442.729 202.73 442.729 201.934C442.729 201.605 442.729 201.277 442.729 200.949C442.753 200.621 442.764 200.293 442.764 199.965C442.764 199.191 442.729 198.418 442.659 197.645C442.612 196.848 442.589 196.062 442.589 195.289C442.589 194.75 442.612 194.223 442.659 193.707C442.706 193.168 442.729 192.641 442.729 192.125C442.729 191.727 442.718 191.34 442.694 190.965C442.671 190.59 442.659 190.203 442.659 189.805C442.636 189.547 442.636 189.277 442.659 188.996C442.682 188.691 442.694 188.41 442.694 188.152C442.694 187.848 442.647 187.566 442.554 187.309C442.483 187.027 442.448 186.77 442.448 186.535C442.448 186.395 442.471 186.266 442.518 186.148C442.589 186.008 442.624 185.867 442.624 185.727C442.624 185.539 442.589 185.352 442.518 185.164C442.471 184.977 442.448 184.789 442.448 184.602C442.448 184.414 442.471 184.238 442.518 184.074C442.565 183.91 442.589 183.734 442.589 183.547C442.917 183.383 443.21 183.301 443.468 183.301C443.725 183.301 443.913 183.395 444.03 183.582C444.03 184.004 444.054 184.332 444.1 184.566C444.147 184.777 444.182 185 444.206 185.234C444.206 185.375 444.194 185.539 444.171 185.727C444.171 185.914 444.182 186.102 444.206 186.289C444.229 186.453 444.276 186.594 444.346 186.711C444.44 186.828 444.593 186.887 444.804 186.887C444.85 187.004 444.909 187.109 444.979 187.203C445.05 187.297 445.096 187.414 445.12 187.555C445.261 187.461 445.343 187.332 445.366 187.168C445.389 187.004 445.389 186.852 445.366 186.711C445.483 186.758 445.589 186.781 445.682 186.781C445.776 186.758 445.87 186.77 445.964 186.816C446.011 187.145 446.069 187.438 446.139 187.695C446.21 187.93 446.233 188.211 446.21 188.539C446.679 188.891 447.077 189.395 447.405 190.051C447.757 190.684 448.085 191.258 448.389 191.773C448.554 192.031 448.741 192.277 448.952 192.512C449.186 192.723 449.362 192.98 449.479 193.285C449.667 193.402 449.819 193.555 449.936 193.742C450.054 193.93 450.159 194.117 450.253 194.305C450.721 195.125 451.237 195.922 451.8 196.695C452.362 197.469 452.948 198.23 453.557 198.98C453.581 198.816 453.593 198.664 453.593 198.523C453.593 198.359 453.593 198.195 453.593 198.031L453.557 194.867C453.557 194.68 453.546 194.504 453.522 194.34C453.522 194.176 453.511 194 453.487 193.812C453.44 193.203 453.429 192.605 453.452 192.02C453.475 191.434 453.475 190.836 453.452 190.227C453.405 189.594 453.37 188.949 453.346 188.293C453.346 187.637 453.323 186.98 453.276 186.324C453.253 185.926 453.229 185.527 453.206 185.129C453.182 184.73 453.171 184.332 453.171 183.934C453.171 183.441 453.218 182.996 453.311 182.598C453.358 182.551 453.405 182.516 453.452 182.492C453.522 182.445 453.604 182.422 453.698 182.422C453.839 182.422 453.932 182.539 453.979 182.773ZM468.594 199.789C468.641 199.906 468.805 200.152 469.087 200.527C469.391 200.902 469.731 201.312 470.106 201.758C470.481 202.203 470.833 202.637 471.161 203.059C471.512 203.457 471.759 203.75 471.899 203.938C472.157 204.266 472.403 204.594 472.637 204.922C472.895 205.227 473.13 205.555 473.341 205.906L473.973 206.961C474.161 207.195 474.325 207.395 474.466 207.559C474.63 207.723 474.759 207.945 474.852 208.227C474.899 208.414 474.923 208.543 474.923 208.613C474.923 208.777 474.864 208.895 474.747 208.965C474.559 208.965 474.454 208.988 474.43 209.035C474.43 209.105 474.384 209.164 474.29 209.211C474.196 209.258 474.044 209.281 473.833 209.281C473.645 209.305 473.493 209.316 473.376 209.316C473.165 209.316 472.895 209.305 472.567 209.281C472.262 209.281 472.016 209.316 471.829 209.387C471.782 209.41 471.712 209.445 471.618 209.492C471.524 209.539 471.454 209.562 471.407 209.562C471.219 209.562 471.079 209.527 470.985 209.457C470.915 209.41 470.809 209.375 470.669 209.352C470.481 209.141 470.317 208.93 470.176 208.719C470.059 208.484 469.919 208.25 469.755 208.016C469.591 207.852 469.426 207.711 469.262 207.594C469.098 207.453 468.958 207.301 468.841 207.137C468.489 206.621 468.126 206.117 467.751 205.625C467.376 205.133 466.989 204.652 466.591 204.184C466.403 203.926 466.204 203.691 465.993 203.48C465.782 203.27 465.583 203.035 465.395 202.777C465.208 202.543 465.032 202.297 464.868 202.039C464.704 201.758 464.54 201.488 464.376 201.23C464.235 201.02 464.048 200.75 463.813 200.422C463.579 200.07 463.321 199.73 463.04 199.402C462.759 199.051 462.477 198.723 462.196 198.418C461.915 198.113 461.68 197.879 461.493 197.715C461.469 197.574 461.411 197.469 461.317 197.398C461.223 197.305 461.118 197.223 461.001 197.152C460.954 197.035 460.907 196.93 460.86 196.836C460.79 196.719 460.755 196.602 460.755 196.484C460.755 196.32 460.79 196.168 460.86 196.027C460.907 195.934 460.942 195.852 460.966 195.781C460.966 195.688 460.989 195.594 461.036 195.5C461.153 195.242 461.305 194.996 461.493 194.762C461.704 194.504 461.868 194.234 461.985 193.953C462.032 193.883 462.055 193.812 462.055 193.742C462.055 193.648 462.079 193.566 462.126 193.496C462.173 193.309 462.266 193.156 462.407 193.039C462.571 192.898 462.7 192.746 462.794 192.582C462.911 192.395 463.016 192.207 463.11 192.02C463.227 191.809 463.344 191.586 463.462 191.352C463.813 190.766 464.176 190.203 464.551 189.664C464.95 189.102 465.348 188.539 465.747 187.977C466.051 187.508 466.344 187.062 466.626 186.641C466.93 186.195 467.235 185.75 467.54 185.305C467.704 185.094 467.88 184.848 468.067 184.566C468.255 184.285 468.454 184.004 468.665 183.723C468.899 183.441 469.134 183.184 469.368 182.949C469.602 182.715 469.837 182.527 470.071 182.387C470.423 182.363 470.657 182.445 470.774 182.633C470.891 182.797 471.067 182.879 471.301 182.879C471.606 182.949 471.805 183.043 471.899 183.16C471.993 183.277 472.098 183.395 472.216 183.512C472.544 183.512 472.801 183.57 472.989 183.688C473.2 183.805 473.399 183.98 473.587 184.215C473.516 184.473 473.411 184.707 473.27 184.918C473.13 185.105 473.001 185.305 472.884 185.516C472.696 185.609 472.555 185.738 472.462 185.902C472.391 186.066 472.274 186.195 472.11 186.289C471.876 186.688 471.63 187.074 471.372 187.449C471.114 187.801 470.856 188.152 470.598 188.504C470.458 188.715 470.305 188.902 470.141 189.066C470.001 189.23 469.872 189.406 469.755 189.594C469.708 189.664 469.661 189.746 469.614 189.84C469.591 189.91 469.555 189.98 469.509 190.051C469.227 190.496 468.923 190.918 468.594 191.316C468.266 191.691 467.962 192.113 467.68 192.582C467.587 192.746 467.505 192.922 467.434 193.109C467.387 193.273 467.317 193.438 467.223 193.602C467.13 193.742 466.989 193.93 466.801 194.164C466.637 194.398 466.473 194.656 466.309 194.938C466.145 195.195 465.993 195.453 465.852 195.711C465.735 195.945 465.676 196.145 465.676 196.309C465.7 196.426 465.841 196.66 466.098 197.012C466.38 197.34 466.684 197.703 467.012 198.102C467.364 198.477 467.692 198.84 467.997 199.191C468.301 199.52 468.501 199.719 468.594 199.789ZM470.915 193.391C471.079 193.742 471.255 194.047 471.442 194.305C471.512 194.398 471.594 194.48 471.688 194.551C471.782 194.621 471.852 194.715 471.899 194.832C471.946 194.879 471.993 194.984 472.04 195.148C472.087 195.289 472.134 195.395 472.18 195.465C472.251 195.652 472.391 195.863 472.602 196.098C472.813 196.332 472.919 196.543 472.919 196.73C472.919 196.848 472.895 196.977 472.848 197.117C472.801 197.258 472.766 197.387 472.743 197.504C472.719 197.645 472.708 197.797 472.708 197.961C472.708 198.102 472.661 198.23 472.567 198.348C472.45 198.465 472.321 198.535 472.18 198.559C472.04 198.582 471.911 198.641 471.794 198.734C471.747 198.781 471.676 198.863 471.583 198.98C471.489 199.098 471.395 199.227 471.301 199.367C471.208 199.508 471.114 199.648 471.02 199.789C470.95 199.906 470.915 200 470.915 200.07C470.634 200.094 470.446 200.105 470.352 200.105C470.282 200.082 470.2 200.082 470.106 200.105C469.989 199.988 469.86 199.895 469.719 199.824C469.602 199.73 469.45 199.648 469.262 199.578C469.216 199.391 469.11 199.18 468.946 198.945C468.782 198.688 468.641 198.477 468.524 198.312L468.278 197.996C467.926 197.504 467.598 197.035 467.294 196.59C467.012 196.121 466.801 195.605 466.661 195.043C467.106 194.715 467.446 194.469 467.68 194.305C467.938 194.141 468.208 193.988 468.489 193.848C468.77 193.707 469.04 193.578 469.298 193.461C469.579 193.32 469.837 193.156 470.071 192.969C470.259 192.969 470.387 192.98 470.458 193.004C470.528 193.027 470.575 193.051 470.598 193.074C470.622 193.098 470.645 193.145 470.669 193.215C470.716 193.262 470.798 193.32 470.915 193.391ZM478.288 209.422C478.194 209.328 478.147 209.199 478.147 209.035C478.147 208.918 478.147 208.824 478.147 208.754C478.171 208.66 478.194 208.555 478.217 208.438C478.335 207.898 478.393 207.359 478.393 206.82C478.393 206.258 478.417 205.707 478.464 205.168C478.487 204.84 478.499 204.512 478.499 204.184C478.522 203.855 478.534 203.527 478.534 203.199C478.534 201.254 478.475 199.32 478.358 197.398C478.241 195.453 478.182 193.496 478.182 191.527C478.182 190.168 478.206 188.809 478.253 187.449C478.299 186.066 478.335 184.684 478.358 183.301C478.569 183.184 478.827 183.137 479.131 183.16C479.436 183.184 479.682 183.078 479.87 182.844C479.987 182.82 480.104 182.82 480.221 182.844C480.339 182.844 480.456 182.844 480.573 182.844C480.831 182.844 481.077 182.762 481.311 182.598C481.546 182.434 481.803 182.293 482.085 182.176C482.225 182.223 482.319 182.246 482.366 182.246C482.436 182.223 482.506 182.211 482.577 182.211C482.647 182.211 482.799 182.293 483.034 182.457C483.268 182.621 483.526 182.809 483.807 183.02C484.089 183.23 484.346 183.43 484.581 183.617C484.839 183.805 485.003 183.922 485.073 183.969C485.659 184.414 486.174 184.906 486.62 185.445C487.089 185.961 487.546 186.488 487.991 187.027C488.413 187.566 488.87 188.117 489.362 188.68C489.854 189.219 490.335 189.723 490.803 190.191C490.967 190.379 491.131 190.543 491.296 190.684C491.483 190.824 491.659 190.988 491.823 191.176C491.893 191.27 491.952 191.375 491.999 191.492C492.069 191.586 492.139 191.691 492.21 191.809C492.35 191.973 492.514 192.113 492.702 192.23C492.889 192.348 493.065 192.488 493.229 192.652C493.346 192.746 493.522 192.934 493.756 193.215C493.991 193.496 494.108 193.707 494.108 193.848C494.108 193.941 494.085 194.023 494.038 194.094C493.991 194.164 493.944 194.246 493.897 194.34C493.874 194.41 493.862 194.516 493.862 194.656C493.862 194.797 493.85 194.891 493.827 194.938C493.592 195.125 493.464 195.242 493.44 195.289C493.417 195.336 493.381 195.383 493.335 195.43C493.264 195.523 493.171 195.605 493.053 195.676C492.96 195.723 492.889 195.805 492.842 195.922C492.796 195.992 492.772 196.062 492.772 196.133C492.796 196.203 492.784 196.285 492.737 196.379C492.62 196.637 492.432 196.883 492.174 197.117C491.917 197.352 491.694 197.609 491.506 197.891C491.249 198.312 490.991 198.734 490.733 199.156C490.475 199.578 490.182 199.988 489.854 200.387C489.714 200.574 489.561 200.762 489.397 200.949C489.256 201.113 489.116 201.289 488.975 201.477C488.858 201.617 488.753 201.77 488.659 201.934C488.565 202.074 488.46 202.238 488.342 202.426C488.085 202.754 487.839 203.082 487.604 203.41C487.37 203.715 487.124 204.031 486.866 204.359C486.585 204.758 486.28 205.156 485.952 205.555C485.624 205.93 485.331 206.316 485.073 206.715C484.815 207.137 484.546 207.523 484.264 207.875C483.983 208.227 483.678 208.566 483.35 208.895C483.256 208.965 483.139 209.07 482.999 209.211C482.858 209.352 482.717 209.422 482.577 209.422C482.483 209.422 482.401 209.387 482.331 209.316C482.284 209.246 482.202 209.211 482.085 209.211C482.061 209.211 481.991 209.223 481.874 209.246C481.756 209.27 481.616 209.293 481.452 209.316L480.819 209.387C480.444 209.574 480.174 209.656 480.01 209.633C479.846 209.633 479.682 209.645 479.518 209.668C479.424 209.691 479.342 209.727 479.272 209.773C479.225 209.82 479.167 209.844 479.096 209.844C478.932 209.844 478.803 209.762 478.71 209.598C478.616 209.457 478.475 209.398 478.288 209.422ZM488.835 194.234C488.835 194.117 488.717 193.953 488.483 193.742C488.272 193.531 488.108 193.379 487.991 193.285C487.827 193.145 487.628 193.016 487.393 192.898C487.182 192.758 487.006 192.605 486.866 192.441C486.749 192.301 486.631 192.16 486.514 192.02C486.421 191.855 486.315 191.703 486.198 191.562C485.776 191.094 485.342 190.625 484.897 190.156C484.475 189.688 484.1 189.172 483.772 188.609C483.561 188.469 483.362 188.305 483.174 188.117C482.987 187.93 482.764 187.777 482.506 187.66C482.46 187.801 482.436 187.953 482.436 188.117C482.46 188.258 482.471 188.398 482.471 188.539C482.471 189.078 482.448 189.605 482.401 190.121C482.354 190.637 482.331 191.152 482.331 191.668C482.331 192.934 482.354 194.188 482.401 195.43C482.471 196.648 482.506 197.879 482.506 199.121C482.506 199.59 482.506 200.059 482.506 200.527C482.53 200.996 482.577 201.465 482.647 201.934C482.6 202.074 482.577 202.203 482.577 202.32C482.577 202.438 482.6 202.59 482.647 202.777C482.835 202.66 482.987 202.52 483.104 202.355C483.245 202.168 483.374 201.992 483.491 201.828C483.889 201.312 484.276 200.797 484.651 200.281C485.049 199.742 485.448 199.203 485.846 198.664C486.104 198.312 486.362 197.973 486.62 197.645C486.901 197.293 487.171 196.93 487.428 196.555C487.499 196.461 487.604 196.297 487.745 196.062C487.909 195.828 488.061 195.594 488.202 195.359C488.366 195.102 488.506 194.867 488.624 194.656C488.764 194.445 488.835 194.305 488.835 194.234Z" fill="white"/>
<g clip-path="url(#clip0_412_98)">
<path d="M396.681 168.923C395.55 169.172 394.196 169.722 394.062 171.02C393.907 172.468 395.483 173.317 396.748 173.616C401.52 174.79 406.447 174.94 411.352 175.09C437.275 175.789 463.199 175.913 489.122 175.439C488.745 171.869 484.971 170.321 481.842 169.647C468.392 166.75 454.476 168.398 441.27 165.327C427.354 162.057 410.42 165.752 396.681 168.923Z" fill="url(#paint0_linear_412_98)"/>
<g filter="url(#filter0_d_412_98)">
<path d="M381.63 170.869C380.498 171.119 379.144 171.668 379.011 172.966C378.855 174.414 380.431 175.263 381.696 175.563C386.468 176.736 391.395 176.886 396.3 177.036C422.224 177.735 448.147 177.86 474.07 177.386C473.693 173.815 469.92 172.267 466.79 171.593C453.34 168.697 439.424 170.345 426.219 167.274C412.303 164.003 395.368 167.698 381.63 170.869Z" fill="url(#paint1_linear_412_98)"/>
</g>
<path d="M467.278 145.403C467.567 145.303 467.878 145.403 468.166 145.502C469.431 145.977 470.674 146.601 471.784 147.425C472.339 147.824 472.894 148.274 473.16 148.948C473.404 149.572 473.382 150.271 473.338 150.92C472.938 158.96 472.561 167.024 472.161 175.064C472.139 175.588 472.072 176.163 471.717 176.487C471.273 176.862 470.652 176.612 470.164 176.362C465.392 174.015 460.642 171.643 455.87 169.296C453.584 168.173 451.232 166.974 449.545 164.902C450.832 161.706 453.54 159.584 456.026 157.437C459.888 154.091 463.439 150.246 466.568 146.052C466.746 145.802 466.968 145.502 467.278 145.403Z" fill="#FFB000"/>
<path d="M489.763 103.978C488.586 103.678 487.388 103.379 486.212 103.079C479.287 117.385 473.161 132.191 467.879 147.372C469.1 148.245 470.72 149.144 471.896 148.195C472.384 147.796 472.673 147.147 472.939 146.523C478.932 132.541 484.547 118.359 489.763 103.978Z" fill="#BDB39B"/>
<g opacity="0.26">
<path opacity="0.26" d="M467.94 173.588C467.918 173.863 468.296 173.962 468.34 173.688C469.294 165.573 470.648 157.609 472.401 149.669C472.512 149.17 471.824 149.02 471.713 149.519C469.893 157.384 468.628 165.474 467.94 173.588Z" fill="#272525"/>
<path opacity="0.26" d="M460.424 170.009C463.354 163.068 466.461 156.227 469.745 149.486C469.945 149.086 469.368 148.762 469.168 149.161C465.751 155.952 462.665 162.943 459.847 170.059C459.891 170.109 459.913 170.159 459.935 170.209C460.091 170.084 460.246 170.034 460.424 170.009Z" fill="#272525"/>
<path opacity="0.26" d="M455.648 165.444C460.553 160.251 464.925 154.483 468.742 148.241C468.986 147.817 468.365 147.467 468.121 147.892C464.37 154.109 460.064 159.851 455.248 165.044C455.004 165.319 455.403 165.719 455.648 165.444Z" fill="#272525"/>
</g>
<path d="M421.627 152.522C421.649 152.147 421.694 151.748 421.716 151.373C418.786 149.126 413.637 149.85 410.53 150.999C407.201 152.222 407.201 154.519 407.245 158.414C407.267 160.611 407.445 163.083 408.954 164.506C410.108 165.605 411.728 165.754 413.238 165.854C414.591 165.954 415.923 166.029 417.277 166.129C418.209 166.179 419.252 166.204 419.985 165.53C420.717 164.831 420.828 163.657 420.917 162.584C421.161 159.213 421.405 155.867 421.627 152.522Z" fill="#2F3F47"/>
<path d="M425.204 152.522C425.182 152.147 425.137 151.748 425.115 151.373C428.045 149.126 433.194 149.85 436.301 150.999C439.631 152.222 439.631 154.519 439.586 158.414C439.564 160.611 439.386 163.083 437.877 164.506C436.723 165.605 435.103 165.754 433.594 165.854C432.24 165.954 430.908 166.029 429.554 166.129C428.622 166.179 427.579 166.204 426.847 165.53C426.114 164.831 426.003 163.657 425.914 162.584C425.692 159.213 425.448 155.867 425.204 152.522Z" fill="#2F3F47"/>
<path d="M400.207 144.181C399.475 144.356 398.765 144.606 398.077 144.93C397.566 145.155 397.056 145.455 396.701 145.904C396.212 146.553 396.079 147.452 395.99 148.326C395.879 149.474 395.835 150.623 395.857 151.771C395.857 152.745 395.924 153.744 396.368 154.568C396.989 155.716 398.21 156.241 399.364 156.565C401.561 157.189 403.847 157.339 406.111 157.464C419.805 158.213 433.544 157.714 447.171 155.991C447.726 155.916 448.347 155.816 448.725 155.342C448.947 155.067 449.058 154.693 449.169 154.343C449.879 151.796 450.345 148.326 448.813 145.954C447.504 143.932 445.085 145.08 443.265 145.055C441.401 145.03 439.514 144.855 437.65 144.78C434.01 144.606 430.37 144.431 426.73 144.306C421.603 144.106 416.454 143.932 411.327 143.782C407.865 143.707 403.781 143.282 400.207 144.181Z" fill="#FFB000"/>
<path d="M429.638 89.3775C438.938 89.4274 448.215 89.6523 457.515 89.8769C457.293 84.3092 456.938 78.7414 455.872 73.2984C454.03 63.7609 449.813 54.4481 442.689 48.8803C431.769 40.3414 414.435 41.4649 402.672 49.9039C397.723 53.4493 393.75 58.318 391.663 64.2852C389.267 71.1013 388.623 78.5417 388.245 85.8572C388.201 86.831 388.157 87.7797 388.112 88.7534C401.917 88.1541 415.811 89.3277 429.638 89.3775Z" fill="#EAF1F2"/>
<path d="M428.894 92.1749C415.267 92.1499 401.595 91.0514 387.967 91.6006C387.301 108.229 387.923 124.932 389.832 141.461C390.098 143.733 390.431 146.105 391.763 147.902C393.827 150.674 397.4 149.45 400.174 149.45C404.857 149.45 409.674 149.675 414.401 149.8C423.323 150.025 432.179 150.05 441.057 148.926C445.274 148.402 453.796 149.85 455.816 145.58C457.481 142.11 456.793 135.069 457.037 131.199C457.325 126.605 457.547 122.036 457.68 117.442C457.925 109.178 457.88 100.913 457.592 92.6242C448.048 92.4246 438.46 92.1749 428.894 92.1749Z" fill="#E2ECED"/>
<path d="M461.076 119.084C461.253 118.909 461.276 118.61 461.298 118.36C461.764 111.444 462.163 104.528 462.452 97.612C462.474 97.0128 462.474 96.3137 462.052 95.9143C461.742 95.6396 461.342 95.6147 460.943 95.6147C459.567 95.5897 458.213 95.5648 456.837 95.5648C455.971 103.43 455.616 111.344 455.793 119.259C457.325 119.259 458.834 119.284 460.366 119.284C460.61 119.284 460.876 119.284 461.076 119.084Z" fill="#2F3F47"/>
<path d="M468.149 135.015C468.327 134.441 468.527 133.842 468.926 133.417C469.237 133.093 469.658 132.893 470.058 132.743C471.789 132.044 473.565 131.52 475.362 131.17C476.761 132.244 478.026 133.517 479.113 134.99C479.313 135.265 479.513 135.565 479.557 135.914C479.602 136.189 479.535 136.463 479.468 136.738C478.758 139.809 478.07 142.88 477.36 145.951C476.317 146.101 475.274 146.126 474.253 145.976C474.652 144.104 475.052 142.231 475.429 140.383C475.806 138.611 476.095 136.438 474.896 135.19C473.676 135.54 472.477 135.914 471.256 136.264C471.057 136.314 470.835 136.389 470.657 136.538C470.457 136.738 470.369 137.038 470.28 137.312C469.769 139.06 469.392 140.858 469.126 142.68C468.349 142.431 467.572 142.206 466.795 141.956C466.729 139.584 467.439 137.262 468.149 135.015Z" fill="#2F3F47"/>
<path d="M477.583 132.321C477.65 132.246 477.672 132.146 477.694 132.071C477.916 130.948 478.138 129.824 478.382 128.726C476.829 128.326 475.231 128.052 473.655 127.902C473.411 128.825 473.255 129.799 473.189 130.773C473.167 130.973 473.167 131.222 473.3 131.372C473.388 131.472 473.5 131.497 473.61 131.547C474.787 131.946 476.007 132.246 477.25 132.421C477.339 132.396 477.472 132.421 477.583 132.321Z" fill="#516770"/>
<path d="M479.139 127.951C480.071 126.179 479.316 121.51 479.316 119.637C479.294 117.065 479.294 114.469 478.761 111.972C478.229 109.475 477.141 107.028 475.343 105.455C474.322 104.557 473.124 103.982 471.881 103.508C468.175 102.085 464.202 101.611 460.318 102.135C460.007 102.185 459.674 102.235 459.452 102.484C459.208 102.734 459.164 103.134 459.119 103.508C458.942 104.931 458.698 106.504 458.764 107.952C458.875 110.499 458.409 109.8 460.052 110.524C461.317 111.073 463.691 110.624 465.134 110.998C466.821 111.423 468.463 112.072 470.106 112.721C471.149 113.121 472.258 113.62 472.791 114.694C473.08 115.268 473.169 115.967 473.235 116.641C473.635 120.636 473.812 124.656 473.79 128.675C473.79 129.374 478.362 129.025 478.961 128.251C479.028 128.151 479.072 128.051 479.139 127.951Z" fill="#E2ECED"/>
<g opacity="0.15">
<path opacity="0.15" d="M471.371 104.658C471.238 107.055 470.683 109.227 469.84 111.425C469.684 111.849 470.15 112.174 470.394 111.799C471.726 109.702 472.414 107.205 472.658 104.658C472.747 103.759 471.438 103.734 471.371 104.658Z" fill="#272525"/>
<path opacity="0.15" d="M474.769 106.377C474.392 108.699 473.46 110.222 471.995 111.87C471.795 112.094 472.062 112.469 472.284 112.294C473.282 111.595 474.215 111.145 474.925 110.022C475.591 108.973 476.034 107.85 476.168 106.576C476.256 105.703 474.925 105.503 474.769 106.377Z" fill="#272525"/>
</g>
<path d="M385.788 95.7645C385.61 95.9393 385.588 96.2388 385.566 96.4885C385.1 103.405 384.7 110.321 384.412 117.237C384.39 117.836 384.39 118.535 384.811 118.934C385.122 119.209 385.522 119.234 385.921 119.234C387.297 119.259 388.651 119.284 390.027 119.284C390.893 111.419 391.248 103.504 391.07 95.5897C389.539 95.5897 388.03 95.5648 386.498 95.5648C386.254 95.5648 385.966 95.5647 385.788 95.7645Z" fill="#2F3F47"/>
<path d="M368.584 87.2564C368.651 87.8556 368.717 88.5046 368.518 89.0539C368.362 89.5034 368.074 89.878 367.763 90.2274C366.498 91.7005 365.122 93.0737 363.635 94.2972C361.948 94.0475 360.306 93.5232 358.774 92.7492C358.486 92.5994 358.175 92.4496 357.997 92.15C357.864 91.9254 357.798 91.6505 357.753 91.376C357.176 88.28 356.577 85.1591 356 82.0631C356.866 81.414 357.798 80.8646 358.774 80.4651C359.152 82.3377 359.551 84.2102 359.928 86.0828C360.306 87.8555 360.905 89.9527 362.459 90.4521C363.413 89.5283 364.345 88.6045 365.3 87.6807C365.455 87.5309 365.632 87.3563 365.721 87.1316C365.832 86.8569 365.788 86.5322 365.743 86.2326C365.499 84.4099 365.144 82.6124 364.656 80.8397C365.455 80.6649 366.232 80.4901 367.031 80.3153C368.052 82.4376 368.318 84.8844 368.584 87.2564Z" fill="#2F3F47"/>
<path d="M361.21 94.3777C361.188 94.4776 361.21 94.5777 361.21 94.6526C361.454 95.7761 361.698 96.8746 361.92 97.9981C363.474 97.5736 365.005 97.0242 366.492 96.3751C366.359 95.4264 366.115 94.4776 365.782 93.5788C365.716 93.379 365.627 93.1793 365.449 93.1044C365.338 93.0544 365.227 93.0794 365.094 93.1044C363.873 93.3291 362.675 93.6787 361.499 94.1282C361.388 94.1781 361.254 94.253 361.21 94.3777Z" fill="#516770"/>
<path d="M361.548 99.0641C361.393 101.111 363.923 104.907 364.677 106.604C365.698 108.901 366.741 111.223 368.206 113.196C369.671 115.168 371.602 116.816 373.844 117.315C375.109 117.615 376.418 117.54 377.705 117.34C381.59 116.766 385.34 115.218 388.603 112.796C388.869 112.596 389.136 112.397 389.247 112.047C389.358 111.698 389.247 111.323 389.158 110.949C388.736 109.576 388.359 108.053 387.715 106.779C386.605 104.557 387.316 104.956 385.54 105.106C384.186 105.231 382.233 106.829 380.791 107.229C379.104 107.703 377.373 107.928 375.664 108.177C374.576 108.327 373.378 108.452 372.468 107.753C371.979 107.378 371.624 106.804 371.313 106.23C369.383 102.859 367.629 99.3388 366.053 95.7186C365.787 95.0944 361.836 97.6911 361.592 98.6897C361.57 98.8396 361.548 98.9393 361.548 99.0641Z" fill="#E2ECED"/>
<g opacity="0.15">
<path opacity="0.15" d="M377.682 116.036C376.86 113.814 376.505 111.592 376.372 109.195C376.35 108.721 375.795 108.671 375.728 109.145C375.373 111.692 375.729 114.264 376.528 116.661C376.816 117.534 378.015 116.885 377.682 116.036Z" fill="#272525"/>
<path opacity="0.15" d="M373.977 116.214C373.4 113.942 373.622 112.12 374.288 109.898C374.377 109.598 374 109.398 373.844 109.648C373.245 110.771 372.579 111.645 372.38 112.994C372.202 114.267 372.246 115.49 372.646 116.689C372.912 117.563 374.177 117.063 373.977 116.214Z" fill="#272525"/>
</g>
<path d="M394.308 73.0496C394.33 73.9984 394.374 74.9721 394.729 75.8459C395.639 78.0182 398.036 78.7172 400.145 79.1167C412.196 81.3887 424.515 82.1628 436.633 80.44C438.231 80.2154 439.829 79.9407 441.294 79.1917C442.759 78.4427 444.068 77.1692 444.601 75.4965C444.934 74.4228 444.956 73.2743 444.978 72.1258C445 70.9774 445 69.8039 445.022 68.6553C445.022 68.1309 445.022 67.6067 444.845 67.1073C444.645 66.5831 444.246 66.1586 443.824 65.834C442.226 64.6106 440.206 64.3359 438.275 64.1112C425.447 62.6631 412.463 61.3897 399.701 63.3372C399.168 63.4122 398.614 63.512 398.236 63.9364C398.036 64.1361 397.903 64.4108 397.704 64.6106C397.326 64.9352 396.816 64.9102 396.372 65.085C395.129 65.5345 394.685 67.2573 394.53 68.7304C394.352 70.1534 394.286 71.6015 394.308 73.0496Z" fill="#1E1E1E"/>
<path opacity="0.2" d="M410.375 75.1516C410.797 74.2778 410.863 73.2542 410.775 72.2556C410.73 71.6563 410.597 71.0321 410.264 70.5828C409.554 69.6339 408.244 69.7338 407.157 69.5092C406.202 69.9585 405.403 70.8323 405.004 71.906C404.76 72.5551 404.649 73.2542 404.715 73.9533C404.871 75.3764 405.914 76.6 407.157 76.8495C408.422 77.1492 409.776 76.425 410.375 75.1516Z" fill="#EAF1F2"/>
<path opacity="0.2" d="M431.508 75.1516C431.929 74.2778 431.996 73.2542 431.907 72.2556C431.863 71.6563 431.73 71.0321 431.397 70.5828C430.687 69.6339 429.377 69.7338 428.29 69.5092C427.335 69.9585 426.536 70.8323 426.137 71.906C425.893 72.5551 425.782 73.2542 425.848 73.9533C426.004 75.3764 427.047 76.6 428.29 76.8495C429.533 77.1492 430.886 76.425 431.508 75.1516Z" fill="#EAF1F2"/>
</g>
<path d="M180.5 158C180.5 156.619 179.381 155.5 178 155.5C176.619 155.5 175.5 156.619 175.5 158H180.5ZM175.5 158V228H180.5V158H175.5Z" fill="#FFB000"/>
<path d="M107.407 252.36C107.407 251.869 107.588 251.453 107.951 251.112C108.335 250.771 108.804 250.6 109.359 250.6H117.967C120.185 250.6 121.924 251.208 123.183 252.424C124.463 253.64 125.103 255.315 125.103 257.448C125.103 258.707 124.836 259.773 124.303 260.648C123.769 261.501 122.969 262.184 121.903 262.696V262.824C122.841 263.229 123.556 263.837 124.047 264.648C124.537 265.437 124.783 266.419 124.783 267.592V270.344C124.783 271.304 124.452 272.04 123.791 272.552C123.151 273.043 122.201 273.288 120.943 273.288V267.752C120.943 265.448 119.961 264.296 117.999 264.296H111.215V270.344C111.215 271.304 110.884 272.04 110.223 272.552C109.583 273.043 108.644 273.288 107.407 273.288V252.36ZM117.807 261C118.873 261 119.705 260.691 120.303 260.072C120.921 259.432 121.231 258.547 121.231 257.416C121.231 255.069 120.089 253.896 117.807 253.896H111.215V261H117.807ZM131.982 252.36C131.982 251.869 132.163 251.453 132.526 251.112C132.91 250.771 133.379 250.6 133.934 250.6H148.174C148.174 251.752 147.96 252.595 147.534 253.128C147.128 253.661 146.467 253.928 145.55 253.928H135.822V260.04H144.494C144.494 261.192 144.28 262.035 143.854 262.568C143.448 263.101 142.798 263.368 141.902 263.368H135.822V269.672H146.222C147.118 269.672 147.768 269.939 148.174 270.472C148.6 271.005 148.814 271.848 148.814 273H133.934C133.379 273 132.91 272.829 132.526 272.488C132.163 272.147 131.982 271.72 131.982 271.208V252.36ZM162.027 253.96H154.251C154.251 251.72 155.285 250.6 157.355 250.6H173.611C173.611 251.709 173.344 252.552 172.811 253.128C172.299 253.683 171.531 253.96 170.507 253.96H165.867V270.344C165.867 271.283 165.536 272.008 164.875 272.52C164.213 273.032 163.264 273.288 162.027 273.288V253.96ZM188.908 273.288C187.137 273.288 185.548 272.936 184.14 272.232C182.732 271.507 181.623 270.515 180.812 269.256C180.023 267.997 179.628 266.579 179.628 265V253.256C179.628 252.296 179.948 251.571 180.588 251.08C181.249 250.568 182.209 250.312 183.468 250.312V265C183.468 266.493 183.959 267.688 184.94 268.584C185.943 269.459 187.265 269.896 188.908 269.896C190.529 269.896 191.831 269.448 192.812 268.552C193.815 267.656 194.316 266.472 194.316 265V253.256C194.316 252.296 194.636 251.571 195.276 251.08C195.937 250.568 196.897 250.312 198.156 250.312V265C198.156 266.579 197.751 267.997 196.94 269.256C196.151 270.515 195.052 271.507 193.644 272.232C192.236 272.936 190.657 273.288 188.908 273.288ZM205.238 252.36C205.238 251.869 205.419 251.453 205.782 251.112C206.166 250.771 206.635 250.6 207.19 250.6H215.798C218.017 250.6 219.755 251.208 221.014 252.424C222.294 253.64 222.934 255.315 222.934 257.448C222.934 258.707 222.667 259.773 222.134 260.648C221.601 261.501 220.801 262.184 219.734 262.696V262.824C220.673 263.229 221.387 263.837 221.878 264.648C222.369 265.437 222.614 266.419 222.614 267.592V270.344C222.614 271.304 222.283 272.04 221.622 272.552C220.982 273.043 220.033 273.288 218.774 273.288V267.752C218.774 265.448 217.793 264.296 215.83 264.296H209.046V270.344C209.046 271.304 208.715 272.04 208.054 272.552C207.414 273.043 206.475 273.288 205.238 273.288V252.36ZM215.638 261C216.705 261 217.537 260.691 218.134 260.072C218.753 259.432 219.062 258.547 219.062 257.416C219.062 255.069 217.921 253.896 215.638 253.896H209.046V261H215.638ZM229.813 253.448C229.813 252.467 230.122 251.699 230.741 251.144C231.381 250.589 232.256 250.312 233.365 250.312L244.693 267.88L244.981 267.624L243.797 265.672V250.312C245.056 250.312 246.005 250.557 246.645 251.048C247.285 251.539 247.605 252.275 247.605 253.256V270.536C247.605 271.283 247.306 271.933 246.709 272.488C246.112 273.021 245.386 273.288 244.533 273.288L232.725 254.984L232.437 255.208L233.621 257.192V270.344C233.621 271.304 233.29 272.04 232.629 272.552C231.989 273.043 231.05 273.288 229.813 273.288V253.448Z" fill="black"/>
<path d="M214 228H193.526C189.527 228 185.87 225.74 184.081 222.163C183.695 221.39 183.405 220.574 183.218 219.731L180.5 207.5C179.778 205.19 176.483 205.265 175.867 207.606L175.5 209L172.928 220.575C172.646 221.845 172.105 223.043 171.34 224.095C169.556 226.548 166.705 228 163.671 228H163.5H147H112.5H86H78.4621C77.8218 228 77.1826 228.053 76.551 228.158C75.1944 228.384 73.8887 228.849 72.6947 229.532L72.4985 229.644C71.5039 230.212 70.5896 230.91 69.7796 231.72L69.4334 232.067C68.8135 232.687 68.2719 233.38 67.8209 234.132C67.2766 235.039 66.8696 236.022 66.613 237.048L66.4527 237.689C66.152 238.892 66 240.127 66 241.367V248.5V259V263.473C66 269.738 66.0195 276.254 66.5 282.5L67 285.5C67.2126 287.413 69.9085 287.629 70.4236 285.775L70.5 285.5L71.398 279.513C71.5086 278.776 72.5676 278.764 72.6954 279.498C72.8331 280.29 74 280.19 74 279.386V266.181C74 265.32 75.1918 265.099 75.5007 265.902C75.7828 266.635 76.8512 266.533 76.9893 265.76L77.6814 261.884C78.0243 259.964 80.7084 259.781 81.309 261.637L81.881 263.405C82.6125 265.666 85.8589 265.521 86.3856 263.203L88.8766 252.243C89.76 248.356 95.1962 248.088 96.4567 251.87C97.5717 255.215 102.182 255.524 103.733 252.357L108.577 242.469C110.263 239.025 114.193 237.308 117.866 238.41C120.161 239.098 122.015 240.799 122.899 243.027L123.712 245.077C126.511 252.138 136.761 251.305 138.385 243.885L138.497 243.369C139.332 239.555 143.067 237.113 146.895 237.879C148.872 238.274 150.592 239.486 151.629 241.215L152.871 243.285C152.957 243.428 153.03 243.578 153.09 243.734C153.999 246.098 157.297 246.226 158.386 243.938L158.447 243.811C159.39 241.832 162.086 241.539 163.431 243.269L167.448 248.433C169.175 250.654 172.584 250.485 174.083 248.104C176.036 245.002 180.775 245.875 181.494 249.47L183.298 258.491C183.43 259.149 183.753 259.753 184.227 260.227C186.101 262.101 189.303 261.204 189.93 258.629L192.932 246.302C192.977 246.118 193.037 245.937 193.111 245.762C194.416 242.652 198.915 242.942 199.876 246.175C200.812 249.324 205.132 249.744 206.602 246.807L207.665 244.686C209.19 241.639 213.397 241.28 215.417 244.023L218.3 247.938C221.036 251.654 226.438 252.062 229.701 248.799L231.5 247C234.302 243.498 239.79 244.079 241.795 248.091L242.658 249.816C244.781 254.063 250.893 253.91 252.802 249.562L254.892 244.801C255.794 242.746 258.622 242.523 259.835 244.411L260.333 245.184C260.96 246.16 262.289 246.387 263.204 245.675C264.424 244.726 266.213 245.485 266.377 247.022L267.16 254.329C267.264 255.301 268.559 255.558 269.027 254.701C269.49 253.852 270.768 254.092 270.891 255.051L271.986 263.589C272.244 265.603 275.032 265.912 275.726 264.005C276.447 262.02 279.373 262.461 279.478 264.57L279.5 265L280.968 274.397C281.379 277.023 284.663 277.982 286.421 275.989C287.893 274.321 290.586 274.672 291.581 276.662L292.737 278.973C292.911 279.322 293.025 279.698 293.073 280.084L294.128 288.523C294.398 290.682 297.469 290.834 297.952 288.713C297.984 288.571 298 288.427 298 288.282V277.5V271.5V262V252V242V241.199C298 239.743 297.765 238.296 297.305 236.914C297.102 236.305 296.856 235.712 296.569 235.139L296.338 234.675C295.783 233.566 295.053 232.553 294.175 231.675C293.07 230.57 291.752 229.701 290.3 229.12L290 229L288.5 228.5C287.507 228.169 286.466 228 285.419 228H279.377H253.5H214Z" fill="#FFB000"/>
<path d="M163.059 141.559L159.483 137.983C157.977 136.477 155.718 136.013 153.74 136.804L153.578 136.869C151.231 137.807 148.551 136.895 147.266 134.719L140.832 123.831C139.732 121.969 136.873 122.842 137 125L137.35 127.278C137.782 130.085 138.503 132.84 139.5 135.5L140.75 138L145.874 147.802C146.259 148.538 147.021 149 147.852 149C148.831 149 149.697 149.639 149.985 150.575L152.436 158.543C152.75 159.564 154.2 159.549 154.494 158.523C154.788 157.492 156.245 157.483 156.553 158.509L158.5 165C159.113 166.838 161.789 166.584 162.045 164.664L162.749 159.379C162.893 158.303 163.81 157.5 164.896 157.5C165.849 157.5 166.69 158.123 166.967 159.035L167.568 161.01C168.664 164.609 173.212 165.721 175.844 163.034L177.505 161.338C179.573 159.227 183.139 160.025 184.11 162.816L185.482 166.762C185.733 167.481 186.625 167.729 187.211 167.241C187.398 167.085 187.528 166.87 187.579 166.632L188.771 161.067C188.918 160.381 189.317 159.774 189.888 159.366L190.496 158.931C191.558 158.173 193.045 158.521 193.659 159.673C194.614 161.463 197.286 161.069 197.684 159.08L197.853 158.233C197.949 157.755 198.184 157.316 198.529 156.971L200.5 155C201.286 154.214 202.632 154.712 202.717 155.82C202.834 157.343 205.026 157.453 205.295 155.949L205.881 152.669C205.957 152.239 206.194 151.854 206.544 151.592L207.836 150.623C208.728 149.954 210 150.59 210 151.705C210 153.265 212.204 153.586 212.649 152.09L215.407 142.813C215.469 142.605 215.555 142.405 215.664 142.217L218.25 137.75C220.066 134.614 221.246 131.151 221.725 127.56L222 125.5L222.5 121V119.046C222.5 118.385 221.764 117.991 221.214 118.357C221.075 118.45 220.967 118.583 220.905 118.739L218.106 125.735C217.729 126.678 216.38 126.639 216.058 125.675C215.802 124.905 214.825 124.675 214.252 125.248L212.413 127.087C212.141 127.359 211.93 127.687 211.795 128.047L210.55 131.366C209.772 133.441 207.227 134.2 205.439 132.889C203.543 131.498 200.841 132.446 200.23 134.717L199.508 137.399C198.953 139.46 196.181 139.817 195.122 137.964L194.709 137.24C194.311 136.544 193.439 136.28 192.723 136.639C192.271 136.864 191.962 137.301 191.9 137.802L191.565 140.483C191.335 142.321 189.091 143.091 187.781 141.781C186.557 140.557 184.466 141.136 184.046 142.815L183.5 145C182.21 148.943 176.51 148.553 175.768 144.472L175.617 143.643C175.54 143.22 175.362 142.823 175.099 142.484C173.784 140.794 171.114 141.268 170.462 143.308L170.257 143.946C169.433 146.521 165.897 146.794 164.688 144.375L163.779 142.558C163.594 142.188 163.351 141.851 163.059 141.559Z" fill="#FFB000" stroke="#FFB000"/>
<defs>
<filter id="filter0_d_412_98" x="359" y="146" width="135.07" height="51.6688" filterUnits="userSpaceOnUse" color-interpolation-filters="sRGB">
<feFlood flood-opacity="0" result="BackgroundImageFix"/>
<feColorMatrix in="SourceAlpha" type="matrix" values="0 0 0 0 0 0 0 0 0 0 0 0 0 0 0 0 0 0 127 0" result="hardAlpha"/>
<feOffset/>
<feGaussianBlur stdDeviation="10"/>
<feComposite in2="hardAlpha" operator="out"/>
<feColorMatrix type="matrix" values="0 0 0 0 0 0 0 0 0 0 0 0 0 0 0 0 0 0 1 0"/>
<feBlend mode="normal" in2="BackgroundImageFix" result="effect1_dropShadow_412_98"/>
<feBlend mode="normal" in="SourceGraphic" in2="effect1_dropShadow_412_98" result="shape"/>
</filter>
<linearGradient id="paint0_linear_412_98" x1="394.066" y1="169.884" x2="489.147" y2="169.884" gradientUnits="userSpaceOnUse">
<stop stop-color="#4D4D4D"/>
<stop offset="1"/>
</linearGradient>
<linearGradient id="paint1_linear_412_98" x1="379.015" y1="171.83" x2="474.096" y2="171.83" gradientUnits="userSpaceOnUse">
<stop/>
<stop offset="1"/>
</linearGradient>
<clipPath id="clip0_412_98">
<rect width="135" height="134" fill="white" transform="translate(356 43)"/>
</clipPath>
</defs>
</svg>
