<svg width="591" height="206" viewBox="0 0 591 206" fill="none" xmlns="http://www.w3.org/2000/svg">
<mask id="path-1-outside-1_270_109" maskUnits="userSpaceOnUse" x="26" y="1" width="549" height="140" fill="black">
<rect fill="white" x="26" y="1" width="549" height="140"/>
<path d="M79.0002 136H28.6309V5.09091H78.4888C91.9547 5.09091 103.588 7.71165 113.389 12.9531C123.233 18.152 130.818 25.652 136.145 35.4531C141.514 45.2116 144.199 56.9091 144.199 70.5455C144.199 84.1818 141.536 95.9006 136.209 105.702C130.882 115.46 123.34 122.96 113.581 128.202C103.823 133.401 92.2956 136 79.0002 136ZM64.1706 105.83H77.7218C84.199 105.83 89.7175 104.786 94.2772 102.697C98.8794 100.609 102.374 97.0085 104.76 91.8949C107.189 86.7812 108.404 79.6648 108.404 70.5455C108.404 61.4261 107.168 54.3097 104.696 49.196C102.267 44.0824 98.6877 40.4815 93.9576 38.3935C89.2701 36.3054 83.5172 35.2614 76.699 35.2614H64.1706V105.83ZM160.643 136V5.09091H254.989V33.7273H196.182V56.2273H250.131V84.8636H196.182V107.364H254.733V136H160.643ZM308.411 5.09091L335.257 97.392H336.28L363.127 5.09091H403.269L360.058 136H311.479L268.269 5.09091H308.411ZM494.435 138.045C485.06 138.045 476.985 136.384 470.209 133.06C463.434 129.736 458.235 125.283 454.613 119.7C450.991 114.118 449.18 107.96 449.18 101.227C449.18 96.3267 450.117 92.0014 451.992 88.2514C453.867 84.4588 456.488 80.9858 459.854 77.8324C463.221 74.679 467.162 71.5682 471.68 68.5L501.339 50.0909C504.322 48.2159 506.346 46.277 507.411 44.2741C508.476 42.2287 509.009 40.4176 509.009 38.8409C509.009 36.7528 508.242 34.8991 506.708 33.2798C505.174 31.6605 502.787 30.8722 499.549 30.9148C497.546 30.9148 495.82 31.2983 494.371 32.0653C492.922 32.7898 491.793 33.8125 490.983 35.1335C490.216 36.4545 489.833 38.0312 489.833 39.8636C489.833 42.3778 490.557 44.956 492.006 47.598C493.455 50.1974 495.437 53.0099 497.951 56.0355C500.465 59.0611 503.299 62.4489 506.452 66.1989L569.861 136H534.577L481.395 79.75C478.796 76.9801 475.92 73.5923 472.766 69.5866C469.613 65.5383 466.885 60.9787 464.584 55.9077C462.326 50.8366 461.197 45.3182 461.197 39.3523C461.197 32.7045 462.795 26.6321 465.991 21.1349C469.187 15.6378 473.661 11.2486 479.414 7.96733C485.167 4.68608 491.878 3.04545 499.549 3.04545C506.878 3.04545 513.185 4.55824 518.469 7.5838C523.796 10.6094 527.887 14.6364 530.742 19.6648C533.64 24.6932 535.089 30.2329 535.089 36.2841C535.089 42.3778 533.576 48.0668 530.55 53.3509C527.567 58.6349 523.285 63.2585 517.702 67.2216L490.6 86.3977C488.512 87.8466 486.701 89.5085 485.167 91.3835C483.675 93.2585 482.93 95.6875 482.93 98.6705C482.93 101.142 483.505 103.251 484.655 104.999C485.806 106.746 487.425 108.088 489.513 109.026C491.644 109.963 494.137 110.432 496.992 110.432C501.339 110.432 505.685 109.388 510.032 107.3C514.421 105.169 518.427 102.207 522.049 98.4148C525.671 94.5795 528.569 90.0625 530.742 84.8636C532.958 79.6222 534.066 73.9119 534.066 67.733H561.935C561.935 75.3182 561.147 82.6264 559.57 89.6577C557.993 96.6889 555.458 103.124 551.964 108.962C548.469 114.8 543.867 119.722 538.157 123.727C536.367 124.622 534.62 125.474 532.915 126.284C531.211 127.094 529.464 127.946 527.674 128.841C522.432 132.207 516.957 134.594 511.246 136C505.536 137.364 499.932 138.045 494.435 138.045Z"/>
</mask>
<path d="M79.0002 136H28.6309V5.09091H78.4888C91.9547 5.09091 103.588 7.71165 113.389 12.9531C123.233 18.152 130.818 25.652 136.145 35.4531C141.514 45.2116 144.199 56.9091 144.199 70.5455C144.199 84.1818 141.536 95.9006 136.209 105.702C130.882 115.46 123.34 122.96 113.581 128.202C103.823 133.401 92.2956 136 79.0002 136ZM64.1706 105.83H77.7218C84.199 105.83 89.7175 104.786 94.2772 102.697C98.8794 100.609 102.374 97.0085 104.76 91.8949C107.189 86.7812 108.404 79.6648 108.404 70.5455C108.404 61.4261 107.168 54.3097 104.696 49.196C102.267 44.0824 98.6877 40.4815 93.9576 38.3935C89.2701 36.3054 83.5172 35.2614 76.699 35.2614H64.1706V105.83ZM160.643 136V5.09091H254.989V33.7273H196.182V56.2273H250.131V84.8636H196.182V107.364H254.733V136H160.643ZM308.411 5.09091L335.257 97.392H336.28L363.127 5.09091H403.269L360.058 136H311.479L268.269 5.09091H308.411ZM494.435 138.045C485.06 138.045 476.985 136.384 470.209 133.06C463.434 129.736 458.235 125.283 454.613 119.7C450.991 114.118 449.18 107.96 449.18 101.227C449.18 96.3267 450.117 92.0014 451.992 88.2514C453.867 84.4588 456.488 80.9858 459.854 77.8324C463.221 74.679 467.162 71.5682 471.68 68.5L501.339 50.0909C504.322 48.2159 506.346 46.277 507.411 44.2741C508.476 42.2287 509.009 40.4176 509.009 38.8409C509.009 36.7528 508.242 34.8991 506.708 33.2798C505.174 31.6605 502.787 30.8722 499.549 30.9148C497.546 30.9148 495.82 31.2983 494.371 32.0653C492.922 32.7898 491.793 33.8125 490.983 35.1335C490.216 36.4545 489.833 38.0312 489.833 39.8636C489.833 42.3778 490.557 44.956 492.006 47.598C493.455 50.1974 495.437 53.0099 497.951 56.0355C500.465 59.0611 503.299 62.4489 506.452 66.1989L569.861 136H534.577L481.395 79.75C478.796 76.9801 475.92 73.5923 472.766 69.5866C469.613 65.5383 466.885 60.9787 464.584 55.9077C462.326 50.8366 461.197 45.3182 461.197 39.3523C461.197 32.7045 462.795 26.6321 465.991 21.1349C469.187 15.6378 473.661 11.2486 479.414 7.96733C485.167 4.68608 491.878 3.04545 499.549 3.04545C506.878 3.04545 513.185 4.55824 518.469 7.5838C523.796 10.6094 527.887 14.6364 530.742 19.6648C533.64 24.6932 535.089 30.2329 535.089 36.2841C535.089 42.3778 533.576 48.0668 530.55 53.3509C527.567 58.6349 523.285 63.2585 517.702 67.2216L490.6 86.3977C488.512 87.8466 486.701 89.5085 485.167 91.3835C483.675 93.2585 482.93 95.6875 482.93 98.6705C482.93 101.142 483.505 103.251 484.655 104.999C485.806 106.746 487.425 108.088 489.513 109.026C491.644 109.963 494.137 110.432 496.992 110.432C501.339 110.432 505.685 109.388 510.032 107.3C514.421 105.169 518.427 102.207 522.049 98.4148C525.671 94.5795 528.569 90.0625 530.742 84.8636C532.958 79.6222 534.066 73.9119 534.066 67.733H561.935C561.935 75.3182 561.147 82.6264 559.57 89.6577C557.993 96.6889 555.458 103.124 551.964 108.962C548.469 114.8 543.867 119.722 538.157 123.727C536.367 124.622 534.62 125.474 532.915 126.284C531.211 127.094 529.464 127.946 527.674 128.841C522.432 132.207 516.957 134.594 511.246 136C505.536 137.364 499.932 138.045 494.435 138.045Z" fill="white" fill-opacity="0.8"/>
<path d="M28.6309 136H26.6309V138H28.6309V136ZM28.6309 5.09091V3.09091H26.6309V5.09091H28.6309ZM113.389 12.9531L112.446 14.7168L112.455 14.7216L113.389 12.9531ZM136.145 35.4531L134.388 36.4082L134.393 36.4173L136.145 35.4531ZM136.209 105.702L137.964 106.66L137.966 106.657L136.209 105.702ZM113.581 128.202L114.522 129.967L114.528 129.964L113.581 128.202ZM64.1706 105.83H62.1706V107.83H64.1706V105.83ZM94.2772 102.697L93.4508 100.876L93.4444 100.879L94.2772 102.697ZM104.76 91.8949L102.954 91.0367L102.948 91.0491L104.76 91.8949ZM104.696 49.196L102.89 50.0542L102.896 50.0664L104.696 49.196ZM93.9576 38.3935L93.1437 40.2204L93.1499 40.2231L93.9576 38.3935ZM64.1706 35.2614V33.2614H62.1706V35.2614H64.1706ZM79.0002 134H28.6309V138H79.0002V134ZM30.6309 136V5.09091H26.6309V136H30.6309ZM28.6309 7.09091H78.4888V3.09091H28.6309V7.09091ZM78.4888 7.09091C91.6947 7.09091 102.991 9.66004 112.446 14.7168L114.333 11.1895C104.186 5.76325 92.2147 3.09091 78.4888 3.09091V7.09091ZM112.455 14.7216C121.95 19.736 129.249 26.9526 134.388 36.4082L137.902 34.4981C132.388 24.3513 124.516 16.568 114.323 11.1846L112.455 14.7216ZM134.393 36.4173C139.567 45.8211 142.199 57.1713 142.199 70.5455H146.199C146.199 56.6469 143.462 44.6022 137.897 34.489L134.393 36.4173ZM142.199 70.5455C142.199 83.9217 139.587 95.2971 134.452 104.747L137.966 106.657C143.484 96.5041 146.199 84.4419 146.199 70.5455H142.199ZM134.453 104.743C129.312 114.163 122.05 121.383 112.635 126.44L114.528 129.964C124.629 124.538 132.453 116.758 137.964 106.66L134.453 104.743ZM112.641 126.437C103.225 131.453 92.0336 134 79.0002 134V138C92.5576 138 104.42 135.348 114.522 129.967L112.641 126.437ZM64.1706 107.83H77.7218V103.83H64.1706V107.83ZM77.7218 107.83C84.4059 107.83 90.2245 106.753 95.1099 104.516L93.4444 100.879C89.2105 102.818 83.9922 103.83 77.7218 103.83V107.83ZM95.1035 104.519C100.192 102.21 104.009 98.2328 106.572 92.7407L102.948 91.0491C100.738 95.7843 97.5673 99.0085 93.4508 100.876L95.1035 104.519ZM106.567 92.753C109.178 87.2564 110.404 79.8008 110.404 70.5455H106.404C106.404 79.5287 105.201 86.3061 102.954 91.0368L106.567 92.753ZM110.404 70.5455C110.404 61.287 109.156 53.8264 106.497 48.3257L102.896 50.0664C105.18 54.7929 106.404 61.5653 106.404 70.5455H110.404ZM106.503 48.3379C103.889 42.8354 99.9768 38.8644 94.7653 36.5638L93.1499 40.2231C97.3985 42.0986 100.645 45.3294 102.89 50.0541L106.503 48.3379ZM94.7714 36.5665C89.7583 34.3334 83.7101 33.2614 76.699 33.2614V37.2614C83.3244 37.2614 88.7818 38.2774 93.1437 40.2204L94.7714 36.5665ZM76.699 33.2614H64.1706V37.2614H76.699V33.2614ZM62.1706 35.2614V105.83H66.1706V35.2614H62.1706ZM160.643 136H158.643V138H160.643V136ZM160.643 5.09091V3.09091H158.643V5.09091H160.643ZM254.989 5.09091H256.989V3.09091H254.989V5.09091ZM254.989 33.7273V35.7273H256.989V33.7273H254.989ZM196.182 33.7273V31.7273H194.182V33.7273H196.182ZM196.182 56.2273H194.182V58.2273H196.182V56.2273ZM250.131 56.2273H252.131V54.2273H250.131V56.2273ZM250.131 84.8636V86.8636H252.131V84.8636H250.131ZM196.182 84.8636V82.8636H194.182V84.8636H196.182ZM196.182 107.364H194.182V109.364H196.182V107.364ZM254.733 107.364H256.733V105.364H254.733V107.364ZM254.733 136V138H256.733V136H254.733ZM162.643 136V5.09091H158.643V136H162.643ZM160.643 7.09091H254.989V3.09091H160.643V7.09091ZM252.989 5.09091V33.7273H256.989V5.09091H252.989ZM254.989 31.7273H196.182V35.7273H254.989V31.7273ZM194.182 33.7273V56.2273H198.182V33.7273H194.182ZM196.182 58.2273H250.131V54.2273H196.182V58.2273ZM248.131 56.2273V84.8636H252.131V56.2273H248.131ZM250.131 82.8636H196.182V86.8636H250.131V82.8636ZM194.182 84.8636V107.364H198.182V84.8636H194.182ZM196.182 109.364H254.733V105.364H196.182V109.364ZM252.733 107.364V136H256.733V107.364H252.733ZM254.733 134H160.643V138H254.733V134ZM308.411 5.09091L310.331 4.53234L309.912 3.09091H308.411V5.09091ZM335.257 97.392L333.337 97.9506L333.756 99.392H335.257V97.392ZM336.28 97.392V99.392H337.781L338.2 97.9506L336.28 97.392ZM363.127 5.09091V3.09091H361.625L361.206 4.53234L363.127 5.09091ZM403.269 5.09091L405.168 5.71779L406.035 3.09091H403.269V5.09091ZM360.058 136V138H361.504L361.958 136.627L360.058 136ZM311.479 136L309.58 136.627L310.033 138H311.479V136ZM268.269 5.09091V3.09091H265.502L266.369 5.71779L268.269 5.09091ZM306.49 5.64948L333.337 97.9506L337.178 96.8335L310.331 4.53234L306.49 5.64948ZM335.257 99.392H336.28V95.392H335.257V99.392ZM338.2 97.9506L365.047 5.64948L361.206 4.53234L334.36 96.8335L338.2 97.9506ZM363.127 7.09091H403.269V3.09091H363.127V7.09091ZM401.369 4.46402L358.159 135.373L361.958 136.627L405.168 5.71779L401.369 4.46402ZM360.058 134H311.479V138H360.058V134ZM313.378 135.373L270.168 4.46402L266.369 5.71779L309.58 136.627L313.378 135.373ZM268.269 7.09091H308.411V3.09091H268.269V7.09091ZM470.209 133.06L469.328 134.855L469.328 134.855L470.209 133.06ZM454.613 119.7L452.935 120.789L452.935 120.789L454.613 119.7ZM451.992 88.2514L453.781 89.1459L453.785 89.1378L451.992 88.2514ZM459.854 77.8324L461.221 79.292L461.221 79.292L459.854 77.8324ZM471.68 68.5L470.625 66.8007L470.59 66.8224L470.556 66.8456L471.68 68.5ZM501.339 50.0909L502.393 51.7902L502.403 51.7842L501.339 50.0909ZM507.411 44.2741L509.177 45.2134L509.181 45.2057L509.185 45.198L507.411 44.2741ZM499.549 30.9148V32.9148H499.562L499.575 32.9146L499.549 30.9148ZM494.371 32.0653L495.266 33.8542L495.286 33.8438L495.307 33.8329L494.371 32.0653ZM490.983 35.1335L489.278 34.0884L489.266 34.1087L489.254 34.1293L490.983 35.1335ZM492.006 47.598L490.253 48.5597L490.259 48.5717L492.006 47.598ZM497.951 56.0355L496.413 57.3137L496.413 57.3137L497.951 56.0355ZM506.452 66.1989L504.922 67.4861L504.946 67.5153L504.972 67.5437L506.452 66.1989ZM569.861 136V138H574.38L571.342 134.655L569.861 136ZM534.577 136L533.124 137.374L533.716 138H534.577V136ZM481.395 79.75L479.937 81.1186L479.942 81.124L481.395 79.75ZM472.766 69.5866L471.188 70.8157L471.195 70.8238L472.766 69.5866ZM464.584 55.9077L462.757 56.7214L462.763 56.7341L464.584 55.9077ZM465.991 21.1349L464.262 20.1297L464.262 20.1297L465.991 21.1349ZM479.414 7.96733L478.423 6.23005L478.423 6.23005L479.414 7.96733ZM518.469 7.5838L517.475 9.31944L517.482 9.32285L518.469 7.5838ZM530.742 19.6648L529.003 20.6523L529.009 20.6634L530.742 19.6648ZM530.55 53.3509L528.815 52.357L528.809 52.3677L530.55 53.3509ZM517.702 67.2216L518.857 68.8542L518.86 68.8524L517.702 67.2216ZM490.6 86.3977L491.74 88.0409L491.748 88.0357L491.755 88.0304L490.6 86.3977ZM485.167 91.3835L483.619 90.117L483.61 90.1277L483.602 90.1385L485.167 91.3835ZM484.655 104.999L486.326 103.899L486.326 103.899L484.655 104.999ZM489.513 109.026L488.694 110.85L488.701 110.853L488.708 110.856L489.513 109.026ZM510.032 107.3L510.898 109.102L510.905 109.099L510.032 107.3ZM522.049 98.4148L523.495 99.7961L523.503 99.788L522.049 98.4148ZM530.742 84.8636L528.9 84.0848L528.897 84.0923L530.742 84.8636ZM534.066 67.733V65.733H532.066V67.733H534.066ZM561.935 67.733H563.935V65.733H561.935V67.733ZM559.57 89.6577L561.522 90.0953L561.522 90.0953L559.57 89.6577ZM551.964 108.962L550.248 107.934L550.248 107.934L551.964 108.962ZM538.157 123.727L539.051 125.516L539.184 125.45L539.305 125.365L538.157 123.727ZM532.915 126.284L533.773 128.091L533.773 128.091L532.915 126.284ZM527.674 128.841L526.779 127.052L526.683 127.1L526.593 127.158L527.674 128.841ZM511.246 136L511.711 137.945L511.725 137.942L511.246 136ZM494.435 136.045C485.293 136.045 477.533 134.425 471.09 131.264L469.328 134.855C476.436 138.342 484.827 140.045 494.435 140.045V136.045ZM471.09 131.264C464.595 128.078 459.691 123.852 456.291 118.612L452.935 120.789C456.779 126.714 462.273 131.394 469.328 134.855L471.09 131.264ZM456.291 118.612C452.881 113.357 451.18 107.579 451.18 101.227H447.18C447.18 108.342 449.1 114.878 452.935 120.789L456.291 118.612ZM451.18 101.227C451.18 96.5849 452.066 92.5749 453.781 89.1458L450.203 87.357C448.168 91.428 447.18 96.0685 447.18 101.227H451.18ZM453.785 89.1378C455.544 85.5789 458.014 82.2963 461.221 79.292L458.487 76.3727C454.961 79.6753 452.19 83.3387 450.199 87.3651L453.785 89.1378ZM461.221 79.292C464.5 76.2213 468.357 73.1744 472.803 70.1544L470.556 66.8456C465.968 69.9619 461.942 73.1366 458.487 76.3727L461.221 79.292ZM472.734 70.1993L502.393 51.7902L500.284 48.3916L470.625 66.8007L472.734 70.1993ZM502.403 51.7842C505.532 49.8172 507.881 47.6497 509.177 45.2134L505.645 43.3349C504.811 44.9043 503.111 46.6147 500.274 48.3976L502.403 51.7842ZM509.185 45.198C510.335 42.9897 511.009 40.8536 511.009 38.8409H507.009C507.009 39.9816 506.618 41.4677 505.637 43.3503L509.185 45.198ZM511.009 38.8409C511.009 36.204 510.019 33.8673 508.16 31.9043L505.256 34.6553C506.465 35.931 507.009 37.3017 507.009 38.8409H511.009ZM508.16 31.9043C506.095 29.7253 503.064 28.8684 499.523 28.9149L499.575 32.9146C502.511 32.876 504.252 33.5957 505.256 34.6553L508.16 31.9043ZM499.549 28.9148C497.291 28.9148 495.23 29.3478 493.436 30.2978L495.307 33.8329C496.41 33.2488 497.801 32.9148 499.549 32.9148V28.9148ZM493.477 30.2765C491.709 31.1602 490.292 32.4337 489.278 34.0884L492.689 36.1786C493.294 35.1913 494.135 34.4194 495.266 33.8542L493.477 30.2765ZM489.254 34.1293C488.277 35.811 487.833 37.749 487.833 39.8636H491.833C491.833 38.3135 492.155 37.0981 492.713 36.1378L489.254 34.1293ZM487.833 39.8636C487.833 42.7748 488.674 45.6812 490.253 48.5597L493.76 46.6363C492.441 44.2307 491.833 41.9809 491.833 39.8636H487.833ZM490.259 48.5717C491.784 51.3069 493.843 54.2216 496.413 57.3137L499.489 54.7573C497.03 51.7983 495.126 49.088 493.753 46.6243L490.259 48.5717ZM496.413 57.3137C498.93 60.3429 501.766 63.7338 504.922 67.4861L507.983 64.9117C504.831 61.164 502 57.7792 499.489 54.7573L496.413 57.3137ZM504.972 67.5437L568.381 137.345L571.342 134.655L507.933 64.8541L504.972 67.5437ZM569.861 134H534.577V138H569.861V134ZM536.031 134.626L482.849 78.376L479.942 81.124L533.124 137.374L536.031 134.626ZM482.854 78.3814C480.305 75.6651 477.466 72.324 474.338 68.3495L471.195 70.8238C474.373 74.8606 477.287 78.2951 479.937 81.1186L482.854 78.3814ZM474.344 68.3576C471.295 64.4435 468.647 60.021 466.406 55.0812L462.763 56.7341C465.124 61.9364 467.93 66.6332 471.188 70.8157L474.344 68.3576ZM466.411 55.094C464.275 50.2978 463.197 45.0591 463.197 39.3523H459.197C459.197 45.5773 460.376 51.3755 462.757 56.7214L466.411 55.094ZM463.197 39.3523C463.197 33.0409 464.709 27.3179 467.72 22.1402L464.262 20.1297C460.88 25.9463 459.197 32.3681 459.197 39.3523H463.197ZM467.72 22.1402C470.731 16.9608 474.945 12.8187 480.405 9.70461L478.423 6.23005C472.377 9.67842 467.642 14.3148 464.262 20.1297L467.72 22.1402ZM480.405 9.70461C485.811 6.62111 492.17 5.04545 499.549 5.04545V1.04545C491.586 1.04545 484.523 2.75104 478.423 6.23005L480.405 9.70461ZM499.549 5.04545C506.601 5.04545 512.55 6.49925 517.476 9.31943L519.463 5.84818C513.82 2.61722 507.156 1.04545 499.549 1.04545V5.04545ZM517.482 9.32285C522.514 12.1813 526.337 15.9564 529.003 20.6523L532.481 18.6773C529.437 13.3163 525.078 9.03747 519.457 5.84476L517.482 9.32285ZM529.009 20.6634C531.724 25.3749 533.089 30.5679 533.089 36.2841H537.089C537.089 29.898 535.555 24.0115 532.475 18.6662L529.009 20.6634ZM533.089 36.2841C533.089 42.0295 531.667 47.3758 528.815 52.3571L532.286 54.3446C535.485 48.7577 537.089 42.7262 537.089 36.2841H533.089ZM528.809 52.3677C525.988 57.3645 521.918 61.7761 516.544 65.5908L518.86 68.8524C524.651 64.741 529.147 59.9054 532.292 54.334L528.809 52.3677ZM516.547 65.5889L489.445 84.7651L491.755 88.0304L518.857 68.8542L516.547 65.5889ZM489.46 84.7546C487.226 86.3042 485.276 88.0912 483.619 90.117L486.715 92.65C488.125 90.9258 489.797 89.389 491.74 88.0409L489.46 84.7546ZM483.602 90.1385C481.765 92.447 480.93 95.3487 480.93 98.6705H484.93C484.93 96.0263 485.585 94.07 486.732 92.6286L483.602 90.1385ZM480.93 98.6705C480.93 101.461 481.583 103.969 482.985 106.099L486.326 103.899C485.427 102.534 484.93 100.823 484.93 98.6705H480.93ZM482.985 106.099C484.364 108.193 486.293 109.772 488.694 110.85L490.332 107.201C488.557 106.404 487.248 105.299 486.326 103.899L482.985 106.099ZM488.708 110.856C491.143 111.928 493.921 112.432 496.992 112.432V108.432C494.353 108.432 492.145 107.998 490.319 107.195L488.708 110.856ZM496.992 112.432C501.67 112.432 506.311 111.306 510.898 109.102L509.166 105.497C505.06 107.47 501.007 108.432 496.992 108.432V112.432ZM510.905 109.099C515.524 106.857 519.721 103.748 523.495 99.7961L520.602 97.0334C517.133 100.667 513.318 103.481 509.158 105.501L510.905 109.099ZM523.503 99.788C527.302 95.7658 530.327 91.0412 532.587 85.635L528.897 84.0923C526.81 89.0838 524.04 93.3933 520.595 97.0415L523.503 99.788ZM532.584 85.6424C534.913 80.1341 536.066 74.1563 536.066 67.733H532.066C532.066 73.6675 531.003 79.1103 528.9 84.0848L532.584 85.6424ZM534.066 69.733H561.935V65.733H534.066V69.733ZM559.935 67.733C559.935 75.1787 559.161 82.3398 557.619 89.2201L561.522 90.0953C563.132 82.913 563.935 75.4577 563.935 67.733H559.935ZM557.619 89.22C556.086 96.0558 553.626 102.29 550.248 107.934L553.68 109.989C557.29 103.957 559.901 97.322 561.522 90.0953L557.619 89.22ZM550.248 107.934C546.901 113.525 542.494 118.241 537.008 122.09L539.305 125.365C545.24 121.202 550.037 116.074 553.68 109.989L550.248 107.934ZM537.262 121.938C535.484 122.828 533.749 123.674 532.057 124.478L533.773 128.091C535.491 127.275 537.25 126.417 539.051 125.516L537.262 121.938ZM532.057 124.478C530.34 125.293 528.581 126.152 526.779 127.052L528.568 130.63C530.347 129.741 532.082 128.894 533.773 128.091L532.057 124.478ZM526.593 127.158C521.526 130.413 516.252 132.707 510.768 134.058L511.725 137.942C517.661 136.48 523.339 134.002 528.755 130.524L526.593 127.158ZM510.782 134.055C505.213 135.384 499.766 136.045 494.435 136.045V140.045C500.099 140.045 505.859 139.343 511.711 137.945L510.782 134.055Z" fill="black" mask="url(#path-1-outside-1_270_109)"/>
<path d="M83.6289 104.576H64.0404C63.5335 104.576 63.0273 104.537 62.5263 104.461L43.9202 101.611C41.1015 101.179 38.2325 101.971 36.0347 103.788L30.6285 108.257C28.3305 110.157 27 112.983 27 115.964V128.869V135.847C27 137.671 29.1196 138.677 30.5327 137.522C31.7018 136.567 33.4648 137.073 33.9504 138.502L36.6051 146.316C38.0965 150.706 44.3052 150.706 45.7966 146.316C47.3709 141.682 54.0361 142.026 55.1246 146.798L60.6171 170.872C62.0735 177.255 71.3577 176.643 71.9631 170.124L73.6309 152.163C73.9201 149.049 78.3441 148.731 79.0755 151.772L79.7426 154.546C80.3758 157.178 84.2257 156.828 84.3728 154.124L84.7486 147.216C84.8356 145.618 87.1179 145.424 87.4734 146.985C87.8502 148.639 90.3013 148.287 90.1976 146.594L90.0621 144.379C90.0489 144.164 90.0805 143.948 90.1549 143.745L90.2952 143.363C91.1698 140.982 94.6441 141.34 95.0145 143.85C95.4572 146.85 99.8838 146.525 99.8838 143.492V135.805C99.8838 134.409 100.842 133.197 102.2 132.874L103.503 132.565C103.648 132.531 103.788 132.479 103.921 132.411C105.019 131.85 106.349 132.486 106.602 133.693L110.562 152.56C110.834 153.859 112.618 154.029 113.132 152.806C113.201 152.64 113.237 152.462 113.237 152.283V134.118C113.237 132.672 113.642 131.255 114.407 130.028L115.518 128.246C116.638 126.447 118.795 125.581 120.849 126.106L122.571 126.545C124.774 127.108 126.916 125.444 126.916 123.17V121.073C126.916 119.044 129.241 117.896 130.852 119.13L130.995 119.239C132.388 120.306 134.416 119.516 134.719 117.788L135.498 113.361C135.681 112.319 137.114 112.168 137.51 113.149C137.818 113.914 138.846 114.043 139.334 113.379L139.618 112.991C139.859 112.663 139.935 112.242 139.824 111.85L137.251 102.764C136.535 100.236 134.854 98.0921 132.57 96.7942L125.574 92.8179C123.911 91.873 121.82 92.1666 120.482 93.533C119.329 94.7107 117.595 95.1075 116.044 94.5486L108.418 91.8C105.576 90.7756 102.418 92.0544 101.089 94.7679C100.862 95.2313 100.576 95.6631 100.237 96.0522L97.7588 98.8993C96.5999 100.231 95.1093 101.232 93.4384 101.8L86.8512 104.043C85.8136 104.396 84.725 104.576 83.6289 104.576Z" fill="#FFB000"/>
<path d="M210.413 34.7683L199.132 39.4372C197.276 40.2053 195.138 39.4786 194.135 37.7384L193.36 36.3952C192.235 34.4446 189.454 34.3524 188.202 36.2242L188.123 36.3434C187.036 37.968 184.694 38.0945 183.439 36.5963C182.2 35.1168 179.894 35.2183 178.789 36.8009L178.105 37.7822C176.971 39.4063 174.702 39.7367 173.152 38.5034C171.098 36.8683 168.043 38.0514 167.626 40.6436L165.494 53.8957C165.467 54.0608 165.428 54.2238 165.377 54.3832C164.246 57.9192 159.057 57.2579 158.849 53.5514L158 38.4068V18.2373V10.5254V6.20579C158 5.24538 158.621 4.39536 159.537 4.10397C159.753 4.03507 159.979 4 160.206 4H172.907H203.963L230.36 4.29661H254.274C255.691 4.46583 256.758 5.66776 256.758 7.09507L256.758 8.74576L256.758 18.2373V32.1613V53.8305L257.035 58.3231C257.219 61.3107 253.089 62.2733 251.933 59.5125C251.838 59.2849 251.775 59.0452 251.746 58.8003L249.195 37.366C248.93 35.1361 246.699 33.6996 244.559 34.3808L244.035 34.5477C243.434 34.739 242.938 35.1693 242.663 35.7374L241.61 37.9174C240.937 39.3095 238.868 38.9847 238.654 37.4534C238.46 36.0664 236.681 35.6142 235.848 36.7405L233.134 40.4133C231.855 42.143 229.318 42.2818 227.859 40.702L224.024 36.5512C223.074 35.5221 221.354 36.1948 221.354 37.5957C221.354 37.7402 221.334 37.884 221.294 38.0229L221.227 38.2525C220.234 41.693 215.203 41.0935 214.9 37.5252C214.714 35.3321 212.447 33.9266 210.413 34.7683Z" fill="#FFB000"/>
<path d="M496.144 65.5345L495.124 55.8673C494.997 54.6683 493.368 54.4056 492.871 55.5042C492.366 56.6215 490.703 56.3258 490.614 55.1029L489.903 45.3257C489.857 44.6958 488.99 44.563 488.758 45.1502C488.489 45.8307 487.467 45.5172 487.625 44.8028L489.635 35.7554C489.687 35.5227 489.8 35.3083 489.963 35.1345L491.177 33.84C491.847 33.1264 492.644 32.5449 493.529 32.1259L493.89 31.9548C495.216 31.3261 496.666 31 498.135 31H500.238H502.053C502.902 31 503.745 31.1301 504.554 31.3856L504.921 31.5014C506.305 31.9388 507.522 32.7911 508.406 33.9429L508.774 34.4233C509.266 35.0638 509.586 35.8192 509.704 36.6178L511.556 49.1239C511.689 50.0217 510.577 50.5468 509.968 49.8737C509.395 49.2395 508.342 49.6657 508.371 50.5203L508.491 54.043C508.541 55.5136 506.426 55.7986 506.085 54.3672C505.772 53.0533 503.872 53.147 503.69 54.4854L502.173 65.6255C502.122 66.0051 501.999 66.3714 501.811 66.7053C500.36 69.2834 496.455 68.4765 496.144 65.5345Z" fill="#FFB000"/>
<path d="M547.579 65H540.278H536.627H534.801C533.793 65 532.976 65.8173 532.976 66.8254V67.2362V68.5344C532.976 69.1584 532.918 69.781 532.802 70.3942L532.341 72.8268L531.713 75.59C531.709 75.6113 531.702 75.6322 531.693 75.6523C531.511 76.0886 528.456 82.7886 528.3 83.2349C528.009 84.0644 527.666 85.0584 527.262 86.2441C524.682 93.8156 526.615 97.7981 528.132 99.5803C528.749 100.305 529.774 99.9637 530.093 99.0677C530.663 97.4667 533.026 97.8353 533.081 99.5338L533.258 105.01C533.315 106.753 535.798 107.014 536.216 105.321C536.623 103.675 539.019 103.859 539.169 105.548L539.835 113.038C540.083 115.833 544.067 116.097 544.682 113.359C545.234 110.901 548.687 110.766 549.429 113.173L551.587 120.172C552.143 121.974 554.825 121.414 554.614 119.54L553.251 107.438C553.103 106.128 554.823 105.512 555.54 106.618L555.636 106.765C556.361 107.883 558.098 107.185 557.848 105.876L557.74 105.31C557.548 104.302 558.778 103.655 559.5 104.385L559.831 104.719C560.285 105.178 561.067 104.934 561.18 104.298C561.309 103.571 562.274 103.397 562.649 104.033L563.139 104.866C563.775 105.946 565.436 105.376 565.274 104.133L563.46 90.1575L562.566 83.4604C562.485 82.8612 563.29 82.5903 563.589 83.116C563.9 83.6636 564.738 83.3436 564.605 82.7282L563.601 78.0896C563.481 77.5345 564.248 77.2591 564.508 77.7638C564.764 78.2601 565.518 78.0034 565.419 77.4539L563.494 66.863C563.472 66.7393 563.46 66.614 563.46 66.4883V65.8386V65.4193C563.46 65.1877 563.273 65 563.041 65H560.996H558.532H554.881H547.579Z" fill="#FFB000"/>
</svg>
