<svg width="578" height="180" viewBox="0 0 578 180" fill="none" xmlns="http://www.w3.org/2000/svg">
<mask id="path-1-outside-1_246_132" maskUnits="userSpaceOnUse" x="0.5" y="-0.5" width="574" height="139" fill="black">
<rect fill="white" x="0.5" y="-0.5" width="574" height="139"/>
<path d="M80.9032 3.59091H116.443V87.4545C116.443 97.4261 114.057 106.055 109.284 113.342C104.554 120.587 97.9487 126.19 89.4686 130.153C80.9885 134.074 71.1447 136.034 59.9373 136.034C48.6447 136.034 38.7583 134.074 30.2782 130.153C21.7981 126.19 15.193 120.587 10.4629 113.342C5.77539 106.055 3.43164 97.4261 3.43164 87.4545V3.59091H38.9714V84.3864C38.9714 88.4347 39.8663 92.0568 41.6561 95.2528C43.4458 98.4062 45.9174 100.878 49.0708 102.668C52.2669 104.457 55.889 105.352 59.9373 105.352C64.0282 105.352 67.6504 104.457 70.8038 102.668C73.9572 100.878 76.4288 98.4062 78.2186 95.2528C80.0083 92.0568 80.9032 88.4347 80.9032 84.3864V3.59091ZM168.874 3.59091V134.5H133.334V3.59091H168.874ZM271.945 134.5H221.576V3.59091H271.434C284.9 3.59091 296.534 6.21165 306.335 11.4531C316.178 16.652 323.764 24.152 329.09 33.9531C334.46 43.7116 337.144 55.4091 337.144 69.0455C337.144 82.6818 334.481 94.4006 329.154 104.202C323.828 113.96 316.285 121.46 306.526 126.702C296.768 131.901 285.241 134.5 271.945 134.5ZM257.116 104.33H270.667C277.144 104.33 282.663 103.286 287.222 101.197C291.825 99.1094 295.319 95.5085 297.705 90.3949C300.134 85.2812 301.349 78.1648 301.349 69.0455C301.349 59.9261 300.113 52.8097 297.642 47.696C295.213 42.5824 291.633 38.9815 286.903 36.8935C282.215 34.8054 276.463 33.7614 269.644 33.7614H257.116V104.33ZM353.588 134.5V3.59091H447.934V32.2273H389.128V54.7273H443.077V83.3636H389.128V105.864H447.679V134.5H353.588ZM536.129 44.5C535.788 40.2386 534.19 36.9148 531.335 34.5284C528.522 32.142 524.24 30.9489 518.487 30.9489C514.822 30.9489 511.818 31.3963 509.474 32.2912C507.173 33.1435 505.468 34.3153 504.36 35.8068C503.252 37.2983 502.677 39.0028 502.634 40.9205C502.549 42.4972 502.826 43.9247 503.465 45.2031C504.147 46.4389 505.213 47.5682 506.661 48.5909C508.11 49.571 509.964 50.4659 512.222 51.2756C514.481 52.0852 517.166 52.8097 520.276 53.4489L531.015 55.75C538.259 57.2841 544.46 59.3082 549.616 61.8224C554.772 64.3366 558.991 67.2983 562.272 70.7074C565.553 74.0739 567.961 77.8665 569.495 82.0852C571.072 86.304 571.882 90.9062 571.924 95.892C571.882 104.5 569.73 111.787 565.468 117.753C561.207 123.719 555.113 128.257 547.187 131.368C539.303 134.479 529.822 136.034 518.742 136.034C507.365 136.034 497.436 134.351 488.955 130.984C480.518 127.618 473.955 122.44 469.268 115.452C464.623 108.42 462.279 99.429 462.237 88.4773H495.987C496.2 92.483 497.201 95.8494 498.991 98.5767C500.781 101.304 503.295 103.371 506.534 104.777C509.815 106.183 513.714 106.886 518.231 106.886C522.024 106.886 525.198 106.418 527.755 105.48C530.312 104.543 532.251 103.243 533.572 101.581C534.893 99.919 535.575 98.0227 535.617 95.892C535.575 93.8892 534.914 92.142 533.636 90.6506C532.4 89.1165 530.355 87.7528 527.499 86.5597C524.644 85.3239 520.788 84.1733 515.93 83.108L502.89 80.2955C491.299 77.7812 482.159 73.5838 475.468 67.7031C468.82 61.7798 465.518 53.7045 465.561 43.4773C465.518 35.1676 467.734 27.902 472.208 21.6804C476.725 15.4162 482.968 10.5369 490.937 7.04261C498.948 3.54829 508.132 1.80113 518.487 1.80113C529.055 1.80113 538.195 3.5696 545.909 7.10653C553.622 10.6435 559.566 15.6293 563.742 22.0639C567.961 28.456 570.092 35.9347 570.134 44.5H536.129Z"/>
</mask>
<path d="M80.9032 3.59091H116.443V87.4545C116.443 97.4261 114.057 106.055 109.284 113.342C104.554 120.587 97.9487 126.19 89.4686 130.153C80.9885 134.074 71.1447 136.034 59.9373 136.034C48.6447 136.034 38.7583 134.074 30.2782 130.153C21.7981 126.19 15.193 120.587 10.4629 113.342C5.77539 106.055 3.43164 97.4261 3.43164 87.4545V3.59091H38.9714V84.3864C38.9714 88.4347 39.8663 92.0568 41.6561 95.2528C43.4458 98.4062 45.9174 100.878 49.0708 102.668C52.2669 104.457 55.889 105.352 59.9373 105.352C64.0282 105.352 67.6504 104.457 70.8038 102.668C73.9572 100.878 76.4288 98.4062 78.2186 95.2528C80.0083 92.0568 80.9032 88.4347 80.9032 84.3864V3.59091ZM168.874 3.59091V134.5H133.334V3.59091H168.874ZM271.945 134.5H221.576V3.59091H271.434C284.9 3.59091 296.534 6.21165 306.335 11.4531C316.178 16.652 323.764 24.152 329.09 33.9531C334.46 43.7116 337.144 55.4091 337.144 69.0455C337.144 82.6818 334.481 94.4006 329.154 104.202C323.828 113.96 316.285 121.46 306.526 126.702C296.768 131.901 285.241 134.5 271.945 134.5ZM257.116 104.33H270.667C277.144 104.33 282.663 103.286 287.222 101.197C291.825 99.1094 295.319 95.5085 297.705 90.3949C300.134 85.2812 301.349 78.1648 301.349 69.0455C301.349 59.9261 300.113 52.8097 297.642 47.696C295.213 42.5824 291.633 38.9815 286.903 36.8935C282.215 34.8054 276.463 33.7614 269.644 33.7614H257.116V104.33ZM353.588 134.5V3.59091H447.934V32.2273H389.128V54.7273H443.077V83.3636H389.128V105.864H447.679V134.5H353.588ZM536.129 44.5C535.788 40.2386 534.19 36.9148 531.335 34.5284C528.522 32.142 524.24 30.9489 518.487 30.9489C514.822 30.9489 511.818 31.3963 509.474 32.2912C507.173 33.1435 505.468 34.3153 504.36 35.8068C503.252 37.2983 502.677 39.0028 502.634 40.9205C502.549 42.4972 502.826 43.9247 503.465 45.2031C504.147 46.4389 505.213 47.5682 506.661 48.5909C508.11 49.571 509.964 50.4659 512.222 51.2756C514.481 52.0852 517.166 52.8097 520.276 53.4489L531.015 55.75C538.259 57.2841 544.46 59.3082 549.616 61.8224C554.772 64.3366 558.991 67.2983 562.272 70.7074C565.553 74.0739 567.961 77.8665 569.495 82.0852C571.072 86.304 571.882 90.9062 571.924 95.892C571.882 104.5 569.73 111.787 565.468 117.753C561.207 123.719 555.113 128.257 547.187 131.368C539.303 134.479 529.822 136.034 518.742 136.034C507.365 136.034 497.436 134.351 488.955 130.984C480.518 127.618 473.955 122.44 469.268 115.452C464.623 108.42 462.279 99.429 462.237 88.4773H495.987C496.2 92.483 497.201 95.8494 498.991 98.5767C500.781 101.304 503.295 103.371 506.534 104.777C509.815 106.183 513.714 106.886 518.231 106.886C522.024 106.886 525.198 106.418 527.755 105.48C530.312 104.543 532.251 103.243 533.572 101.581C534.893 99.919 535.575 98.0227 535.617 95.892C535.575 93.8892 534.914 92.142 533.636 90.6506C532.4 89.1165 530.355 87.7528 527.499 86.5597C524.644 85.3239 520.788 84.1733 515.93 83.108L502.89 80.2955C491.299 77.7812 482.159 73.5838 475.468 67.7031C468.82 61.7798 465.518 53.7045 465.561 43.4773C465.518 35.1676 467.734 27.902 472.208 21.6804C476.725 15.4162 482.968 10.5369 490.937 7.04261C498.948 3.54829 508.132 1.80113 518.487 1.80113C529.055 1.80113 538.195 3.5696 545.909 7.10653C553.622 10.6435 559.566 15.6293 563.742 22.0639C567.961 28.456 570.092 35.9347 570.134 44.5H536.129Z" fill="url(#paint0_linear_246_132)"/>
<path d="M80.9032 3.5909V1.5909H78.9032V3.5909H80.9032ZM116.443 3.5909H118.443V1.5909H116.443V3.5909ZM109.284 113.342L107.611 112.247L107.609 112.249L109.284 113.342ZM89.4686 130.153L90.3079 131.969L90.3153 131.965L89.4686 130.153ZM30.2782 130.153L29.4315 131.965L29.439 131.969L30.2782 130.153ZM10.4629 113.342L8.78081 114.424L8.78826 114.436L10.4629 113.342ZM3.43164 3.5909V1.5909H1.43164V3.5909H3.43164ZM38.9714 3.5909H40.9714V1.5909H38.9714V3.5909ZM41.6561 95.2528L39.911 96.2301L39.9167 96.2401L41.6561 95.2528ZM49.0709 102.668L48.0836 104.407L48.0936 104.413L49.0709 102.668ZM70.8038 102.668L71.791 104.407L70.8038 102.668ZM78.2186 95.2528L79.958 96.2401L79.9636 96.23L78.2186 95.2528ZM80.9032 5.5909H116.443V1.5909H80.9032V5.5909ZM114.443 3.5909V87.4545H118.443V3.5909H114.443ZM114.443 87.4545C114.443 97.0947 112.141 105.331 107.611 112.247L110.957 114.438C115.973 106.78 118.443 97.7575 118.443 87.4545H114.443ZM107.609 112.249C103.099 119.156 96.7932 124.523 88.6218 128.342L90.3153 131.965C99.1042 127.858 106.008 122.018 110.959 114.436L107.609 112.249ZM88.6293 128.338C80.4595 132.115 70.9118 134.034 59.9373 134.034V138.034C71.3776 138.034 81.5174 136.033 90.3079 131.969L88.6293 128.338ZM59.9373 134.034C48.8751 134.034 39.2855 132.114 31.1175 128.338L29.439 131.969C38.2312 136.034 48.4143 138.034 59.9373 138.034V134.034ZM31.125 128.342C22.9537 124.523 16.6473 119.156 12.1375 112.249L8.78826 114.436C13.7387 122.018 20.6426 127.858 29.4315 131.965L31.125 128.342ZM12.1449 112.26C7.69492 105.343 5.43164 97.1017 5.43164 87.4545H1.43164C1.43164 97.7505 3.85587 106.768 8.78085 114.424L12.1449 112.26ZM5.43164 87.4545V3.5909H1.43164V87.4545H5.43164ZM3.43164 5.5909H38.9714V1.5909H3.43164V5.5909ZM36.9714 3.5909V84.3864H40.9714V3.5909H36.9714ZM36.9714 84.3864C36.9714 88.74 37.937 92.7049 39.9111 96.23L43.4011 94.2756C41.7956 91.4087 40.9714 88.1293 40.9714 84.3864H36.9714ZM39.9167 96.2401C41.8847 99.7075 44.6162 102.439 48.0836 104.407L50.0581 100.928C47.2187 99.3167 45.007 97.105 43.3954 94.2656L39.9167 96.2401ZM48.0936 104.413C51.6188 106.387 55.5837 107.352 59.9373 107.352V103.352C56.1944 103.352 52.915 102.528 50.0481 100.923L48.0936 104.413ZM59.9373 107.352C64.3291 107.352 68.2996 106.389 71.791 104.407L69.8166 100.928C67.0012 102.526 63.7273 103.352 59.9373 103.352V107.352ZM71.791 104.407C75.2584 102.439 77.9899 99.7075 79.9579 96.2401L76.4792 94.2656C74.8677 97.105 72.656 99.3167 69.8166 100.928L71.791 104.407ZM79.9636 96.23C81.9377 92.7049 82.9032 88.74 82.9032 84.3864H78.9032C78.9032 88.1293 78.079 91.4087 76.4736 94.2756L79.9636 96.23ZM82.9032 84.3864V3.5909H78.9032V84.3864H82.9032ZM168.874 3.5909H170.874V1.5909H168.874V3.5909ZM168.874 134.5V136.5H170.874V134.5H168.874ZM133.334 134.5H131.334V136.5H133.334V134.5ZM133.334 3.5909V1.5909H131.334V3.5909H133.334ZM166.874 3.5909V134.5H170.874V3.5909H166.874ZM168.874 132.5H133.334V136.5H168.874V132.5ZM135.334 134.5V3.5909H131.334V134.5H135.334ZM133.334 5.5909H168.874V1.5909H133.334V5.5909ZM221.576 134.5H219.576V136.5H221.576V134.5ZM221.576 3.5909V1.5909H219.576V3.5909H221.576ZM306.335 11.4531L305.392 13.2168L305.401 13.2216L306.335 11.4531ZM329.09 33.9531L327.333 34.9082L327.338 34.9173L329.09 33.9531ZM329.154 104.202L330.91 105.16L330.912 105.157L329.154 104.202ZM306.526 126.702L307.467 128.467L307.473 128.464L306.526 126.702ZM257.116 104.33H255.116V106.33H257.116V104.33ZM287.222 101.197L286.396 99.3761L286.39 99.379L287.222 101.197ZM297.705 90.3949L295.899 89.5367L295.893 89.5491L297.705 90.3949ZM297.642 47.696L295.835 48.5542L295.841 48.5664L297.642 47.696ZM286.903 36.8935L286.089 38.7204L286.095 38.7231L286.903 36.8935ZM257.116 33.7614V31.7614H255.116V33.7614H257.116ZM271.945 132.5H221.576V136.5H271.945V132.5ZM223.576 134.5V3.5909H219.576V134.5H223.576ZM221.576 5.5909H271.434V1.5909H221.576V5.5909ZM271.434 5.5909C284.64 5.5909 295.936 8.16004 305.392 13.2168L307.278 9.68948C297.131 4.26325 285.16 1.5909 271.434 1.5909V5.5909ZM305.401 13.2216C314.895 18.236 322.194 25.4526 327.333 34.9081L330.848 32.9981C325.333 22.8513 317.462 15.068 307.269 9.68462L305.401 13.2216ZM327.338 34.9173C332.512 44.3211 335.144 55.6713 335.144 69.0455H339.144C339.144 55.1469 336.407 43.1022 330.843 32.989L327.338 34.9173ZM335.144 69.0455C335.144 82.4217 332.533 93.7971 327.397 103.247L330.912 105.157C336.429 95.0041 339.144 82.9419 339.144 69.0455H335.144ZM327.399 103.243C322.257 112.663 314.995 119.883 305.58 124.94L307.473 128.464C317.575 123.038 325.398 115.258 330.91 105.16L327.399 103.243ZM305.586 124.937C296.17 129.953 284.979 132.5 271.945 132.5V136.5C285.503 136.5 297.366 133.848 307.467 128.467L305.586 124.937ZM257.116 106.33H270.667V102.33H257.116V106.33ZM270.667 106.33C277.351 106.33 283.17 105.253 288.055 103.016L286.39 99.379C282.156 101.318 276.937 102.33 270.667 102.33V106.33ZM288.049 103.019C293.137 100.71 296.955 96.7328 299.518 91.2407L295.893 89.5491C293.683 94.2843 290.513 97.5085 286.396 99.3761L288.049 103.019ZM299.512 91.253C302.123 85.7564 303.349 78.3008 303.349 69.0455H299.349C299.349 78.0287 298.146 84.8061 295.899 89.5368L299.512 91.253ZM303.349 69.0455C303.349 59.787 302.101 52.3264 299.442 46.8257L295.841 48.5664C298.125 53.2929 299.349 60.0653 299.349 69.0455H303.349ZM299.448 46.8379C296.834 41.3354 292.922 37.3644 287.711 35.0638L286.095 38.7231C290.344 40.5986 293.591 43.8294 295.835 48.5541L299.448 46.8379ZM287.717 35.0665C282.704 32.8334 276.655 31.7614 269.644 31.7614V35.7614C276.27 35.7614 281.727 36.7774 286.089 38.7204L287.717 35.0665ZM269.644 31.7614H257.116V35.7614H269.644V31.7614ZM255.116 33.7614V104.33H259.116V33.7614H255.116ZM353.588 134.5H351.588V136.5H353.588V134.5ZM353.588 3.5909V1.5909H351.588V3.5909H353.588ZM447.934 3.5909H449.934V1.5909H447.934V3.5909ZM447.934 32.2273V34.2273H449.934V32.2273H447.934ZM389.128 32.2273V30.2273H387.128V32.2273H389.128ZM389.128 54.7273H387.128V56.7273H389.128V54.7273ZM443.077 54.7273H445.077V52.7273H443.077V54.7273ZM443.077 83.3636V85.3636H445.077V83.3636H443.077ZM389.128 83.3636V81.3636H387.128V83.3636H389.128ZM389.128 105.864H387.128V107.864H389.128V105.864ZM447.679 105.864H449.679V103.864H447.679V105.864ZM447.679 134.5V136.5H449.679V134.5H447.679ZM355.588 134.5V3.5909H351.588V134.5H355.588ZM353.588 5.5909H447.934V1.5909H353.588V5.5909ZM445.934 3.5909V32.2273H449.934V3.5909H445.934ZM447.934 30.2273H389.128V34.2273H447.934V30.2273ZM387.128 32.2273V54.7273H391.128V32.2273H387.128ZM389.128 56.7273H443.077V52.7273H389.128V56.7273ZM441.077 54.7273V83.3636H445.077V54.7273H441.077ZM443.077 81.3636H389.128V85.3636H443.077V81.3636ZM387.128 83.3636V105.864H391.128V83.3636H387.128ZM389.128 107.864H447.679V103.864H389.128V107.864ZM445.679 105.864V134.5H449.679V105.864H445.679ZM447.679 132.5H353.588V136.5H447.679V132.5ZM536.129 44.5L534.135 44.6595L534.282 46.5H536.129V44.5ZM531.335 34.5284L530.041 36.0534L530.046 36.0582L530.052 36.063L531.335 34.5284ZM509.474 32.2912L510.169 34.1667L510.178 34.1632L510.187 34.1596L509.474 32.2912ZM504.36 35.8068L502.755 34.6142V34.6142L504.36 35.8068ZM502.634 40.9205L504.632 41.0284L504.633 40.9967L504.634 40.9649L502.634 40.9205ZM503.465 45.2031L501.677 46.0975L501.695 46.1338L501.714 46.1693L503.465 45.2031ZM506.661 48.5909L505.508 50.2248L505.524 50.2363L505.541 50.2475L506.661 48.5909ZM520.276 53.4489L520.695 51.4933L520.687 51.4915L520.679 51.4898L520.276 53.4489ZM531.015 55.75L530.596 57.7056L530.601 57.7066L531.015 55.75ZM562.272 70.7074L560.831 72.0944L560.84 72.1034L562.272 70.7074ZM569.495 82.0852L567.616 82.7687L567.619 82.7771L567.622 82.7854L569.495 82.0852ZM571.924 95.892L573.924 95.9019L573.924 95.8884L573.924 95.875L571.924 95.892ZM565.468 117.753L567.096 118.915L565.468 117.753ZM547.187 131.368L546.456 129.506L546.453 129.507L547.187 131.368ZM488.955 130.984L488.214 132.842L488.217 132.843L488.955 130.984ZM469.268 115.452L467.599 116.554L467.607 116.566L469.268 115.452ZM462.237 88.4773V86.4773H460.229L460.237 88.4851L462.237 88.4773ZM495.987 88.4773L497.984 88.371L497.883 86.4773H495.987V88.4773ZM498.991 98.5767L497.319 99.674L498.991 98.5767ZM506.534 104.777L505.737 106.612L505.746 106.615L506.534 104.777ZM527.755 105.48L528.444 107.358L527.755 105.48ZM533.572 101.581L535.138 102.825L533.572 101.581ZM535.617 95.892L537.617 95.932L537.618 95.8908L537.617 95.8495L535.617 95.892ZM533.636 90.6506L532.078 91.9052L532.097 91.929L532.117 91.9521L533.636 90.6506ZM527.499 86.5597L526.705 88.3951L526.717 88.4001L526.728 88.405L527.499 86.5597ZM515.93 83.108L516.358 81.1544L516.352 81.1529L515.93 83.108ZM502.89 80.2955L502.466 82.25L502.468 82.2505L502.89 80.2955ZM475.468 67.7031L474.138 69.1964L474.148 69.2053L475.468 67.7031ZM465.561 43.4773L467.561 43.4856L467.561 43.4763L467.561 43.467L465.561 43.4773ZM472.208 21.6804L470.586 20.5106L470.585 20.5127L472.208 21.6804ZM490.937 7.04261L490.137 5.2094L490.134 5.21097L490.937 7.04261ZM545.909 7.10653L545.075 8.9245L545.909 7.10653ZM563.742 22.0639L562.065 23.1527L562.069 23.1592L562.073 23.1656L563.742 22.0639ZM570.134 44.5V46.5H572.144L572.134 44.4901L570.134 44.5ZM538.122 44.3405C537.746 39.6306 535.947 35.7766 532.617 32.9938L530.052 36.063C532.433 38.053 533.83 40.8467 534.135 44.6595L538.122 44.3405ZM532.629 33.0034C529.3 30.1794 524.461 28.9489 518.487 28.9489V32.9489C524.018 32.9489 527.744 34.1047 530.041 36.0534L532.629 33.0034ZM518.487 28.9489C514.68 28.9489 511.411 29.4106 508.76 30.4227L510.187 34.1596C512.224 33.382 514.963 32.9489 518.487 32.9489V28.9489ZM508.779 30.4157C506.229 31.3602 504.157 32.7264 502.755 34.6142L505.966 36.9995C506.779 35.9043 508.116 34.9267 510.169 34.1667L508.779 30.4157ZM502.755 34.6142C501.391 36.4496 500.686 38.5584 500.635 40.876L504.634 40.9649C504.668 39.4473 505.113 38.147 505.966 36.9995L502.755 34.6142ZM500.637 40.8125C500.535 42.6985 500.866 44.477 501.677 46.0975L505.254 44.3087C504.786 43.3724 504.563 42.2958 504.632 41.0284L500.637 40.8125ZM501.714 46.1693C502.575 47.7291 503.874 49.0712 505.508 50.2248L507.815 46.957C506.551 46.0652 505.72 45.1488 505.217 44.237L501.714 46.1693ZM505.541 50.2475C507.169 51.3487 509.185 52.3114 511.548 53.1582L512.897 49.3929C510.742 48.6204 509.052 47.7934 507.782 46.9343L505.541 50.2475ZM511.548 53.1582C513.918 54.008 516.698 54.7554 519.874 55.4079L520.679 51.4898C517.633 50.8639 515.044 50.1624 512.897 49.3929L511.548 53.1582ZM519.857 55.4045L530.596 57.7056L531.434 53.7944L520.695 51.4933L519.857 55.4045ZM530.601 57.7066C537.729 59.2161 543.766 61.1948 548.739 63.6201L550.492 60.0248C545.154 57.4216 538.79 55.3521 531.429 53.7934L530.601 57.7066ZM548.739 63.6201C553.728 66.0527 557.743 68.8858 560.831 72.0943L563.713 69.3204C560.239 65.7108 555.816 62.6206 550.492 60.0248L548.739 63.6201ZM560.84 72.1034C563.933 75.2766 566.183 78.8291 567.616 82.7687L571.375 81.4017C569.739 76.9039 567.174 72.8712 563.704 69.3114L560.84 72.1034ZM567.622 82.7854C569.109 86.7634 569.883 91.1318 569.924 95.9091L573.924 95.875C573.88 90.6807 573.035 85.8445 571.369 81.3851L567.622 82.7854ZM569.924 95.8821C569.883 104.151 567.822 111.017 563.841 116.59L567.096 118.915C571.637 112.557 573.88 104.849 573.924 95.9019L569.924 95.8821ZM563.841 116.59C559.839 122.193 554.082 126.513 546.456 129.506L547.918 133.23C556.145 130.001 562.575 125.244 567.096 118.915L563.841 116.59ZM546.453 129.507C538.863 132.503 529.644 134.034 518.742 134.034V138.034C530 138.034 539.744 136.455 547.921 133.228L546.453 129.507ZM518.742 134.034C507.557 134.034 497.889 132.379 489.693 129.125L488.217 132.843C496.983 136.323 507.172 138.034 518.742 138.034V134.034ZM489.697 129.127C481.602 125.897 475.374 120.964 470.929 114.338L467.607 116.566C472.537 123.916 479.434 129.339 488.214 132.842L489.697 129.127ZM470.937 114.349C466.562 107.727 464.278 99.147 464.237 88.4695L460.237 88.4851C460.28 99.711 462.684 109.114 467.599 116.554L470.937 114.349ZM462.237 90.4773H495.987V86.4773H462.237V90.4773ZM493.99 88.5835C494.217 92.8618 495.295 96.59 497.319 99.674L500.663 97.4794C499.107 95.1088 498.182 92.1041 497.984 88.371L493.99 88.5835ZM497.319 99.674C499.34 102.754 502.172 105.063 505.737 106.612L507.33 102.942C504.418 101.678 502.221 99.8539 500.663 97.4794L497.319 99.674ZM505.746 106.615C509.333 108.152 513.512 108.886 518.231 108.886V104.886C513.916 104.886 510.297 104.214 507.321 102.939L505.746 106.615ZM518.231 108.886C522.173 108.886 525.598 108.401 528.444 107.358L527.067 103.602C524.798 104.434 521.874 104.886 518.231 104.886V108.886ZM528.444 107.358C531.249 106.329 533.532 104.846 535.138 102.825L532.006 100.336C530.97 101.64 529.375 102.756 527.067 103.602L528.444 107.358ZM535.138 102.825C536.732 100.819 537.566 98.4991 537.617 95.932L533.618 95.8521C533.584 97.5463 533.053 99.0191 532.006 100.336L535.138 102.825ZM537.617 95.8495C537.565 93.394 536.74 91.1994 535.154 89.349L532.117 91.9521C533.088 93.0847 533.585 94.3845 533.618 95.9346L537.617 95.8495ZM535.193 89.3959C533.662 87.4954 531.274 85.9696 528.271 84.7143L526.728 88.405C529.435 89.5361 531.138 90.7375 532.078 91.9052L535.193 89.3959ZM528.294 84.7242C525.272 83.4164 521.277 82.233 516.358 81.1544L515.501 85.0615C520.299 86.1136 524.016 87.2313 526.705 88.3951L528.294 84.7242ZM516.352 81.1529L503.312 78.3404L502.468 82.2505L515.508 85.063L516.352 81.1529ZM503.314 78.3409C491.949 75.8758 483.153 71.7948 476.789 66.2009L474.148 69.2053C481.164 75.3728 490.649 79.6867 502.466 82.25L503.314 78.3409ZM476.799 66.2099C470.645 60.7266 467.52 53.2339 467.561 43.4856L463.561 43.4689C463.516 54.1752 466.996 62.8331 474.138 69.1964L476.799 66.2099ZM467.561 43.467C467.52 35.5423 469.625 28.6973 473.832 22.8481L470.585 20.5127C465.842 27.1066 463.516 34.7929 463.561 43.4875L467.561 43.467ZM473.831 22.8502C478.113 16.9111 484.056 12.2436 491.74 8.87425L490.134 5.21097C481.88 8.8302 475.338 13.9212 470.586 20.5106L473.831 22.8502ZM491.737 8.87582C499.454 5.50991 508.357 3.80113 518.487 3.80113V-0.198868C507.906 -0.198868 498.443 1.58667 490.137 5.2094L491.737 8.87582ZM518.487 3.80113C528.836 3.80113 537.679 5.53317 545.075 8.9245L546.742 5.28856C538.712 1.60602 529.274 -0.198868 518.487 -0.198868V3.80113ZM545.075 8.9245C552.481 12.3207 558.117 17.0695 562.065 23.1527L565.42 20.9751C561.016 14.1891 554.762 8.96623 546.742 5.28856L545.075 8.9245ZM562.073 23.1656C566.053 29.196 568.094 36.2854 568.134 44.5099L572.134 44.4901C572.09 35.584 569.869 27.7159 565.412 20.9622L562.073 23.1656ZM570.134 42.5H536.129V46.5H570.134V42.5Z" fill="url(#paint1_radial_246_132)" mask="url(#path-1-outside-1_246_132)"/>
<path d="M4.43645 89.2358L4.0148 6.89059C4.00664 5.29656 5.29658 4 6.89062 4H22.5H37.7085C39.3818 4 40.6109 5.57069 40.2086 7.19497C40.1584 7.39757 40.1331 7.60553 40.1331 7.81425V14.5V25.4128L39.2661 46.8256V80.4869C39.2661 83.3388 35.1598 83.7702 34.5671 80.9805C34.0762 78.6694 30.879 78.4142 30.0277 80.6182L29.9564 80.803C29.0944 83.0347 25.8674 82.8144 25.3167 80.4863L24.0336 75.0625C23.5748 73.1231 21.3076 72.254 19.67 73.3897C18.9081 73.9181 18.4536 74.7864 18.4536 75.7135V100.851C18.4536 100.95 18.446 101.049 18.4307 101.147C18.0805 103.394 14.8065 103.279 14.616 101.012L13.6713 89.7794C13.4416 87.0475 9.50028 86.8934 9.05796 89.5991C8.59778 92.4141 4.45105 92.0881 4.43645 89.2358Z" fill="#FFB000" stroke="black"/>
<path d="M220 83.9668L221.282 4.12994C221.287 3.84358 221.399 3.56928 221.595 3.36084C221.812 3.13055 222.114 3 222.431 3H239.362H260.016H276.797L285.96 3.58066C287.076 3.65134 288.183 3.8154 289.271 4.0711L296.404 5.74747L306.759 9.53318C308.613 10.211 310.357 11.1596 311.933 12.3482L317.762 16.7437C318.967 17.6524 320.066 18.6946 321.036 19.8503L329.945 30.4572C331.632 32.4661 332.907 34.7873 333.698 37.2886L338.685 53.0563C339.302 55.0072 339.616 57.0412 339.616 59.0874V75.7327L338.64 87.3557C338.396 90.2709 334.8 91.5018 332.82 89.3482L332.626 89.1372C332.542 89.0462 332.472 88.9439 332.417 88.8333C331.834 87.6686 330.097 87.9562 329.921 89.2464L329.619 91.4597C329.418 92.9326 327.464 93.3121 326.727 92.0215C326.059 90.8537 324.325 91.0255 323.9 92.3014L322.348 96.9557C322.133 97.6015 321.588 98.0824 320.921 98.2159C320.082 98.3836 319.235 97.9692 318.852 97.2042L318.675 96.8505C318.559 96.6183 318.481 96.369 318.445 96.1121L318 93L317.546 89.3675C317.516 89.1243 317.444 88.888 317.334 88.6687C316.473 86.9459 313.958 87.1246 313.349 88.952L312.836 90.4921C312.22 92.3398 309.627 92.3946 308.933 90.5745C308.256 88.7961 305.74 88.7946 305.061 90.5721L304.373 92.3695C303.339 95.0757 299.381 94.6307 298.973 91.7624L298.909 91.3138C298.879 91.1052 298.872 90.894 298.888 90.6839L299.5 82.5L300.341 71.5668C300.447 70.1926 300.41 68.8112 300.232 67.4445L298.864 56.9674L298.345 55.0281C297.211 50.7976 291.089 51.1724 290.48 55.5097C289.839 60.0773 283.265 60.1444 282.53 55.5907L281.072 46.5482C280.737 44.4721 277.951 44.02 276.977 45.8838C276.858 46.1111 276.78 46.3575 276.747 46.6118L276.696 46.9973C276.043 51.9769 268.886 52.1161 268.039 47.1657L267.011 41.156C266.688 39.2637 265.199 37.7853 263.304 37.4754C260.566 37.0277 258.08 39.1404 258.08 41.9142V108.206C258.08 111.438 253.387 111.841 252.836 108.655C252.364 105.926 248.531 105.713 247.7 108.356C246.871 110.994 243.055 110.817 242.533 108.102L241.018 100.233C240.567 97.8888 237.755 96.9024 235.938 98.4511C235.244 99.043 234.844 99.9094 234.844 100.822V111.077C234.844 111.739 234.617 112.38 234.2 112.894C232.563 114.909 229.305 113.902 229.091 111.314L228.299 101.705C228.121 99.5511 225.304 98.8629 224.153 100.693C222.952 102.603 220 101.752 220 99.4951V83.9668Z" fill="#FFB000" stroke="black"/>
<path d="M169.115 105.86L169.79 129.93C169.875 132.961 167.6 135.541 164.582 135.836L138.964 138.336C135.027 138.72 131.589 135.688 131.479 131.734L131.986 111.197C132.063 108.099 136.345 107.358 137.475 110.244C138.327 112.42 141.302 112.69 142.525 110.698C143.725 108.747 146.625 108.953 147.535 111.055L148.694 113.728C149.375 115.3 151.207 116.016 152.773 115.322C153.956 114.798 154.686 113.593 154.603 112.302L153.667 97.8486C153.596 95.3185 157.264 94.9069 157.756 97.3898L159.305 105.217C159.825 107.841 163.546 107.928 164.187 105.33C164.885 102.503 169.033 102.948 169.115 105.86Z" fill="#FFB000" stroke="black"/>
<path d="M132 36.6486V8.53976C132 5.42489 134.397 2.83475 137.503 2.59423L162.719 0.641358C167.185 0.295453 171 3.82636 171 8.30612L169.89 31.7842C169.739 34.9719 165.243 35.4632 164.265 32.4257C163.523 30.1227 160.394 29.7411 159.171 31.8289C157.97 33.8794 154.922 33.596 154.12 31.3593L152.95 28.0992C152.337 26.3877 150.39 25.5677 148.736 26.324C147.598 26.8447 146.884 27.9981 146.925 29.2492L147.476 46.0612C147.476 48.6613 143.684 48.9466 143.295 46.3758L141.95 37.4879C141.536 34.7494 137.656 34.5693 136.989 37.2577C136.27 40.1587 132 39.6373 132 36.6486Z" fill="#FFB000" stroke="black"/>
<defs>
<linearGradient id="paint0_linear_246_132" x1="137.851" y1="13.8022" x2="275.636" y2="308.183" gradientUnits="userSpaceOnUse">
<stop stop-color="#191817"/>
<stop offset="1" stop-color="#FFB000"/>
</linearGradient>
<radialGradient id="paint1_radial_246_132" cx="0" cy="0" r="1" gradientUnits="userSpaceOnUse" gradientTransform="translate(286 69.5) rotate(90) scale(109 291.5)">
<stop/>
<stop offset="1" stop-color="#1E1E1E" stop-opacity="0.94"/>
</radialGradient>
</defs>
</svg>
