<svg width="838" height="143" viewBox="0 0 838 143" fill="none" xmlns="http://www.w3.org/2000/svg">
<path d="M4.36875 5.424C4.36875 3.84533 4.88075 2.65067 5.90475 1.84C6.97142 1.02933 8.44342 0.623997 10.3208 0.623997V27.44C10.3208 29.0613 9.78742 30.2987 8.72075 31.152C7.69675 32.0053 6.24608 32.432 4.36875 32.432V5.424ZM7.05675 46.576C5.73408 46.576 4.62475 46.1707 3.72875 45.36C2.87542 44.5067 2.44875 43.44 2.44875 42.16C2.44875 40.9227 2.87542 39.8773 3.72875 39.024C4.62475 38.1707 5.73408 37.744 7.05675 37.744C8.37942 37.744 9.48875 38.1707 10.3848 39.024C11.2808 39.8773 11.7288 40.9227 11.7288 42.16C11.7288 43.44 11.2808 44.5067 10.3848 45.36C9.48875 46.1707 8.37942 46.576 7.05675 46.576ZM22.6188 5.424C22.6188 3.84533 23.1308 2.65067 24.1548 1.84C25.2214 1.02933 26.6934 0.623997 28.5708 0.623997V27.44C28.5708 29.0613 28.0374 30.2987 26.9708 31.152C25.9468 32.0053 24.4961 32.432 22.6188 32.432V5.424ZM25.3068 46.576C23.9841 46.576 22.8748 46.1707 21.9788 45.36C21.1254 44.5067 20.6988 43.44 20.6988 42.16C20.6988 40.9227 21.1254 39.8773 21.9788 39.024C22.8748 38.1707 23.9841 37.744 25.3068 37.744C26.6294 37.744 27.7388 38.1707 28.6348 39.024C29.5308 39.8773 29.9788 40.9227 29.9788 42.16C29.9788 43.44 29.5308 44.5067 28.6348 45.36C27.7388 46.1707 26.6294 46.576 25.3068 46.576ZM619.716 89.448H615.94C614.49 89.448 613.359 88.9787 612.548 88.04C611.78 87.1013 611.396 85.8213 611.396 84.2H622.916C623.727 84.2 624.388 84.4773 624.9 85.032C625.455 85.544 625.732 86.1627 625.732 86.888V124.584C625.732 126.205 625.22 127.443 624.196 128.296C623.172 129.149 621.679 129.576 619.716 129.576V89.448ZM651.211 129.576C648.096 129.576 645.216 128.979 642.571 127.784C639.968 126.547 637.899 124.904 636.363 122.856C634.827 120.765 634.059 118.461 634.059 115.944V97.256C634.059 94.7387 634.805 92.456 636.299 90.408C637.835 88.3173 639.904 86.6747 642.507 85.48C645.152 84.2427 648.053 83.624 651.211 83.624C654.368 83.624 657.248 84.2427 659.851 85.48C662.496 86.6747 664.565 88.3173 666.059 90.408C667.595 92.456 668.363 94.7387 668.363 97.256V115.944C668.363 118.461 667.595 120.765 666.059 122.856C664.523 124.904 662.432 126.547 659.787 127.784C657.184 128.979 654.325 129.576 651.211 129.576ZM651.211 124.2C654.496 124.2 657.163 123.432 659.211 121.896C661.301 120.317 662.347 118.291 662.347 115.816V97.384C662.347 94.9093 661.301 92.904 659.211 91.368C657.163 89.7893 654.496 89 651.211 89C647.925 89 645.237 89.7893 643.147 91.368C641.099 92.904 640.075 94.9093 640.075 97.384V115.816C640.075 118.291 641.099 120.317 643.147 121.896C645.237 123.432 647.925 124.2 651.211 124.2ZM693.211 129.576C690.096 129.576 687.216 128.979 684.571 127.784C681.968 126.547 679.899 124.904 678.363 122.856C676.827 120.765 676.059 118.461 676.059 115.944V97.256C676.059 94.7387 676.805 92.456 678.299 90.408C679.835 88.3173 681.904 86.6747 684.507 85.48C687.152 84.2427 690.053 83.624 693.211 83.624C696.368 83.624 699.248 84.2427 701.851 85.48C704.496 86.6747 706.565 88.3173 708.059 90.408C709.595 92.456 710.363 94.7387 710.363 97.256V115.944C710.363 118.461 709.595 120.765 708.059 122.856C706.523 124.904 704.432 126.547 701.787 127.784C699.184 128.979 696.325 129.576 693.211 129.576ZM693.211 124.2C696.496 124.2 699.163 123.432 701.211 121.896C703.301 120.317 704.347 118.291 704.347 115.816V97.384C704.347 94.9093 703.301 92.904 701.211 91.368C699.163 89.7893 696.496 89 693.211 89C689.925 89 687.237 89.7893 685.147 91.368C683.099 92.904 682.075 94.9093 682.075 97.384V115.816C682.075 118.291 683.099 120.317 685.147 121.896C687.237 123.432 689.925 124.2 693.211 124.2ZM735.211 129.576C732.096 129.576 729.216 128.979 726.571 127.784C723.968 126.547 721.899 124.904 720.363 122.856C718.827 120.765 718.059 118.461 718.059 115.944V97.256C718.059 94.7387 718.805 92.456 720.299 90.408C721.835 88.3173 723.904 86.6747 726.507 85.48C729.152 84.2427 732.053 83.624 735.211 83.624C738.368 83.624 741.248 84.2427 743.851 85.48C746.496 86.6747 748.565 88.3173 750.059 90.408C751.595 92.456 752.363 94.7387 752.363 97.256V115.944C752.363 118.461 751.595 120.765 750.059 122.856C748.523 124.904 746.432 126.547 743.787 127.784C741.184 128.979 738.325 129.576 735.211 129.576ZM735.211 124.2C738.496 124.2 741.163 123.432 743.211 121.896C745.301 120.317 746.347 118.291 746.347 115.816V97.384C746.347 94.9093 745.301 92.904 743.211 91.368C741.163 89.7893 738.496 89 735.211 89C731.925 89 729.237 89.7893 727.147 91.368C725.099 92.904 724.075 94.9093 724.075 97.384V115.816C724.075 118.291 725.099 120.317 727.147 121.896C729.237 123.432 731.925 124.2 735.211 124.2ZM760.699 100.968C760.699 99.56 761.125 98.4507 761.979 97.64C762.875 96.8293 764.219 96.424 766.011 96.424V100.008L764.731 101.672L764.923 101.928C766.245 100.221 767.76 98.8773 769.467 97.896C771.173 96.9147 773.2 96.424 775.547 96.424C779.216 96.424 782.181 97.448 784.443 99.496C786.704 101.501 787.835 104.189 787.835 107.56V118.504C787.835 121.875 786.661 124.563 784.315 126.568C781.968 128.573 778.917 129.576 775.163 129.576C773.157 129.576 771.301 129.171 769.595 128.36C767.931 127.507 766.459 126.397 765.179 125.032L764.987 125.352C765.285 125.779 765.733 126.248 766.331 126.76V138.024C766.331 140.925 764.453 142.376 760.699 142.376V100.968ZM774.331 124.648C776.848 124.648 778.811 124.093 780.219 122.984C781.627 121.832 782.331 120.253 782.331 118.248V107.816C782.331 105.725 781.627 104.125 780.219 103.016C778.811 101.907 776.827 101.352 774.267 101.352C772.005 101.352 770.107 101.949 768.571 103.144C767.035 104.296 766.267 105.747 766.267 107.496V118.568C766.267 120.275 766.992 121.725 768.443 122.92C769.893 124.072 771.856 124.648 774.331 124.648ZM795.053 129.576C794.499 129.576 793.901 129.469 793.261 129.256C792.621 129.085 792.088 128.787 791.661 128.36L803.437 112.168L793.005 97.384C793.347 97.0853 793.816 96.8507 794.413 96.68C795.053 96.5093 795.629 96.424 796.141 96.424C797.763 96.424 798.957 97 799.725 98.152L806.381 108.072L805.165 109.8L805.485 110.056L813.613 98.152C813.997 97.5973 814.509 97.1707 815.149 96.872C815.832 96.5733 816.557 96.424 817.325 96.424C817.837 96.424 818.392 96.5093 818.989 96.68C819.587 96.8507 820.056 97.0853 820.397 97.384L809.901 112.168L821.613 128.36C821.229 128.787 820.739 129.085 820.141 129.256C819.587 129.469 819.053 129.576 818.541 129.576C817.859 129.576 817.176 129.427 816.493 129.128C815.811 128.872 815.32 128.509 815.021 128.04L806.637 115.816L798.317 128.04C797.976 128.552 797.507 128.936 796.909 129.192C796.312 129.448 795.693 129.576 795.053 129.576Z" fill="#FFB000"/>
<path d="M68.8248 6.512H53.2088C53.2088 2.97066 54.8728 1.2 58.2008 1.2H90.3928C90.3928 4.74133 88.7288 6.512 85.4008 6.512H74.8408V41.584C74.8408 43.2053 74.3288 44.4427 73.3048 45.296C72.2808 46.1493 70.7874 46.576 68.8248 46.576V6.512ZM92.0113 5.36C92.0113 3.824 92.4806 2.65067 93.4193 1.84C94.3579 1.02933 95.7446 0.623997 97.5793 0.623997V17.456C96.9819 18.1387 96.5126 18.736 96.1713 19.248L96.4273 19.504C97.7499 17.712 99.4139 16.2613 101.419 15.152C103.425 14 105.601 13.424 107.947 13.424C111.403 13.424 114.134 14.448 116.139 16.496C118.145 18.544 119.147 21.1893 119.147 24.432V42.48C119.147 43.888 118.678 44.9333 117.739 45.616C116.843 46.256 115.457 46.576 113.579 46.576V25.008C113.579 22.96 113.003 21.3387 111.851 20.144C110.699 18.9493 108.95 18.352 106.603 18.352C105.025 18.352 103.531 18.6933 102.123 19.376C100.758 20.016 99.6486 20.912 98.7953 22.064C97.9846 23.1733 97.5793 24.3893 97.5793 25.712V42.48C97.5793 43.888 97.1099 44.9333 96.1713 45.616C95.2753 46.256 93.8886 46.576 92.0113 46.576V5.36ZM131.673 8.624C130.478 8.624 129.475 8.24 128.665 7.472C127.854 6.704 127.449 5.744 127.449 4.592C127.449 3.44 127.854 2.50133 128.665 1.776C129.475 1.008 130.478 0.623997 131.673 0.623997C132.825 0.623997 133.806 1.008 134.617 1.776C135.427 2.50133 135.833 3.44 135.833 4.592C135.833 5.744 135.427 6.704 134.617 7.472C133.806 8.24 132.825 8.624 131.673 8.624ZM128.857 17.52C128.857 16.112 129.305 15.088 130.201 14.448C131.139 13.7653 132.547 13.424 134.425 13.424V42.48C134.425 43.888 133.955 44.9333 133.017 45.616C132.121 46.256 130.734 46.576 128.857 46.576V17.52ZM156.408 46.576C154.232 46.576 152.184 46.256 150.264 45.616C148.344 44.9333 146.786 43.9733 145.592 42.736C144.44 41.4987 143.864 40.048 143.864 38.384C143.864 36.336 145.101 35.2267 147.576 35.056C148.002 37.4453 149.005 39.216 150.584 40.368C152.205 41.4773 154.253 42.032 156.728 42.032C159.202 42.032 161.122 41.6693 162.488 40.944C163.853 40.2187 164.536 39.1093 164.536 37.616C164.536 36.5493 164.258 35.696 163.704 35.056C163.149 34.3733 162.253 33.7973 161.016 33.328C159.821 32.816 158.093 32.3253 155.832 31.856C153.016 31.216 150.776 30.5333 149.112 29.808C147.448 29.0827 146.168 28.1227 145.272 26.928C144.418 25.7333 143.992 24.1547 143.992 22.192C143.992 20.528 144.504 19.0347 145.528 17.712C146.552 16.3467 147.96 15.3013 149.752 14.576C151.586 13.808 153.656 13.424 155.96 13.424C158.093 13.424 160.098 13.7227 161.976 14.32C163.896 14.9173 165.432 15.7707 166.584 16.88C167.778 17.9893 168.376 19.2693 168.376 20.72C168.376 21.7013 167.992 22.4907 167.224 23.088C166.456 23.6427 165.389 23.9627 164.024 24.048C163.896 22.1707 163.128 20.6987 161.72 19.632C160.354 18.5227 158.434 17.968 155.96 17.968C153.912 17.968 152.29 18.352 151.096 19.12C149.901 19.888 149.304 20.912 149.304 22.192C149.304 23.5573 149.858 24.5813 150.968 25.264C152.12 25.904 154.061 26.5227 156.792 27.12C161.272 28.016 164.557 29.2533 166.648 30.832C168.781 32.368 169.848 34.5653 169.848 37.424C169.848 40.3253 168.674 42.5867 166.328 44.208C163.981 45.7867 160.674 46.576 156.408 46.576ZM205.475 46.576C204.109 46.576 202.979 46.2773 202.083 45.68C201.187 45.04 200.568 44.1653 200.227 43.056L192.099 13.936C192.696 13.5947 193.507 13.424 194.531 13.424C195.469 13.424 196.259 13.6373 196.899 14.064C197.539 14.4907 197.944 15.1093 198.115 15.92L203.491 37.168L202.851 39.92L203.171 40.048L210.147 15.28C210.317 14.7253 210.637 14.2773 211.107 13.936C211.576 13.5947 212.152 13.424 212.835 13.424C213.517 13.424 214.093 13.5947 214.563 13.936C215.032 14.2773 215.352 14.7253 215.523 15.28L221.603 37.424L220.835 40.176L221.219 40.304L227.491 15.92C227.661 15.1093 228.067 14.4907 228.707 14.064C229.347 13.6373 230.136 13.424 231.075 13.424C232.099 13.424 232.909 13.5947 233.507 13.936L225.379 43.056C225.08 44.1653 224.44 45.04 223.459 45.68C222.477 46.2773 221.304 46.576 219.939 46.576L212.259 18.928L212.003 18.992L212.643 21.36L205.475 46.576ZM249.563 46.576C246.96 46.576 244.635 46.0853 242.587 45.104C240.539 44.08 238.939 42.6933 237.787 40.944C236.635 39.152 236.059 37.1467 236.059 34.928V25.456C236.059 23.1947 236.656 21.1467 237.851 19.312C239.088 17.4773 240.731 16.048 242.779 15.024C244.869 13.9573 247.131 13.424 249.563 13.424C251.995 13.424 254.213 13.936 256.219 14.96C258.267 15.984 259.867 17.392 261.019 19.184C262.213 20.976 262.811 23.0027 262.811 25.264V29.36C262.811 30.0427 262.555 30.6187 262.043 31.088C261.531 31.5573 260.912 31.792 260.187 31.792H241.499V34.672C241.499 36.848 242.181 38.5973 243.547 39.92C244.955 41.2427 246.96 41.904 249.563 41.904C252.165 41.904 254.149 41.328 255.515 40.176C256.88 39.024 257.563 37.4667 257.563 35.504C258.843 35.4187 259.909 35.6747 260.763 36.272C261.659 36.8267 262.107 37.6587 262.107 38.768C262.107 40.1333 261.509 41.4133 260.315 42.608C259.163 43.8027 257.627 44.7627 255.707 45.488C253.787 46.2133 251.739 46.576 249.563 46.576ZM257.627 27.44V25.264C257.627 23.1307 256.88 21.4027 255.387 20.08C253.936 18.7147 251.995 18.032 249.563 18.032C247.131 18.032 245.168 18.7147 243.675 20.08C242.224 21.4027 241.499 23.1307 241.499 25.264V27.44H257.627ZM270.199 4.976C270.199 2.07466 272.076 0.623997 275.831 0.623997V16.24C275.191 16.7947 274.743 17.264 274.487 17.648L274.679 17.968C275.959 16.6027 277.516 15.5147 279.351 14.704C281.228 13.8507 283.063 13.424 284.855 13.424C288.652 13.424 291.681 14.4267 293.943 16.432C296.204 18.4373 297.335 21.1253 297.335 24.496V35.44C297.335 37.5733 296.801 39.4933 295.735 41.2C294.711 42.9067 293.26 44.2293 291.383 45.168C289.505 46.1067 287.372 46.576 284.983 46.576C280.801 46.576 277.281 44.7413 274.423 41.072L274.231 41.328C274.487 41.712 274.913 42.2453 275.511 42.928C275.511 44.1653 275.084 45.0827 274.231 45.68C273.377 46.2773 272.033 46.576 270.199 46.576V4.976ZM283.767 41.648C286.369 41.648 288.353 41.0933 289.719 39.984C291.127 38.8747 291.831 37.2747 291.831 35.184V24.752C291.831 22.7467 291.127 21.1893 289.719 20.08C288.311 18.928 286.348 18.352 283.831 18.352C281.612 18.352 279.713 18.9493 278.135 20.144C276.556 21.3387 275.767 22.768 275.767 24.432V35.504C275.767 37.2533 276.535 38.7253 278.071 39.92C279.607 41.072 281.505 41.648 283.767 41.648ZM315.595 46.576C313.419 46.576 311.371 46.256 309.451 45.616C307.531 44.9333 305.974 43.9733 304.779 42.736C303.627 41.4987 303.051 40.048 303.051 38.384C303.051 36.336 304.289 35.2267 306.763 35.056C307.19 37.4453 308.193 39.216 309.771 40.368C311.393 41.4773 313.441 42.032 315.915 42.032C318.39 42.032 320.31 41.6693 321.675 40.944C323.041 40.2187 323.723 39.1093 323.723 37.616C323.723 36.5493 323.446 35.696 322.891 35.056C322.337 34.3733 321.441 33.7973 320.203 33.328C319.009 32.816 317.281 32.3253 315.019 31.856C312.203 31.216 309.963 30.5333 308.299 29.808C306.635 29.0827 305.355 28.1227 304.459 26.928C303.606 25.7333 303.179 24.1547 303.179 22.192C303.179 20.528 303.691 19.0347 304.715 17.712C305.739 16.3467 307.147 15.3013 308.939 14.576C310.774 13.808 312.843 13.424 315.147 13.424C317.281 13.424 319.286 13.7227 321.163 14.32C323.083 14.9173 324.619 15.7707 325.771 16.88C326.966 17.9893 327.563 19.2693 327.563 20.72C327.563 21.7013 327.179 22.4907 326.411 23.088C325.643 23.6427 324.577 23.9627 323.211 24.048C323.083 22.1707 322.315 20.6987 320.907 19.632C319.542 18.5227 317.622 17.968 315.147 17.968C313.099 17.968 311.478 18.352 310.283 19.12C309.089 19.888 308.491 20.912 308.491 22.192C308.491 23.5573 309.046 24.5813 310.155 25.264C311.307 25.904 313.249 26.5227 315.979 27.12C320.459 28.016 323.745 29.2533 325.835 30.832C327.969 32.368 329.035 34.5653 329.035 37.424C329.035 40.3253 327.862 42.5867 325.515 44.208C323.169 45.7867 319.862 46.576 315.595 46.576ZM340.61 8.624C339.416 8.624 338.413 8.24 337.602 7.472C336.792 6.704 336.386 5.744 336.386 4.592C336.386 3.44 336.792 2.50133 337.602 1.776C338.413 1.008 339.416 0.623997 340.61 0.623997C341.762 0.623997 342.744 1.008 343.554 1.776C344.365 2.50133 344.77 3.44 344.77 4.592C344.77 5.744 344.365 6.704 343.554 7.472C342.744 8.24 341.762 8.624 340.61 8.624ZM337.794 17.52C337.794 16.112 338.242 15.088 339.138 14.448C340.077 13.7653 341.485 13.424 343.362 13.424V42.48C343.362 43.888 342.893 44.9333 341.954 45.616C341.058 46.256 339.672 46.576 337.794 46.576V17.52ZM366.497 46.576C363.468 46.576 361.207 45.7227 359.713 44.016C358.22 42.2667 357.473 39.984 357.473 37.168V18.48H351.521C351.521 17.0293 351.841 15.92 352.481 15.152C353.121 14.384 353.996 14 355.105 14H357.537V7.92C357.537 6.512 357.985 5.488 358.881 4.848C359.82 4.16533 361.207 3.824 363.041 3.824V14H371.553C371.553 16.9867 370.209 18.48 367.521 18.48H363.105V36.976C363.105 38.6827 363.404 39.8987 364.001 40.624C364.641 41.3067 365.772 41.648 367.393 41.648C368.887 41.648 370.295 41.264 371.617 40.496C372.172 41.0507 372.449 41.7973 372.449 42.736C372.449 43.76 371.916 44.656 370.849 45.424C369.783 46.192 368.332 46.576 366.497 46.576ZM392.063 46.576C389.46 46.576 387.135 46.0853 385.087 45.104C383.039 44.08 381.439 42.6933 380.287 40.944C379.135 39.152 378.559 37.1467 378.559 34.928V25.456C378.559 23.1947 379.156 21.1467 380.351 19.312C381.588 17.4773 383.231 16.048 385.279 15.024C387.369 13.9573 389.631 13.424 392.063 13.424C394.495 13.424 396.713 13.936 398.719 14.96C400.767 15.984 402.367 17.392 403.519 19.184C404.713 20.976 405.311 23.0027 405.311 25.264V29.36C405.311 30.0427 405.055 30.6187 404.543 31.088C404.031 31.5573 403.412 31.792 402.687 31.792H383.999V34.672C383.999 36.848 384.681 38.5973 386.047 39.92C387.455 41.2427 389.46 41.904 392.063 41.904C394.665 41.904 396.649 41.328 398.015 40.176C399.38 39.024 400.063 37.4667 400.063 35.504C401.343 35.4187 402.409 35.6747 403.263 36.272C404.159 36.8267 404.607 37.6587 404.607 38.768C404.607 40.1333 404.009 41.4133 402.815 42.608C401.663 43.8027 400.127 44.7627 398.207 45.488C396.287 46.2133 394.239 46.576 392.063 46.576ZM400.127 27.44V25.264C400.127 23.1307 399.38 21.4027 397.887 20.08C396.436 18.7147 394.495 18.032 392.063 18.032C389.631 18.032 387.668 18.7147 386.175 20.08C384.724 21.4027 383.999 23.1307 383.999 25.264V27.44H400.127ZM440.911 46.576C437.241 46.576 434.255 45.5733 431.951 43.568C429.689 41.52 428.559 38.8107 428.559 35.44V24.496C428.559 22.32 429.092 20.4 430.159 18.736C431.225 17.0293 432.697 15.728 434.575 14.832C436.495 13.8933 438.692 13.424 441.167 13.424C443.172 13.424 445.028 13.8507 446.735 14.704C448.441 15.5147 449.935 16.6027 451.215 17.968L451.407 17.648C451.108 17.2213 450.66 16.752 450.063 16.24V4.976C450.063 3.568 450.532 2.50133 451.471 1.776C452.409 1.008 453.817 0.623997 455.695 0.623997V42.032C455.695 43.44 455.268 44.5493 454.415 45.36C453.604 46.1707 452.281 46.576 450.447 46.576V42.992C451.044 42.224 451.449 41.6693 451.663 41.328L451.471 41.072C450.105 42.7787 448.591 44.1227 446.927 45.104C445.263 46.0853 443.257 46.576 440.911 46.576ZM442.127 41.648C444.388 41.648 446.287 41.072 447.823 39.92C449.359 38.7253 450.127 37.2533 450.127 35.504V24.432C450.127 22.7253 449.401 21.296 447.951 20.144C446.5 18.9493 444.537 18.352 442.063 18.352C439.545 18.352 437.583 18.928 436.175 20.08C434.809 21.1893 434.127 22.7467 434.127 24.752V35.184C434.127 37.2747 434.809 38.8747 436.175 39.984C437.583 41.0933 439.567 41.648 442.127 41.648ZM476.796 46.576C474.194 46.576 471.826 46.0853 469.692 45.104C467.602 44.1227 465.959 42.8 464.764 41.136C463.612 39.4293 463.036 37.5307 463.036 35.44V24.944C463.036 22.8107 463.612 20.8693 464.764 19.12C465.959 17.3707 467.602 15.984 469.692 14.96C471.783 13.936 474.151 13.424 476.796 13.424C479.442 13.424 481.81 13.936 483.9 14.96C486.034 15.984 487.676 17.3707 488.828 19.12C490.023 20.8693 490.62 22.8107 490.62 24.944V35.44C490.62 37.5307 490.023 39.4293 488.828 41.136C487.634 42.8 485.991 44.1227 483.9 45.104C481.81 46.0853 479.442 46.576 476.796 46.576ZM476.796 41.776C479.356 41.776 481.383 41.1787 482.876 39.984C484.412 38.7467 485.18 37.1467 485.18 35.184V25.136C485.18 23.088 484.412 21.424 482.876 20.144C481.383 18.864 479.356 18.224 476.796 18.224C474.279 18.224 472.252 18.864 470.716 20.144C469.18 21.424 468.412 23.088 468.412 25.136V35.184C468.412 37.1467 469.159 38.7467 470.652 39.984C472.188 41.1787 474.236 41.776 476.796 41.776ZM514.511 18.16C514.511 15.0027 516.303 13.424 519.887 13.424V17.52C519.503 17.904 519.055 18.48 518.543 19.248L518.799 19.504C520.079 17.712 521.743 16.2613 523.791 15.152C525.839 14 528.058 13.424 530.447 13.424C533.903 13.424 536.634 14.448 538.639 16.496C540.645 18.544 541.647 21.1893 541.647 24.432V42.48C541.647 43.888 541.178 44.9333 540.239 45.616C539.343 46.256 537.957 46.576 536.079 46.576V25.008C536.079 22.96 535.503 21.3387 534.351 20.144C533.199 18.9493 531.45 18.352 529.103 18.352C527.525 18.352 526.031 18.6933 524.623 19.376C523.258 20.016 522.149 20.912 521.295 22.064C520.485 23.1733 520.079 24.3893 520.079 25.712V42.48C520.079 43.888 519.61 44.9333 518.671 45.616C517.775 46.256 516.389 46.576 514.511 46.576V18.16ZM562.109 46.576C559.506 46.576 557.138 46.0853 555.005 45.104C552.914 44.1227 551.271 42.8 550.077 41.136C548.925 39.4293 548.349 37.5307 548.349 35.44V24.944C548.349 22.8107 548.925 20.8693 550.077 19.12C551.271 17.3707 552.914 15.984 555.005 14.96C557.095 13.936 559.463 13.424 562.109 13.424C564.754 13.424 567.122 13.936 569.213 14.96C571.346 15.984 572.989 17.3707 574.141 19.12C575.335 20.8693 575.933 22.8107 575.933 24.944V35.44C575.933 37.5307 575.335 39.4293 574.141 41.136C572.946 42.8 571.303 44.1227 569.213 45.104C567.122 46.0853 564.754 46.576 562.109 46.576ZM562.109 41.776C564.669 41.776 566.695 41.1787 568.189 39.984C569.725 38.7467 570.493 37.1467 570.493 35.184V25.136C570.493 23.088 569.725 21.424 568.189 20.144C566.695 18.864 564.669 18.224 562.109 18.224C559.591 18.224 557.565 18.864 556.029 20.144C554.493 21.424 553.725 23.088 553.725 25.136V35.184C553.725 37.1467 554.471 38.7467 555.965 39.984C557.501 41.1787 559.549 41.776 562.109 41.776ZM594.435 46.576C591.405 46.576 589.144 45.7227 587.651 44.016C586.157 42.2667 585.411 39.984 585.411 37.168V18.48H579.459C579.459 17.0293 579.779 15.92 580.419 15.152C581.059 14.384 581.933 14 583.043 14H585.475V7.92C585.475 6.512 585.923 5.488 586.819 4.848C587.757 4.16533 589.144 3.824 590.979 3.824V14H599.491C599.491 16.9867 598.147 18.48 595.459 18.48H591.043V36.976C591.043 38.6827 591.341 39.8987 591.939 40.624C592.579 41.3067 593.709 41.648 595.331 41.648C596.824 41.648 598.232 41.264 599.555 40.496C600.109 41.0507 600.387 41.7973 600.387 42.736C600.387 43.76 599.853 44.656 598.787 45.424C597.72 46.192 596.269 46.576 594.435 46.576ZM635.22 46.576C633.044 46.576 630.996 46.256 629.076 45.616C627.156 44.9333 625.599 43.9733 624.404 42.736C623.252 41.4987 622.676 40.048 622.676 38.384C622.676 36.336 623.914 35.2267 626.388 35.056C626.815 37.4453 627.818 39.216 629.396 40.368C631.018 41.4773 633.066 42.032 635.54 42.032C638.015 42.032 639.935 41.6693 641.3 40.944C642.666 40.2187 643.348 39.1093 643.348 37.616C643.348 36.5493 643.071 35.696 642.516 35.056C641.962 34.3733 641.066 33.7973 639.828 33.328C638.634 32.816 636.906 32.3253 634.644 31.856C631.828 31.216 629.588 30.5333 627.924 29.808C626.26 29.0827 624.98 28.1227 624.084 26.928C623.231 25.7333 622.804 24.1547 622.804 22.192C622.804 20.528 623.316 19.0347 624.34 17.712C625.364 16.3467 626.772 15.3013 628.564 14.576C630.399 13.808 632.468 13.424 634.772 13.424C636.906 13.424 638.911 13.7227 640.788 14.32C642.708 14.9173 644.244 15.7707 645.396 16.88C646.591 17.9893 647.188 19.2693 647.188 20.72C647.188 21.7013 646.804 22.4907 646.036 23.088C645.268 23.6427 644.202 23.9627 642.836 24.048C642.708 22.1707 641.94 20.6987 640.532 19.632C639.167 18.5227 637.247 17.968 634.772 17.968C632.724 17.968 631.103 18.352 629.908 19.12C628.714 19.888 628.116 20.912 628.116 22.192C628.116 23.5573 628.671 24.5813 629.78 25.264C630.932 25.904 632.874 26.5227 635.604 27.12C640.084 28.016 643.37 29.2533 645.46 30.832C647.594 32.368 648.66 34.5653 648.66 37.424C648.66 40.3253 647.487 42.5867 645.14 44.208C642.794 45.7867 639.487 46.576 635.22 46.576ZM682.507 41.84C682.507 44.9973 680.715 46.576 677.131 46.576V42.48C677.515 42.096 677.963 41.52 678.475 40.752L678.219 40.496C676.939 42.3307 675.318 43.8027 673.355 44.912C671.435 46.0213 669.323 46.576 667.019 46.576C664.715 46.576 662.667 46.0853 660.875 45.104C659.126 44.1227 657.761 42.7573 656.779 41.008C655.841 39.2587 655.371 37.296 655.371 35.12V17.52C655.371 16.112 655.841 15.088 656.779 14.448C657.718 13.7653 659.126 13.424 661.003 13.424V34.864C661.003 36.912 661.601 38.5547 662.795 39.792C664.033 41.0293 665.846 41.648 668.235 41.648C669.814 41.648 671.265 41.328 672.587 40.688C673.91 40.0053 674.955 39.1093 675.723 38C676.534 36.848 676.939 35.6107 676.939 34.288V17.52C676.939 16.112 677.387 15.088 678.283 14.448C679.222 13.7653 680.63 13.424 682.507 13.424V41.84ZM691.449 17.968C691.449 16.56 691.875 15.4507 692.729 14.64C693.625 13.8293 694.969 13.424 696.761 13.424V17.008L695.481 18.672L695.673 18.928C696.995 17.2213 698.51 15.8773 700.217 14.896C701.923 13.9147 703.95 13.424 706.297 13.424C709.966 13.424 712.931 14.448 715.193 16.496C717.454 18.5013 718.585 21.1893 718.585 24.56V35.504C718.585 38.8747 717.411 41.5627 715.065 43.568C712.718 45.5733 709.667 46.576 705.913 46.576C703.907 46.576 702.051 46.1707 700.345 45.36C698.681 44.5067 697.209 43.3973 695.929 42.032L695.737 42.352C696.035 42.7787 696.483 43.248 697.081 43.76V55.024C697.081 57.9253 695.203 59.376 691.449 59.376V17.968ZM705.081 41.648C707.598 41.648 709.561 41.0933 710.969 39.984C712.377 38.832 713.081 37.2533 713.081 35.248V24.816C713.081 22.7253 712.377 21.1253 710.969 20.016C709.561 18.9067 707.577 18.352 705.017 18.352C702.755 18.352 700.857 18.9493 699.321 20.144C697.785 21.296 697.017 22.7467 697.017 24.496V35.568C697.017 37.2747 697.742 38.7253 699.193 39.92C700.643 41.072 702.606 41.648 705.081 41.648ZM726.886 17.968C726.886 16.56 727.313 15.4507 728.166 14.64C729.062 13.8293 730.406 13.424 732.198 13.424V17.008L730.918 18.672L731.11 18.928C732.433 17.2213 733.948 15.8773 735.654 14.896C737.361 13.9147 739.388 13.424 741.734 13.424C745.404 13.424 748.369 14.448 750.63 16.496C752.892 18.5013 754.022 21.1893 754.022 24.56V35.504C754.022 38.8747 752.849 41.5627 750.502 43.568C748.156 45.5733 745.105 46.576 741.35 46.576C739.345 46.576 737.489 46.1707 735.782 45.36C734.118 44.5067 732.646 43.3973 731.366 42.032L731.174 42.352C731.473 42.7787 731.921 43.248 732.518 43.76V55.024C732.518 57.9253 730.641 59.376 726.886 59.376V17.968ZM740.518 41.648C743.036 41.648 744.998 41.0933 746.406 39.984C747.814 38.832 748.518 37.2533 748.518 35.248V24.816C748.518 22.7253 747.814 21.1253 746.406 20.016C744.998 18.9067 743.014 18.352 740.454 18.352C738.193 18.352 736.294 18.9493 734.758 20.144C733.222 21.296 732.454 22.7467 732.454 24.496V35.568C732.454 37.2747 733.18 38.7253 734.63 39.92C736.081 41.072 738.044 41.648 740.518 41.648ZM773.546 46.576C770.944 46.576 768.576 46.0853 766.442 45.104C764.352 44.1227 762.709 42.8 761.514 41.136C760.362 39.4293 759.786 37.5307 759.786 35.44V24.944C759.786 22.8107 760.362 20.8693 761.514 19.12C762.709 17.3707 764.352 15.984 766.442 14.96C768.533 13.936 770.901 13.424 773.546 13.424C776.192 13.424 778.56 13.936 780.65 14.96C782.784 15.984 784.426 17.3707 785.578 19.12C786.773 20.8693 787.37 22.8107 787.37 24.944V35.44C787.37 37.5307 786.773 39.4293 785.578 41.136C784.384 42.8 782.741 44.1227 780.65 45.104C778.56 46.0853 776.192 46.576 773.546 46.576ZM773.546 41.776C776.106 41.776 778.133 41.1787 779.626 39.984C781.162 38.7467 781.93 37.1467 781.93 35.184V25.136C781.93 23.088 781.162 21.424 779.626 20.144C778.133 18.864 776.106 18.224 773.546 18.224C771.029 18.224 769.002 18.864 767.466 20.144C765.93 21.424 765.162 23.088 765.162 25.136V35.184C765.162 37.1467 765.909 38.7467 767.402 39.984C768.938 41.1787 770.986 41.776 773.546 41.776ZM808.649 18.352C806.26 18.352 804.276 19.0773 802.697 20.528C801.119 21.936 800.329 23.664 800.329 25.712V42.48C800.329 43.888 799.86 44.9333 798.921 45.616C798.025 46.256 796.639 46.576 794.761 46.576V18.16C794.761 15.0027 796.553 13.424 800.137 13.424V17.328C799.455 18.0533 798.985 18.6933 798.729 19.248L798.985 19.504C801.716 15.4507 805.129 13.424 809.225 13.424C810.761 13.424 811.935 13.808 812.745 14.576C813.556 15.3013 813.961 16.1973 813.961 17.264C813.961 18.032 813.769 18.7147 813.385 19.312C812.191 18.672 810.612 18.352 808.649 18.352ZM831.81 46.576C828.78 46.576 826.519 45.7227 825.026 44.016C823.532 42.2667 822.786 39.984 822.786 37.168V18.48H816.834C816.834 17.0293 817.154 15.92 817.794 15.152C818.434 14.384 819.308 14 820.418 14H822.85V7.92C822.85 6.512 823.298 5.488 824.194 4.848C825.132 4.16533 826.519 3.824 828.354 3.824V14H836.866C836.866 16.9867 835.522 18.48 832.834 18.48H828.418V36.976C828.418 38.6827 828.716 39.8987 829.314 40.624C829.954 41.3067 831.084 41.648 832.706 41.648C834.199 41.648 835.607 41.264 836.93 40.496C837.484 41.0507 837.762 41.7973 837.762 42.736C837.762 43.76 837.228 44.656 836.162 45.424C835.095 46.192 833.644 46.576 831.81 46.576ZM13.2233 129.576C9.55392 129.576 6.56725 128.573 4.26325 126.568C2.00192 124.52 0.87125 121.811 0.87125 118.44V107.496C0.87125 105.32 1.40458 103.4 2.47125 101.736C3.53792 100.029 5.00992 98.728 6.88725 97.832C8.80725 96.8933 11.0046 96.424 13.4792 96.424C15.4846 96.424 17.3406 96.8507 19.0473 97.704C20.7539 98.5147 22.2473 99.6027 23.5273 100.968L23.7193 100.648C23.4206 100.221 22.9726 99.752 22.3753 99.24V87.976C22.3753 86.568 22.8446 85.5013 23.7833 84.776C24.7219 84.008 26.1299 83.624 28.0073 83.624V125.032C28.0073 126.44 27.5806 127.549 26.7273 128.36C25.9166 129.171 24.5939 129.576 22.7593 129.576V125.992C23.3566 125.224 23.7619 124.669 23.9753 124.328L23.7833 124.072C22.4179 125.779 20.9033 127.123 19.2393 128.104C17.5753 129.085 15.5699 129.576 13.2233 129.576ZM14.4393 124.648C16.7006 124.648 18.5993 124.072 20.1353 122.92C21.6713 121.725 22.4393 120.253 22.4393 118.504V107.432C22.4393 105.725 21.7139 104.296 20.2633 103.144C18.8126 101.949 16.8499 101.352 14.3753 101.352C11.8579 101.352 9.89525 101.928 8.48725 103.08C7.12192 104.189 6.43925 105.747 6.43925 107.752V118.184C6.43925 120.275 7.12192 121.875 8.48725 122.984C9.89525 124.093 11.8793 124.648 14.4393 124.648ZM49.8128 129.576C47.2101 129.576 44.8848 129.085 42.8368 128.104C40.7888 127.08 39.1888 125.693 38.0368 123.944C36.8848 122.152 36.3088 120.147 36.3088 117.928V108.456C36.3088 106.195 36.9061 104.147 38.1008 102.312C39.3381 100.477 40.9808 99.048 43.0288 98.024C45.1194 96.9573 47.3808 96.424 49.8128 96.424C52.2448 96.424 54.4634 96.936 56.4688 97.96C58.5168 98.984 60.1168 100.392 61.2688 102.184C62.4634 103.976 63.0608 106.003 63.0608 108.264V112.36C63.0608 113.043 62.8048 113.619 62.2928 114.088C61.7808 114.557 61.1621 114.792 60.4368 114.792H41.7488V117.672C41.7488 119.848 42.4314 121.597 43.7968 122.92C45.2048 124.243 47.2101 124.904 49.8128 124.904C52.4154 124.904 54.3994 124.328 55.7648 123.176C57.1301 122.024 57.8128 120.467 57.8128 118.504C59.0928 118.419 60.1594 118.675 61.0128 119.272C61.9088 119.827 62.3568 120.659 62.3568 121.768C62.3568 123.133 61.7594 124.413 60.5648 125.608C59.4128 126.803 57.8768 127.763 55.9568 128.488C54.0368 129.213 51.9888 129.576 49.8128 129.576ZM57.8768 110.44V108.264C57.8768 106.131 57.1301 104.403 55.6368 103.08C54.1861 101.715 52.2448 101.032 49.8128 101.032C47.3808 101.032 45.4181 101.715 43.9248 103.08C42.4741 104.403 41.7488 106.131 41.7488 108.264V110.44H57.8768ZM81.0778 129.576C80.4378 129.576 79.8618 129.405 79.3498 129.064C78.8378 128.723 78.4751 128.296 78.2618 127.784L65.9738 96.872C66.2298 96.744 66.5924 96.6373 67.0618 96.552C67.5311 96.4667 67.9578 96.424 68.3418 96.424C69.2804 96.424 70.1124 96.6373 70.8378 97.064C71.5631 97.4907 72.0538 98.1093 72.3098 98.92L80.7578 121.896L79.8618 124.456L80.1818 124.584L89.7818 98.92C90.0378 98.1093 90.5284 97.4907 91.2538 97.064C91.9791 96.6373 92.7898 96.424 93.6858 96.424C94.0698 96.424 94.4964 96.4667 94.9658 96.552C95.4351 96.6373 95.8191 96.744 96.1178 96.872L83.8298 127.784C83.6164 128.296 83.2538 128.723 82.7418 129.064C82.2724 129.405 81.7178 129.576 81.0778 129.576ZM106.048 91.624C104.853 91.624 103.85 91.24 103.04 90.472C102.229 89.704 101.824 88.744 101.824 87.592C101.824 86.44 102.229 85.5013 103.04 84.776C103.85 84.008 104.853 83.624 106.048 83.624C107.2 83.624 108.181 84.008 108.992 84.776C109.802 85.5013 110.208 86.44 110.208 87.592C110.208 88.744 109.802 89.704 108.992 90.472C108.181 91.24 107.2 91.624 106.048 91.624ZM103.232 100.52C103.232 99.112 103.68 98.088 104.576 97.448C105.514 96.7653 106.922 96.424 108.8 96.424V125.48C108.8 126.888 108.33 127.933 107.392 128.616C106.496 129.256 105.109 129.576 103.232 129.576V100.52ZM131.999 129.576C129.396 129.576 127.071 129.107 125.023 128.168C122.975 127.229 121.375 125.907 120.223 124.2C119.113 122.493 118.559 120.552 118.559 118.376V108.008C118.559 105.747 119.113 103.741 120.223 101.992C121.375 100.243 122.953 98.8773 124.959 97.896C126.964 96.9147 129.268 96.424 131.871 96.424C134.303 96.424 136.457 96.7867 138.335 97.512C140.255 98.1947 141.748 99.176 142.815 100.456C143.881 101.736 144.415 103.187 144.415 104.808C144.415 105.875 143.988 106.749 143.135 107.432C142.324 108.072 141.257 108.349 139.935 108.264C139.935 106.216 139.188 104.552 137.695 103.272C136.244 101.992 134.345 101.352 131.999 101.352C129.652 101.352 127.753 101.992 126.303 103.272C124.852 104.509 124.127 106.131 124.127 108.136V118.12C124.127 120.04 124.873 121.619 126.367 122.856C127.86 124.051 129.78 124.648 132.127 124.648C134.473 124.648 136.372 124.008 137.823 122.728C139.316 121.448 140.063 119.805 140.063 117.8C141.428 117.715 142.516 117.992 143.327 118.632C144.18 119.229 144.607 120.083 144.607 121.192C144.607 122.813 144.073 124.264 143.007 125.544C141.94 126.824 140.447 127.827 138.527 128.552C136.607 129.235 134.431 129.576 131.999 129.576ZM164.813 129.576C162.21 129.576 159.885 129.085 157.837 128.104C155.789 127.08 154.189 125.693 153.037 123.944C151.885 122.152 151.309 120.147 151.309 117.928V108.456C151.309 106.195 151.906 104.147 153.101 102.312C154.338 100.477 155.981 99.048 158.029 98.024C160.119 96.9573 162.381 96.424 164.813 96.424C167.245 96.424 169.463 96.936 171.469 97.96C173.517 98.984 175.117 100.392 176.269 102.184C177.463 103.976 178.061 106.003 178.061 108.264V112.36C178.061 113.043 177.805 113.619 177.293 114.088C176.781 114.557 176.162 114.792 175.437 114.792H156.749V117.672C156.749 119.848 157.431 121.597 158.797 122.92C160.205 124.243 162.21 124.904 164.813 124.904C167.415 124.904 169.399 124.328 170.765 123.176C172.13 122.024 172.813 120.467 172.813 118.504C174.093 118.419 175.159 118.675 176.013 119.272C176.909 119.827 177.357 120.659 177.357 121.768C177.357 123.133 176.759 124.413 175.565 125.608C174.413 126.803 172.877 127.763 170.957 128.488C169.037 129.213 166.989 129.576 164.813 129.576ZM172.877 110.44V108.264C172.877 106.131 172.13 104.403 170.637 103.08C169.186 101.715 167.245 101.032 164.813 101.032C162.381 101.032 160.418 101.715 158.925 103.08C157.474 104.403 156.749 106.131 156.749 108.264V110.44H172.877ZM197.033 129.576C194.857 129.576 192.809 129.256 190.889 128.616C188.969 127.933 187.411 126.973 186.217 125.736C185.065 124.499 184.489 123.048 184.489 121.384C184.489 119.336 185.726 118.227 188.201 118.056C188.627 120.445 189.63 122.216 191.209 123.368C192.83 124.477 194.878 125.032 197.353 125.032C199.827 125.032 201.747 124.669 203.113 123.944C204.478 123.219 205.161 122.109 205.161 120.616C205.161 119.549 204.883 118.696 204.329 118.056C203.774 117.373 202.878 116.797 201.641 116.328C200.446 115.816 198.718 115.325 196.457 114.856C193.641 114.216 191.401 113.533 189.737 112.808C188.073 112.083 186.793 111.123 185.897 109.928C185.043 108.733 184.617 107.155 184.617 105.192C184.617 103.528 185.129 102.035 186.153 100.712C187.177 99.3467 188.585 98.3013 190.377 97.576C192.211 96.808 194.281 96.424 196.585 96.424C198.718 96.424 200.723 96.7227 202.601 97.32C204.521 97.9173 206.057 98.7707 207.209 99.88C208.403 100.989 209.001 102.269 209.001 103.72C209.001 104.701 208.617 105.491 207.849 106.088C207.081 106.643 206.014 106.963 204.649 107.048C204.521 105.171 203.753 103.699 202.345 102.632C200.979 101.523 199.059 100.968 196.585 100.968C194.537 100.968 192.915 101.352 191.721 102.12C190.526 102.888 189.929 103.912 189.929 105.192C189.929 106.557 190.483 107.581 191.593 108.264C192.745 108.904 194.686 109.523 197.417 110.12C201.897 111.016 205.182 112.253 207.273 113.832C209.406 115.368 210.473 117.565 210.473 120.424C210.473 123.325 209.299 125.587 206.953 127.208C204.606 128.787 201.299 129.576 197.033 129.576ZM245.908 129.576C243.732 129.576 241.684 129.256 239.764 128.616C237.844 127.933 236.286 126.973 235.092 125.736C233.94 124.499 233.364 123.048 233.364 121.384C233.364 119.336 234.601 118.227 237.076 118.056C237.502 120.445 238.505 122.216 240.084 123.368C241.705 124.477 243.753 125.032 246.228 125.032C248.702 125.032 250.622 124.669 251.988 123.944C253.353 123.219 254.036 122.109 254.036 120.616C254.036 119.549 253.758 118.696 253.204 118.056C252.649 117.373 251.753 116.797 250.516 116.328C249.321 115.816 247.593 115.325 245.332 114.856C242.516 114.216 240.276 113.533 238.612 112.808C236.948 112.083 235.668 111.123 234.772 109.928C233.918 108.733 233.492 107.155 233.492 105.192C233.492 103.528 234.004 102.035 235.028 100.712C236.052 99.3467 237.46 98.3013 239.252 97.576C241.086 96.808 243.156 96.424 245.46 96.424C247.593 96.424 249.598 96.7227 251.476 97.32C253.396 97.9173 254.932 98.7707 256.084 99.88C257.278 100.989 257.876 102.269 257.876 103.72C257.876 104.701 257.492 105.491 256.724 106.088C255.956 106.643 254.889 106.963 253.524 107.048C253.396 105.171 252.628 103.699 251.22 102.632C249.854 101.523 247.934 100.968 245.46 100.968C243.412 100.968 241.79 101.352 240.596 102.12C239.401 102.888 238.804 103.912 238.804 105.192C238.804 106.557 239.358 107.581 240.468 108.264C241.62 108.904 243.561 109.523 246.292 110.12C250.772 111.016 254.057 112.253 256.148 113.832C258.281 115.368 259.348 117.565 259.348 120.424C259.348 123.325 258.174 125.587 255.828 127.208C253.481 128.787 250.174 129.576 245.908 129.576ZM266.699 101.16C266.699 98.0027 268.469 96.424 272.011 96.424V100.52C271.456 101.117 271.008 101.693 270.667 102.248L270.923 102.504C272.288 100.584 273.739 99.0907 275.275 98.024C276.811 96.9573 278.581 96.424 280.587 96.424C284.469 96.424 287.136 98.28 288.587 101.992C291.019 98.28 294.261 96.424 298.315 96.424C301.344 96.424 303.669 97.448 305.291 99.496C306.955 101.501 307.787 104.147 307.787 107.432V125.48C307.787 126.888 307.317 127.933 306.379 128.616C305.483 129.256 304.117 129.576 302.283 129.576V107.752C302.283 105.704 301.856 104.104 301.003 102.952C300.149 101.8 298.805 101.224 296.971 101.224C295.051 101.224 293.408 101.885 292.043 103.208C290.677 104.488 289.995 106.216 289.995 108.392V125.48C289.995 126.888 289.547 127.933 288.651 128.616C287.755 129.256 286.389 129.576 284.555 129.576V107.752C284.555 105.704 284.128 104.104 283.275 102.952C282.421 101.8 281.077 101.224 279.243 101.224C277.28 101.224 275.616 101.928 274.251 103.336C272.885 104.744 272.203 106.472 272.203 108.52V125.48C272.203 126.888 271.733 127.933 270.795 128.616C269.899 129.256 268.533 129.576 266.699 129.576V101.16ZM326.76 129.576C323.091 129.576 320.126 128.595 317.864 126.632C315.646 124.669 314.536 122.088 314.536 118.888C314.536 115.645 315.71 113.043 318.056 111.08C320.403 109.075 323.496 108.072 327.336 108.072C331.432 108.072 334.803 109.523 337.448 112.424L337.704 112.168C337.235 111.656 336.702 111.123 336.104 110.568V107.88C336.104 105.704 335.422 104.019 334.056 102.824C332.691 101.629 330.75 101.032 328.232 101.032C323.752 101.032 320.552 102.803 318.632 106.344C317.95 106.003 317.374 105.555 316.904 105C316.478 104.403 316.264 103.805 316.264 103.208C316.264 102.056 316.84 100.968 317.992 99.944C319.144 98.8773 320.659 98.024 322.536 97.384C324.456 96.744 326.462 96.424 328.552 96.424C332.606 96.424 335.784 97.4267 338.088 99.432C340.435 101.437 341.608 104.211 341.608 107.752V125.288C341.608 126.781 341.182 127.869 340.328 128.552C339.475 129.235 338.131 129.576 336.296 129.576V126.568C337.192 125.629 337.683 125.075 337.768 124.904L337.512 124.648C334.739 127.933 331.155 129.576 326.76 129.576ZM327.72 125.16C330.366 125.16 332.435 124.605 333.928 123.496C335.464 122.387 336.232 120.851 336.232 118.888C336.232 116.925 335.486 115.368 333.992 114.216C332.499 113.064 330.451 112.488 327.848 112.488C325.416 112.488 323.496 113.064 322.088 114.216C320.723 115.325 320.04 116.883 320.04 118.888C320.04 120.893 320.702 122.451 322.024 123.56C323.39 124.627 325.288 125.16 327.72 125.16ZM359.541 129.576C356.427 129.576 354.101 128.723 352.565 127.016C351.029 125.267 350.261 122.984 350.261 120.168V87.72C350.261 86.312 350.709 85.288 351.605 84.648C352.544 83.9653 353.952 83.624 355.829 83.624V119.976C355.829 121.64 356.171 122.835 356.853 123.56C357.536 124.285 358.667 124.648 360.245 124.648C361.824 124.648 363.275 124.264 364.597 123.496C365.152 124.136 365.429 124.883 365.429 125.736C365.429 126.76 364.896 127.656 363.829 128.424C362.763 129.192 361.333 129.576 359.541 129.576ZM379.791 129.576C376.677 129.576 374.351 128.723 372.815 127.016C371.279 125.267 370.511 122.984 370.511 120.168V87.72C370.511 86.312 370.959 85.288 371.855 84.648C372.794 83.9653 374.202 83.624 376.079 83.624V119.976C376.079 121.64 376.421 122.835 377.103 123.56C377.786 124.285 378.917 124.648 380.495 124.648C382.074 124.648 383.525 124.264 384.847 123.496C385.402 124.136 385.679 124.883 385.679 125.736C385.679 126.76 385.146 127.656 384.079 128.424C383.013 129.192 381.583 129.576 379.791 129.576ZM403.625 129.576C401.023 129.576 398.697 129.085 396.649 128.104C394.601 127.08 393.001 125.693 391.849 123.944C390.697 122.152 390.121 120.147 390.121 117.928V108.456C390.121 106.195 390.719 104.147 391.913 102.312C393.151 100.477 394.793 99.048 396.841 98.024C398.932 96.9573 401.193 96.424 403.625 96.424C406.057 96.424 408.276 96.936 410.281 97.96C412.329 98.984 413.929 100.392 415.081 102.184C416.276 103.976 416.873 106.003 416.873 108.264V112.36C416.873 113.043 416.617 113.619 416.105 114.088C415.593 114.557 414.975 114.792 414.249 114.792H395.561V117.672C395.561 119.848 396.244 121.597 397.609 122.92C399.017 124.243 401.023 124.904 403.625 124.904C406.228 124.904 408.212 124.328 409.577 123.176C410.943 122.024 411.625 120.467 411.625 118.504C412.905 118.419 413.972 118.675 414.825 119.272C415.721 119.827 416.169 120.659 416.169 121.768C416.169 123.133 415.572 124.413 414.377 125.608C413.225 126.803 411.689 127.763 409.769 128.488C407.849 129.213 405.801 129.576 403.625 129.576ZM411.689 110.44V108.264C411.689 106.131 410.943 104.403 409.449 103.08C407.999 101.715 406.057 101.032 403.625 101.032C401.193 101.032 399.231 101.715 397.737 103.08C396.287 104.403 395.561 106.131 395.561 108.264V110.44H411.689ZM438.149 101.352C435.76 101.352 433.776 102.077 432.197 103.528C430.619 104.936 429.829 106.664 429.829 108.712V125.48C429.829 126.888 429.36 127.933 428.421 128.616C427.525 129.256 426.139 129.576 424.261 129.576V101.16C424.261 98.0027 426.053 96.424 429.637 96.424V100.328C428.955 101.053 428.485 101.693 428.229 102.248L428.485 102.504C431.216 98.4507 434.629 96.424 438.725 96.424C440.261 96.424 441.435 96.808 442.245 97.576C443.056 98.3013 443.461 99.1973 443.461 100.264C443.461 101.032 443.269 101.715 442.885 102.312C441.691 101.672 440.112 101.352 438.149 101.352ZM479.435 129.576C476.405 129.576 474.144 128.723 472.651 127.016C471.157 125.267 470.411 122.984 470.411 120.168V101.48H464.459C464.459 100.029 464.779 98.92 465.419 98.152C466.059 97.384 466.933 97 468.043 97H470.475V90.92C470.475 89.512 470.923 88.488 471.819 87.848C472.757 87.1653 474.144 86.824 475.979 86.824V97H484.491C484.491 99.9867 483.147 101.48 480.459 101.48H476.043V119.976C476.043 121.683 476.341 122.899 476.939 123.624C477.579 124.307 478.709 124.648 480.331 124.648C481.824 124.648 483.232 124.264 484.555 123.496C485.109 124.051 485.387 124.797 485.387 125.736C485.387 126.76 484.853 127.656 483.787 128.424C482.72 129.192 481.269 129.576 479.435 129.576ZM492.136 88.36C492.136 86.824 492.606 85.6507 493.544 84.84C494.483 84.0293 495.87 83.624 497.704 83.624V100.456C497.107 101.139 496.638 101.736 496.296 102.248L496.552 102.504C497.875 100.712 499.539 99.2613 501.544 98.152C503.55 97 505.726 96.424 508.072 96.424C511.528 96.424 514.259 97.448 516.264 99.496C518.27 101.544 519.272 104.189 519.272 107.432V125.48C519.272 126.888 518.803 127.933 517.864 128.616C516.968 129.256 515.582 129.576 513.704 129.576V108.008C513.704 105.96 513.128 104.339 511.976 103.144C510.824 101.949 509.075 101.352 506.728 101.352C505.15 101.352 503.656 101.693 502.248 102.376C500.883 103.016 499.774 103.912 498.92 105.064C498.11 106.173 497.704 107.389 497.704 108.712V125.48C497.704 126.888 497.235 127.933 496.296 128.616C495.4 129.256 494.014 129.576 492.136 129.576V88.36ZM538.198 129.576C534.528 129.576 531.563 128.595 529.302 126.632C527.083 124.669 525.974 122.088 525.974 118.888C525.974 115.645 527.147 113.043 529.494 111.08C531.84 109.075 534.934 108.072 538.774 108.072C542.87 108.072 546.24 109.523 548.886 112.424L549.142 112.168C548.672 111.656 548.139 111.123 547.542 110.568V107.88C547.542 105.704 546.859 104.019 545.494 102.824C544.128 101.629 542.187 101.032 539.67 101.032C535.19 101.032 531.99 102.803 530.07 106.344C529.387 106.003 528.811 105.555 528.342 105C527.915 104.403 527.702 103.805 527.702 103.208C527.702 102.056 528.278 100.968 529.43 99.944C530.582 98.8773 532.096 98.024 533.974 97.384C535.894 96.744 537.899 96.424 539.99 96.424C544.043 96.424 547.222 97.4267 549.526 99.432C551.872 101.437 553.046 104.211 553.046 107.752V125.288C553.046 126.781 552.619 127.869 551.766 128.552C550.912 129.235 549.568 129.576 547.734 129.576V126.568C548.63 125.629 549.12 125.075 549.206 124.904L548.95 124.648C546.176 127.933 542.592 129.576 538.198 129.576ZM539.158 125.16C541.803 125.16 543.872 124.605 545.366 123.496C546.902 122.387 547.67 120.851 547.67 118.888C547.67 116.925 546.923 115.368 545.43 114.216C543.936 113.064 541.888 112.488 539.286 112.488C536.854 112.488 534.934 113.064 533.526 114.216C532.16 115.325 531.478 116.883 531.478 118.888C531.478 120.893 532.139 122.451 533.462 123.56C534.827 124.627 536.726 125.16 539.158 125.16ZM561.699 101.16C561.699 98.0027 563.491 96.424 567.075 96.424V100.52C566.691 100.904 566.243 101.48 565.731 102.248L565.987 102.504C567.267 100.712 568.931 99.2613 570.979 98.152C573.027 97 575.245 96.424 577.635 96.424C581.091 96.424 583.821 97.448 585.827 99.496C587.832 101.544 588.835 104.189 588.835 107.432V125.48C588.835 126.888 588.365 127.933 587.427 128.616C586.531 129.256 585.144 129.576 583.267 129.576V108.008C583.267 105.96 582.691 104.339 581.539 103.144C580.387 101.949 578.637 101.352 576.291 101.352C574.712 101.352 573.219 101.693 571.811 102.376C570.445 103.016 569.336 103.912 568.483 105.064C567.672 106.173 567.267 107.389 567.267 108.712V125.48C567.267 126.888 566.797 127.933 565.859 128.616C564.963 129.256 563.576 129.576 561.699 129.576V101.16Z" fill="white"/>
</svg>
